SplineFontDB: 3.0
FontName: Neuton-Regular
FullName: Neuton Regular
FamilyName: Neuton
Weight: Regular
Copyright: Copyright (c) 2010, 2011 Brian M Zick (http://21326.info/),\nwith Reserved Font Name "Neuton".\nMinor cleanup by Wallace Smith and William Zick.\n\nThis Font Software is licensed under the SIL Open Font License, Version 1.1.\nThis license is available with a FAQ at: http://scripts.sil.org/OFL\n   WITHOUT WARRANTIES OR CONDITIONS OF ANY KIND, either express or implied.\n   See the License for the specific language governing permissions and\n   limitations under the License.
Version: 1.41
ItalicAngle: 0
UnderlinePosition: -361
UnderlineWidth: 0
Ascent: 1638
Descent: 410
LayerCount: 2
Layer: 0 1 "Back"  1
Layer: 1 1 "Fore"  0
NeedsXUIDChange: 1
FSType: 0
OS2Version: 1
OS2_WeightWidthSlopeOnly: 0
OS2_UseTypoMetrics: 0
CreationTime: 1305772905
ModificationTime: 1311362181
PfmFamily: 17
TTFWeight: 500
TTFWidth: 5
LineGap: 0
VLineGap: 0
OS2TypoAscent: 1927
OS2TypoAOffset: 0
OS2TypoDescent: -418
OS2TypoDOffset: 0
OS2TypoLinegap: 0
OS2WinAscent: 1927
OS2WinAOffset: 0
OS2WinDescent: 418
OS2WinDOffset: 0
HheadAscent: 1927
HheadAOffset: 0
HheadDescent: -418
HheadDOffset: 0
OS2SubXSize: 1095
OS2SubYSize: 1179
OS2SubXOff: 0
OS2SubYOff: 235
OS2SupXSize: 1095
OS2SupYSize: 1179
OS2SupXOff: 0
OS2SupYOff: 809
OS2StrikeYSize: 84
OS2StrikeYPos: 4436
OS2Vendor: 'PfEd'
OS2CodePages: a00000b3.00000000
Lookup: 1 0 0 "'sups' Superscript lookup 0"  {"'sups' Superscript lookup 0 subtable" ("superior" ) } ['sups' ('DFLT' <'dflt' > ) ]
Lookup: 258 0 0 "'kern' Horizontal Kerning in Latin lookup 0"  {"'kern' Horizontal Kerning in Latin lookup 0 per glyph data 0"  "'kern' Horizontal Kerning in Latin lookup 0 kerning class 1" [410,0,0] } ['kern' ('latn' <'dflt' > ) ]
MarkAttachClasses: 1
DEI: 91125
KernClass2: 89+ 74 "'kern' Horizontal Kerning in Latin lookup 0 kerning class 1" 
 9 ampersand
 8 asterisk
 2 at
 9 backslash
 5 comma
 10 exclamdown
 4 four
 8 four.osf

StartChar: .notdef
Encoding: 65536 -1 0
Width: 563
VWidth: 0
Flags: W
HStem: 0 55<96 427> 1050 55<96 427>
VStem: 41 55<55 1050> 427 55<55 1050>
LayerCount: 2
Fore
SplineSet
96 55 m 1,0,-1
 427 55 l 1,1,-1
 427 1050 l 1,2,-1
 96 1050 l 1,3,-1
 96 55 l 1,0,-1
41 0 m 1,4,-1
 41 1105 l 1,5,-1
 482 1105 l 1,6,-1
 482 0 l 1,7,-1
 41 0 l 1,4,-1
EndSplineSet
Validated: 19457
Colour: ffffff
EndChar

StartChar: A
Encoding: 65 65 1
Width: 1234
VWidth: 0
Flags: W
HStem: 0 80<406.761 431 725 754.091 1211.04 1228> 432 102<406 758> 1248 20G<612.581 716.818>
DStem2: 121 129 256 124 0.367625 0.929974<44.9795 372.586 481.413 481.413> 710 1268 592 1034 0.322674 -0.94651<183.408 710.227 816.128 1138.09>
LayerCount: 2
Fore
SplineSet
406 534 m 1,0,-1
 758 534 l 1,1,-1
 592 1034 l 1,2,-1
 406 534 l 1,0,-1
-37 0 m 1,3,-1
 -28 74 l 1,4,-1
 121 129 l 1,5,-1
 559 1237 l 1,6,-1
 710 1268 l 1,7,-1
 1100 124 l 1,8,-1
 1237 80 l 1,9,-1
 1228 0 l 1,10,-1
 713 0 l 1,11,-1
 725 74 l 1,12,-1
 896 129 l 1,13,-1
 787 432 l 1,14,-1
 368 432 l 1,15,-1
 256 124 l 1,16,-1
 442 80 l 1,17,-1
 431 0 l 1,18,-1
 -37 0 l 1,3,-1
EndSplineSet
Validated: 19457
Colour: ffffff
EndChar

StartChar: AE
Encoding: 198 198 2
Width: 1684
VWidth: 0
Flags: W
HStem: 0 96<998 1462> 0 74<650 700.939> 472 96<510 817> 586 93<998 1241> 1152 92<998 1436> 1168 76<534 597.045>
VStem: 817 181<121 472 568 586 679 1058> 1275 85<424 483.632> 1478 86<940 1012.36>
DStem2: 105 131 240 126 0.536766 0.843731<68.2447 477.191 586.101 586.101>
LayerCount: 2
Fore
SplineSet
510 568 m 1,0,-1
 817 568 l 1,1,-1
 817 1058 l 1,2,-1
 510 568 l 1,0,-1
-40 1 m 1,3,-1
 -31 76 l 1,4,-1
 105 131 l 1,5,-1
 738 1126 l 1,6,-1
 524 1168 l 1,7,-1
 534 1244 l 1,8,-1
 1596 1244 l 1,9,-1
 1564 927 l 1,10,-1
 1478 940 l 1,11,-1
 1436 1152 l 1,12,-1
 998 1152 l 1,13,-1
 998 679 l 1,14,-1
 1257 679 l 1,15,-1
 1299 802 l 1,16,-1
 1394 810 l 1,17,-1
 1360 424 l 1,18,-1
 1275 409 l 1,19,-1
 1241 586 l 1,20,-1
 998 586 l 1,21,-1
 998 96 l 1,22,-1
 1462 96 l 1,23,-1
 1563 329 l 1,24,-1
 1643 313 l 1,25,-1
 1613 0 l 1,26,-1
 642 0 l 1,27,-1
 650 74 l 1,28,-1
 817 121 l 1,29,-1
 817 472 l 1,30,-1
 458 472 l 1,31,-1
 240 126 l 1,32,-1
 428 83 l 1,33,-1
 415 1 l 1,34,-1
 -40 1 l 1,3,-1
EndSplineSet
Validated: 19457
Colour: ffffff
EndChar

StartChar: Aacute
Encoding: 193 193 3
Width: 1234
VWidth: 0
Flags: W
HStem: 0 80<406.761 431 725 754.091 1211.04 1228> 432 102<406 758> 1248 20G<612.581 716.818>
DStem2: 121 129 256 124 0.352226 0.935915<42.8709 370.582 479.43 1012.9> 710 1268 592 1034 0.322674 -0.94651<183.408 710.227 816.128 1138.09>
LayerCount: 2
Fore
SplineSet
593 1385 m 1,0,-1
 716 1710 l 1,1,-1
 827 1670 l 1,2,-1
 643 1354 l 1,3,-1
 593 1385 l 1,0,-1
406 534 m 1,4,-1
 758 534 l 1,5,-1
 592 1034 l 1,6,-1
 406 534 l 1,4,-1
-37 0 m 1,7,-1
 -28 74 l 1,8,-1
 121 129 l 1,9,-1
 559 1237 l 1,10,-1
 710 1268 l 1,11,-1
 1100 124 l 1,12,-1
 1237 80 l 1,13,-1
 1228 0 l 1,14,-1
 713 0 l 1,15,-1
 725 74 l 1,16,-1
 896 129 l 1,17,-1
 787 432 l 1,18,-1
 368 432 l 1,19,-1
 256 124 l 1,20,-1
 442 80 l 1,21,-1
 431 0 l 1,22,-1
 -37 0 l 1,7,-1
EndSplineSet
Validated: 19457
Colour: ffffff
EndChar

StartChar: Abreve
Encoding: 258 258 4
Width: 1234
VWidth: 0
Flags: W
HStem: 0 80<406.761 431 725 754.091 1211.04 1228> 432 102<406 758> 1248 20G<612.581 716.818> 1379 108<534.985 749.58>
VStem: 451 55<1536 1566.28>
DStem2: 121 129 368 432 0.380832 0.924644<178.958 374.233 483.018 483.018> 710 1268 592 1034 0.322674 -0.94651<183.408 710.227 816.128 1138.09>
LayerCount: 2
Fore
SplineSet
451 1556 m 1,0,-1
 497 1589 l 1,1,-1
 506 1572 l 1,2,3
 522 1538 522 1538 558 1512.5 c 128,-1,4
 594 1487 594 1487 640 1487 c 0,5,6
 729 1487 729 1487 783 1573 c 1,7,-1
 793 1590 l 1,8,-1
 833 1561 l 1,9,10
 806.215 1476.18 806.215 1476.18 757.108 1427.59 c 128,-1,11
 708 1379 708 1379 637.5 1379 c 128,-1,12
 567 1379 567 1379 520 1425 c 128,-1,13
 473 1471 473 1471 457 1536 c 1,14,-1
 451 1556 l 1,0,-1
406 534 m 1,15,-1
 758 534 l 1,16,-1
 592 1034 l 1,17,-1
 406 534 l 1,15,-1
-37 0 m 1,18,-1
 -28 74 l 1,19,-1
 121 129 l 1,20,-1
 559 1237 l 1,21,-1
 710 1268 l 1,22,-1
 1100 124 l 1,23,-1
 1237 80 l 1,24,-1
 1228 0 l 1,25,-1
 713 0 l 1,26,-1
 725 74 l 1,27,-1
 896 129 l 1,28,-1
 787 432 l 1,29,-1
 368 432 l 1,30,-1
 256 124 l 1,31,-1
 442 80 l 1,32,-1
 431 0 l 1,33,-1
 -37 0 l 1,18,-1
EndSplineSet
Validated: 543745
Colour: ffffff
EndChar

StartChar: Acaron
Encoding: 461 461 5
Width: 1234
VWidth: 0
Flags: W
HStem: 0 80<406.761 431 725 754.091 1211.04 1228> 432 102<406 758> 1248 20G<612.581 716.818>
DStem2: 121 129 256 124 0.367625 0.929974<44.9795 372.586 481.413 481.413> 509 1589 429 1527 0.733231 -0.67998<0 207.168> 710 1268 592 1034 0.322674 -0.94651<183.408 710.227 816.128 1138.09> 667 1445 663 1376 0.692867 0.721065<0 186.172>
LayerCount: 2
Fore
SplineSet
429 1527 m 1,0,-1
 509 1589 l 1,1,-1
 658 1445 l 1,2,-1
 667 1445 l 1,3,-1
 790 1585 l 1,4,-1
 835 1555 l 1,5,-1
 663 1376 l 1,6,-1
 608 1361 l 1,7,-1
 429 1527 l 1,0,-1
406 534 m 1,8,-1
 758 534 l 1,9,-1
 592 1034 l 1,10,-1
 406 534 l 1,8,-1
-37 0 m 1,11,-1
 -28 74 l 1,12,-1
 121 129 l 1,13,-1
 559 1237 l 1,14,-1
 710 1268 l 1,15,-1
 1100 124 l 1,16,-1
 1237 80 l 1,17,-1
 1228 0 l 1,18,-1
 713 0 l 1,19,-1
 725 74 l 1,20,-1
 896 129 l 1,21,-1
 787 432 l 1,22,-1
 368 432 l 1,23,-1
 256 124 l 1,24,-1
 442 80 l 1,25,-1
 431 0 l 1,26,-1
 -37 0 l 1,11,-1
EndSplineSet
Validated: 19457
Colour: ffffff
EndChar

StartChar: Acircumflex
Encoding: 194 194 6
Width: 1234
VWidth: 0
Flags: W
HStem: 0 80<406.761 431 725 754.091 1211.04 1228> 432 102<406 758> 1248 20G<612.581 716.818>
DStem2: 121 129 256 124 0.367625 0.929974<44.9795 372.586 481.413 481.413> 710 1268 592 1034 0.322674 -0.94651<183.408 710.227 816.128 1138.09>
LayerCount: 2
Fore
SplineSet
443 1392 m 1,0,-1
 611 1572 l 1,1,-1
 666 1585 l 1,2,-1
 844 1400 l 1,3,-1
 794 1364 l 1,4,-1
 632 1472 l 1,5,-1
 621 1472 l 1,6,-1
 480 1361 l 1,7,-1
 443 1392 l 1,0,-1
406 534 m 1,8,-1
 758 534 l 1,9,-1
 592 1034 l 1,10,-1
 406 534 l 1,8,-1
-37 0 m 1,11,-1
 -28 74 l 1,12,-1
 121 129 l 1,13,-1
 559 1237 l 1,14,-1
 710 1268 l 1,15,-1
 1100 124 l 1,16,-1
 1237 80 l 1,17,-1
 1228 0 l 1,18,-1
 713 0 l 1,19,-1
 725 74 l 1,20,-1
 896 129 l 1,21,-1
 787 432 l 1,22,-1
 368 432 l 1,23,-1
 256 124 l 1,24,-1
 442 80 l 1,25,-1
 431 0 l 1,26,-1
 -37 0 l 1,11,-1
EndSplineSet
Validated: 19457
Colour: ffffff
EndChar

StartChar: Adieresis
Encoding: 196 196 7
Width: 1234
VWidth: 0
Flags: W
HStem: 0 80<406.761 431 725 754.091 1211.04 1228> 432 102<406 758> 1248 20G<612.581 716.818> 1373 157<449.299 565.186 716.299 833.67>
VStem: 423 169<1396.21 1507.31> 690 171<1396.21 1507.31>
DStem2: 121 129 256 124 0.367625 0.929974<44.9795 372.586 481.413 481.413> 710 1268 592 1034 0.322674 -0.94651<183.408 710.227 816.128 1138.09>
LayerCount: 2
Fore
SplineSet
714.5 1395.5 m 128,-1,1
 690 1418 690 1418 690 1452.5 c 128,-1,2
 690 1487 690 1487 715.5 1508.5 c 128,-1,3
 741 1530 741 1530 774.5 1530 c 128,-1,4
 808 1530 808 1530 834.5 1508 c 128,-1,5
 861 1486 861 1486 861 1452 c 128,-1,6
 861 1418 861 1418 834.5 1395.5 c 128,-1,7
 808 1373 808 1373 773.5 1373 c 128,-1,0
 739 1373 739 1373 714.5 1395.5 c 128,-1,1
447.5 1395.5 m 128,-1,9
 423 1418 423 1418 423 1452.5 c 128,-1,10
 423 1487 423 1487 448.5 1508.5 c 128,-1,11
 474 1530 474 1530 507 1530 c 128,-1,12
 540 1530 540 1530 566 1508 c 128,-1,13
 592 1486 592 1486 592 1452 c 128,-1,14
 592 1418 592 1418 566.5 1395.5 c 128,-1,15
 541 1373 541 1373 506.5 1373 c 128,-1,8
 472 1373 472 1373 447.5 1395.5 c 128,-1,9
406 534 m 1,16,-1
 758 534 l 1,17,-1
 592 1034 l 1,18,-1
 406 534 l 1,16,-1
-37 0 m 1,19,-1
 -28 74 l 1,20,-1
 121 129 l 1,21,-1
 559 1237 l 1,22,-1
 710 1268 l 1,23,-1
 1100 124 l 1,24,-1
 1237 80 l 1,25,-1
 1228 0 l 1,26,-1
 713 0 l 1,27,-1
 725 74 l 1,28,-1
 896 129 l 1,29,-1
 787 432 l 1,30,-1
 368 432 l 1,31,-1
 256 124 l 1,32,-1
 442 80 l 1,33,-1
 431 0 l 1,34,-1
 -37 0 l 1,19,-1
EndSplineSet
Validated: 19457
Colour: ffffff
EndChar

StartChar: Agrave
Encoding: 192 192 8
Width: 1234
VWidth: 0
Flags: W
HStem: 0 80<406.761 431 725 754.091 1211.04 1228> 432 102<406 758> 1248 20G<612.581 716.818>
DStem2: 121 129 256 124 0.367625 0.929974<44.9795 372.586 481.413 481.413> 710 1268 592 1034 0.318427 -0.947948<184.245 711.078 817.003 1138.94>
LayerCount: 2
Fore
SplineSet
436 1664 m 1,0,-1
 552 1702 l 1,1,-1
 684 1368 l 1,2,-1
 627 1334 l 1,3,-1
 436 1664 l 1,0,-1
406 534 m 1,4,-1
 758 534 l 1,5,-1
 592 1034 l 1,6,-1
 406 534 l 1,4,-1
-37 0 m 1,7,-1
 -28 74 l 1,8,-1
 121 129 l 1,9,-1
 559 1237 l 1,10,-1
 710 1268 l 1,11,-1
 1100 124 l 1,12,-1
 1237 80 l 1,13,-1
 1228 0 l 1,14,-1
 713 0 l 1,15,-1
 725 74 l 1,16,-1
 896 129 l 1,17,-1
 787 432 l 1,18,-1
 368 432 l 1,19,-1
 256 124 l 1,20,-1
 442 80 l 1,21,-1
 431 0 l 1,22,-1
 -37 0 l 1,7,-1
EndSplineSet
Validated: 19457
Colour: ffffff
EndChar

StartChar: Amacron
Encoding: 256 256 9
Width: 1234
VWidth: 0
Flags: W
HStem: 0 80<406.761 431 725 754.091 1211.04 1228> 432 102<406 758> 1248 20G<612.581 716.818> 1383 101<429 856>
DStem2: 121 129 256 124 0.367625 0.929974<44.9795 372.586 481.413 481.413> 710 1268 592 1034 0.322674 -0.94651<183.408 710.227 816.128 1138.09>
LayerCount: 2
Fore
SplineSet
415 1383 m 1,0,-1
 429 1484 l 1,1,-1
 869 1484 l 1,2,-1
 856 1383 l 1,3,-1
 415 1383 l 1,0,-1
406 534 m 1,4,-1
 758 534 l 1,5,-1
 592 1034 l 1,6,-1
 406 534 l 1,4,-1
-37 0 m 1,7,-1
 -28 74 l 1,8,-1
 121 129 l 1,9,-1
 559 1237 l 1,10,-1
 710 1268 l 1,11,-1
 1100 124 l 1,12,-1
 1237 80 l 1,13,-1
 1228 0 l 1,14,-1
 713 0 l 1,15,-1
 725 74 l 1,16,-1
 896 129 l 1,17,-1
 787 432 l 1,18,-1
 368 432 l 1,19,-1
 256 124 l 1,20,-1
 442 80 l 1,21,-1
 431 0 l 1,22,-1
 -37 0 l 1,7,-1
EndSplineSet
Validated: 19457
Colour: ffffff
EndChar

StartChar: Aogonek
Encoding: 260 260 10
Width: 1234
VWidth: 0
Flags: W
HStem: -386 51<1239.28 1250.56> 0 80<406.761 431 725 754.091 1211.04 1228> 432 102<406 758> 1248 20G<612.581 716.818>
VStem: 1002 149<-269.564 -93.5991>
DStem2: 121 129 256 124 0.367625 0.929974<44.9795 372.586 481.413 481.413> 710 1268 592 1034 0.322674 -0.94651<183.408 710.227 816.128 1138.09>
LayerCount: 2
Fore
SplineSet
406 534 m 1,0,-1
 758 534 l 1,1,-1
 592 1034 l 1,2,-1
 406 534 l 1,0,-1
1151 -148 m 0,3,4
 1151 -263.312 1151 -263.312 1275 -335 c 1,5,-1
 1241 -386 l 1,6,7
 1135 -375 1135 -375 1068.5 -324.5 c 128,-1,8
 1002 -274 1002 -274 1002 -219 c 128,-1,9
 1002 -164 1002 -164 1029 -118 c 128,-1,10
 1056 -72 1056 -72 1137 0 c 1,11,-1
 713 0 l 1,12,-1
 725 74 l 1,13,-1
 896 129 l 1,14,-1
 787 432 l 1,15,-1
 368 432 l 1,16,-1
 256 124 l 1,17,-1
 442 80 l 1,18,-1
 431 0 l 1,19,-1
 -37 0 l 1,20,-1
 -28 74 l 1,21,-1
 121 129 l 1,22,-1
 559 1237 l 1,23,-1
 710 1268 l 1,24,-1
 1100 124 l 1,25,-1
 1237 80 l 1,26,-1
 1228 0 l 1,27,-1
 1211 0 l 1,28,29
 1151 -100 1151 -100 1151 -148 c 0,3,4
EndSplineSet
Validated: 543745
Colour: ffffff
EndChar

StartChar: Aring
Encoding: 197 197 11
Width: 1234
VWidth: 0
Flags: W
HStem: 0 80<406.761 431 725 754.091 1211.04 1228> 432 102<406 758> 1248 20G<612.581 716.818> 1367 48<589.397 705.666> 1656 48<581 694.631>
VStem: 480 72<1439.92 1628.93> 734 70<1440.28 1627.59>
DStem2: 121 129 256 124 0.367625 0.929974<44.9795 372.586 481.413 481.413> 710 1268 592 1034 0.322674 -0.94651<183.408 710.227 816.128 1138.09>
LayerCount: 2
Fore
SplineSet
573.5 1623 m 128,-1,1
 552 1590 552 1590 552 1541 c 128,-1,2
 552 1492 552 1492 577 1453.5 c 128,-1,3
 602 1415 602 1415 645 1415 c 128,-1,4
 688 1415 688 1415 711 1445 c 128,-1,5
 734 1475 734 1475 734 1527 c 128,-1,6
 734 1579 734 1579 707 1617.5 c 128,-1,7
 680 1656 680 1656 637.5 1656 c 128,-1,0
 595 1656 595 1656 573.5 1623 c 128,-1,1
523 1411.5 m 128,-1,9
 480 1456 480 1456 480 1528.5 c 128,-1,10
 480 1601 480 1601 530 1652.5 c 128,-1,11
 580 1704 580 1704 650 1704 c 128,-1,12
 720 1704 720 1704 762 1658.5 c 128,-1,13
 804 1613 804 1613 804 1542.5 c 128,-1,14
 804 1472 804 1472 757 1419.5 c 128,-1,15
 710 1367 710 1367 638 1367 c 128,-1,8
 566 1367 566 1367 523 1411.5 c 128,-1,9
406 534 m 1,16,-1
 758 534 l 1,17,-1
 592 1034 l 1,18,-1
 406 534 l 1,16,-1
-37 0 m 1,19,-1
 -28 74 l 1,20,-1
 121 129 l 1,21,-1
 559 1237 l 1,22,-1
 710 1268 l 1,23,-1
 1100 124 l 1,24,-1
 1237 80 l 1,25,-1
 1228 0 l 1,26,-1
 713 0 l 1,27,-1
 725 74 l 1,28,-1
 896 129 l 1,29,-1
 787 432 l 1,30,-1
 368 432 l 1,31,-1
 256 124 l 1,32,-1
 442 80 l 1,33,-1
 431 0 l 1,34,-1
 -37 0 l 1,19,-1
EndSplineSet
Validated: 19457
Colour: ffffff
EndChar

StartChar: Atilde
Encoding: 195 195 12
Width: 1234
VWidth: 0
Flags: W
HStem: 0 80<406.761 431 725 754.091 1211.04 1228> 432 102<406 758> 1248 20G<612.581 716.818> 1391 105<658.391 821.724> 1423 103<452.192 610.127>
VStem: 406 39<1380.43 1399.06>
DStem2: 121 129 256 124 0.367625 0.929974<44.9795 372.586 481.413 481.413> 710 1268 592 1034 0.322674 -0.94651<183.408 710.227 816.128 1138.09>
LayerCount: 2
Fore
SplineSet
504 1423 m 2,0,1
 478.292 1423 478.292 1423 445 1376 c 1,2,-1
 406 1383 l 1,3,4
 413.288 1426.73 413.288 1426.73 436.644 1460.86 c 0,5,6
 481.211 1526 481.211 1526 529 1526 c 2,7,-1
 543 1526 l 1,8,-1
 764 1496 l 1,9,-1
 768 1496 l 2,10,11
 791 1496 791 1496 825 1536 c 1,12,-1
 872 1535 l 1,13,14
 824 1391 824 1391 743 1391 c 0,15,16
 734 1391 734 1391 730 1392 c 2,17,-1
 507 1423 l 1,18,-1
 504 1423 l 2,0,1
406 534 m 1,19,-1
 758 534 l 1,20,-1
 592 1034 l 1,21,-1
 406 534 l 1,19,-1
-37 0 m 1,22,-1
 -28 74 l 1,23,-1
 121 129 l 1,24,-1
 559 1237 l 1,25,-1
 710 1268 l 1,26,-1
 1100 124 l 1,27,-1
 1237 80 l 1,28,-1
 1228 0 l 1,29,-1
 713 0 l 1,30,-1
 725 74 l 1,31,-1
 896 129 l 1,32,-1
 787 432 l 1,33,-1
 368 432 l 1,34,-1
 256 124 l 1,35,-1
 442 80 l 1,36,-1
 431 0 l 1,37,-1
 -37 0 l 1,22,-1
EndSplineSet
Validated: 543745
Colour: ffffff
EndChar

StartChar: B
Encoding: 66 66 13
Width: 1147
VWidth: 0
Flags: W
HStem: 0 96<420 796.042> 0 74<61 111.939> 605 83<420 740.289> 1171 86<421.5 694.575>
VStem: 228 192<121 605 688 1104> 808 188<806.406 1061.12> 904 196<204.449 494.726>
LayerCount: 2
Fore
SplineSet
420 688 m 1,0,-1
 678 688 l 1,1,2
 808 742 808 742 808 909 c 0,3,4
 808 1011.29 808 1011.29 746 1085.5 c 0,5,6
 674.57 1171 674.57 1171 500 1171 c 0,7,8
 467 1171 467 1171 420 1164 c 1,9,-1
 420 688 l 1,0,-1
420 96 m 1,10,-1
 640 96 l 2,11,12
 764 96 764 96 834 169.5 c 128,-1,13
 904 243 904 243 904 346 c 128,-1,14
 904 449 904 449 835 527 c 128,-1,15
 766 605 766 605 643 605 c 2,16,-1
 420 605 l 1,17,-1
 420 96 l 1,10,-1
50 0 m 1,18,-1
 61 74 l 1,19,-1
 228 121 l 1,20,-1
 228 1104 l 1,21,-1
 57 1134 l 1,22,-1
 67 1211 l 1,23,24
 385 1257 385 1257 528 1257 c 128,-1,25
 671 1257 671 1257 757.5 1233 c 128,-1,26
 844 1209 844 1209 894.5 1168 c 0,27,28
 996 1085.59 996 1085.59 996 967 c 0,29,30
 996 843.443 996 843.443 912.5 756.5 c 0,31,32
 864 706 864 706 790 679 c 1,33,-1
 790 672 l 1,34,35
 934 664 934 664 1017 576 c 128,-1,36
 1100 488 1100 488 1100 380 c 0,37,38
 1100 182.16 1100 182.16 929.5 79 c 0,39,40
 798.931 -9.87948e-06 798.931 -9.87948e-06 568 0 c 2,41,-1
 50 0 l 1,18,-1
EndSplineSet
Validated: 543777
Colour: ffffff
EndChar

StartChar: C
Encoding: 67 67 14
Width: 1153
VWidth: 0
Flags: W
HStem: -24 135<536.931 880.281> 1174 95<486.019 838.576>
VStem: 61 214<402.867 845.755> 947 88<850 925.093>
LayerCount: 2
Fore
SplineSet
110 325.5 m 128,-1,1
 61 444 61 444 61 562.5 c 128,-1,2
 61 681 61 681 83.5 773.5 c 128,-1,3
 106 866 106 866 156.5 956 c 128,-1,4
 207 1046 207 1046 279.5 1115 c 128,-1,5
 352 1184 352 1184 462 1226.5 c 128,-1,6
 572 1269 572 1269 704 1269 c 0,7,8
 934 1269 934 1269 1066 1169 c 1,9,-1
 1035 837 l 1,10,-1
 947 850 l 1,11,-1
 905 1070 l 1,12,13
 824 1174 824 1174 655.5 1174 c 128,-1,14
 487 1174 487 1174 381 1034 c 128,-1,15
 275 894 275 894 275 658 c 0,16,17
 275 528 275 528 312.5 422 c 128,-1,18
 350 316 350 316 413 249 c 0,19,20
 542.761 111 542.761 111 728 111 c 0,21,22
 822 111 822 111 914.5 153.5 c 128,-1,23
 1007 196 1007 196 1078 261 c 1,24,-1
 1113 185 l 1,25,26
 1045 102 1045 102 920 39 c 128,-1,27
 795 -24 795 -24 664.5 -24 c 128,-1,28
 534 -24 534 -24 429 16.5 c 128,-1,29
 324 57 324 57 241.5 132 c 128,-1,0
 159 207 159 207 110 325.5 c 128,-1,1
EndSplineSet
Validated: 543745
Colour: ffffff
EndChar

StartChar: Cacute
Encoding: 262 262 15
Width: 1153
VWidth: 0
Flags: W
HStem: -24 135<536.931 880.281> 1174 95<486.019 838.576>
VStem: 61 214<402.867 845.755> 947 88<850 925.093>
LayerCount: 2
Fore
SplineSet
604 1385 m 1,0,-1
 726 1710 l 1,1,-1
 838 1670 l 1,2,-1
 654 1354 l 1,3,-1
 604 1385 l 1,0,-1
110 325.5 m 128,-1,5
 61 444 61 444 61 562.5 c 128,-1,6
 61 681 61 681 83.5 773.5 c 128,-1,7
 106 866 106 866 156.5 956 c 128,-1,8
 207 1046 207 1046 279.5 1115 c 128,-1,9
 352 1184 352 1184 462 1226.5 c 128,-1,10
 572 1269 572 1269 704 1269 c 0,11,12
 934 1269 934 1269 1066 1169 c 1,13,-1
 1035 837 l 1,14,-1
 947 850 l 1,15,-1
 905 1070 l 1,16,17
 824 1174 824 1174 655.5 1174 c 128,-1,18
 487 1174 487 1174 381 1034 c 128,-1,19
 275 894 275 894 275 658 c 0,20,21
 275 528 275 528 312.5 422 c 128,-1,22
 350 316 350 316 413 249 c 0,23,24
 542.761 111 542.761 111 728 111 c 0,25,26
 822 111 822 111 914.5 153.5 c 128,-1,27
 1007 196 1007 196 1078 261 c 1,28,-1
 1113 185 l 1,29,30
 1045 102 1045 102 920 39 c 128,-1,31
 795 -24 795 -24 664.5 -24 c 128,-1,32
 534 -24 534 -24 429 16.5 c 128,-1,33
 324 57 324 57 241.5 132 c 128,-1,4
 159 207 159 207 110 325.5 c 128,-1,5
EndSplineSet
Validated: 543745
Colour: ffffff
EndChar

StartChar: Ccaron
Encoding: 268 268 16
Width: 1153
VWidth: 0
Flags: W
HStem: -24 135<536.931 880.281> 1174 95<486.019 838.576>
VStem: 61 214<402.867 845.755> 947 88<850 925.093>
DStem2: 552 1589 472 1527 0.733231 -0.67998<0 207.168> 712 1445 706 1376 0.694953 0.719055<0 186.147>
LayerCount: 2
Fore
SplineSet
472 1527 m 1,0,-1
 552 1589 l 1,1,-1
 701 1445 l 1,2,-1
 712 1445 l 1,3,-1
 835 1585 l 1,4,-1
 879 1555 l 1,5,-1
 706 1376 l 1,6,-1
 651 1361 l 1,7,-1
 472 1527 l 1,0,-1
110 325.5 m 128,-1,9
 61 444 61 444 61 562.5 c 128,-1,10
 61 681 61 681 83.5 773.5 c 128,-1,11
 106 866 106 866 156.5 956 c 128,-1,12
 207 1046 207 1046 279.5 1115 c 128,-1,13
 352 1184 352 1184 462 1226.5 c 128,-1,14
 572 1269 572 1269 704 1269 c 0,15,16
 934 1269 934 1269 1066 1169 c 1,17,-1
 1035 837 l 1,18,-1
 947 850 l 1,19,-1
 905 1070 l 1,20,21
 824 1174 824 1174 655.5 1174 c 128,-1,22
 487 1174 487 1174 381 1034 c 128,-1,23
 275 894 275 894 275 658 c 0,24,25
 275 528 275 528 312.5 422 c 128,-1,26
 350 316 350 316 413 249 c 0,27,28
 542.761 111 542.761 111 728 111 c 0,29,30
 822 111 822 111 914.5 153.5 c 128,-1,31
 1007 196 1007 196 1078 261 c 1,32,-1
 1113 185 l 1,33,34
 1045 102 1045 102 920 39 c 128,-1,35
 795 -24 795 -24 664.5 -24 c 128,-1,36
 534 -24 534 -24 429 16.5 c 128,-1,37
 324 57 324 57 241.5 132 c 128,-1,8
 159 207 159 207 110 325.5 c 128,-1,9
EndSplineSet
Validated: 543745
Colour: ffffff
EndChar

StartChar: Ccedilla
Encoding: 199 199 17
Width: 1153
VWidth: 0
Flags: W
HStem: -389 58<587.057 622.029> -24 135<538.262 663> 1174 95<486.567 839.283>
VStem: 61 214<402.867 845.755> 658 134<-311.641 -166.893> 947 88<850 926.925>
LayerCount: 2
Fore
SplineSet
110 325.5 m 128,-1,1
 61 444 61 444 61 562.5 c 128,-1,2
 61 681 61 681 83.5 773.5 c 128,-1,3
 106 866 106 866 156.5 956 c 128,-1,4
 207 1046 207 1046 280 1115 c 128,-1,5
 353 1184 353 1184 463 1226.5 c 128,-1,6
 573 1269 573 1269 705 1269 c 0,7,8
 934 1269 934 1269 1066 1169 c 1,9,-1
 1035 837 l 1,10,-1
 947 850 l 1,11,-1
 906 1070 l 1,12,13
 825 1174 825 1174 656 1174 c 128,-1,14
 487 1174 487 1174 381 1034 c 128,-1,15
 275 894 275 894 275 658 c 0,16,17
 275 528 275 528 312.5 422 c 128,-1,18
 350 316 350 316 413.5 249 c 0,19,20
 544.291 111 544.291 111 729 111 c 0,21,22
 823 111 823 111 915 153.5 c 128,-1,23
 1007 196 1007 196 1078 261 c 1,24,-1
 1114 185 l 1,25,26
 1058 117 1058 117 959 59 c 128,-1,27
 860 1 860 1 743 -18 c 1,28,-1
 703 -76 l 1,29,30
 792 -155 792 -155 792 -227 c 0,31,32
 792 -330 792 -330 592 -389 c 1,33,-1
 572 -331 l 1,34,35
 613 -317 613 -317 635.5 -294.5 c 128,-1,36
 658 -272 658 -272 658 -239.5 c 128,-1,37
 658 -207 658 -207 585 -138 c 1,38,-1
 663 -24 l 1,39,-1
 652 -24 l 2,40,41
 413.1 -24 413.1 -24 241.5 132 c 0,42,0
 159 207 159 207 110 325.5 c 128,-1,1
EndSplineSet
Validated: 543745
Colour: ffffff
EndChar

StartChar: Cdotaccent
Encoding: 266 266 18
Width: 1153
VWidth: 0
Flags: W
HStem: -24 135<547.931 891.281> 1174 95<497.019 849.576> 1355 238<587.128 754.356>
VStem: 72 214<402.867 845.755> 550 242<1383.95 1558.45> 958 88<850 925.093>
LayerCount: 2
Fore
SplineSet
121 325.5 m 128,-1,1
 72 444 72 444 72 562.5 c 128,-1,2
 72 681 72 681 94.5 773.5 c 128,-1,3
 117 866 117 866 167.5 956 c 128,-1,4
 218 1046 218 1046 290.5 1115 c 128,-1,5
 363 1184 363 1184 473 1226.5 c 128,-1,6
 583 1269 583 1269 715 1269 c 0,7,8
 945 1269 945 1269 1077 1169 c 1,9,-1
 1046 837 l 1,10,-1
 958 850 l 1,11,-1
 916 1070 l 1,12,13
 835 1174 835 1174 666.5 1174 c 128,-1,14
 498 1174 498 1174 392 1034 c 128,-1,15
 286 894 286 894 286 658 c 0,16,17
 286 528 286 528 323.5 422 c 128,-1,18
 361 316 361 316 424 249 c 0,19,20
 553.761 111 553.761 111 739 111 c 0,21,22
 833 111 833 111 925.5 153.5 c 128,-1,23
 1018 196 1018 196 1089 261 c 1,24,-1
 1124 185 l 1,25,26
 1056 102 1056 102 931 39 c 128,-1,27
 806 -24 806 -24 675.5 -24 c 128,-1,28
 545 -24 545 -24 440 16.5 c 128,-1,29
 335 57 335 57 252.5 132 c 128,-1,0
 170 207 170 207 121 325.5 c 128,-1,1
585 1391.5 m 128,-1,31
 550 1428 550 1428 550 1477 c 128,-1,32
 550 1526 550 1526 586 1559.5 c 128,-1,33
 622 1593 622 1593 670.5 1593 c 128,-1,34
 719 1593 719 1593 755.5 1559.5 c 128,-1,35
 792 1526 792 1526 792 1477 c 128,-1,36
 792 1428 792 1428 755.5 1391.5 c 128,-1,37
 719 1355 719 1355 669.5 1355 c 128,-1,30
 620 1355 620 1355 585 1391.5 c 128,-1,31
EndSplineSet
Validated: 543745
Colour: ffffff
EndChar

StartChar: D
Encoding: 68 68 19
Width: 1364
VWidth: 0
Flags: W
HStem: 0 104<424 812.598> 0 74<61 105.833> 1133 76<70 143.193> 1155 103<427.583 788.754>
VStem: 233 191<129 1103> 1093 211<414.184 839.947>
LayerCount: 2
Fore
SplineSet
424 104 m 1,0,-1
 569 104 l 2,1,2
 698 104 698 104 800 143.5 c 128,-1,3
 902 183 902 183 965 251.5 c 0,4,5
 1093 390.675 1093 390.675 1093 598 c 0,6,7
 1093 835.023 1093 835.023 958 991.5 c 0,8,9
 892 1068 892 1068 786 1111.5 c 128,-1,10
 680 1155 680 1155 572 1155 c 128,-1,11
 464 1155 464 1155 424 1151 c 1,12,-1
 424 104 l 1,0,-1
47 0 m 1,13,-1
 61 74 l 1,14,-1
 233 129 l 1,15,-1
 233 1103 l 1,16,-1
 61 1133 l 1,17,-1
 70 1209 l 1,18,19
 381 1258 381 1258 563.5 1258 c 128,-1,20
 746 1258 746 1258 873 1224 c 128,-1,21
 1000 1190 1000 1190 1080 1134 c 128,-1,22
 1160 1078 1160 1078 1211.5 998.5 c 0,23,24
 1304 855.709 1304 855.709 1304 653 c 0,25,26
 1304 436.352 1304 436.352 1182.5 275 c 0,27,28
 975.422 1.62117e-05 975.422 1.62117e-05 541 0 c 2,29,-1
 47 0 l 1,13,-1
EndSplineSet
Validated: 543745
Colour: ffffff
EndChar

StartChar: Dcaron
Encoding: 270 270 20
Width: 1364
VWidth: 0
Flags: W
HStem: 0 104<424 812.598> 0 74<61 105.833> 1133 76<70 143.193> 1155 103<427.583 788.754>
VStem: 233 191<129 1103> 1093 211<414.184 839.947>
DStem2: 528 1589 448 1527 0.733231 -0.67998<0 206.435> 686 1445 682 1376 0.690764 0.72308<0 187.577>
LayerCount: 2
Fore
SplineSet
448 1527 m 1,0,-1
 528 1589 l 1,1,-1
 676 1445 l 1,2,-1
 686 1445 l 1,3,-1
 811 1585 l 1,4,-1
 853 1555 l 1,5,-1
 682 1376 l 1,6,-1
 627 1361 l 1,7,-1
 448 1527 l 1,0,-1
424 104 m 1,8,-1
 569 104 l 2,9,10
 698 104 698 104 800 143.5 c 128,-1,11
 902 183 902 183 965 251.5 c 0,12,13
 1093 390.675 1093 390.675 1093 598 c 0,14,15
 1093 835.023 1093 835.023 958 991.5 c 0,16,17
 892 1068 892 1068 786 1111.5 c 128,-1,18
 680 1155 680 1155 572 1155 c 128,-1,19
 464 1155 464 1155 424 1151 c 1,20,-1
 424 104 l 1,8,-1
47 0 m 1,21,-1
 61 74 l 1,22,-1
 233 129 l 1,23,-1
 233 1103 l 1,24,-1
 61 1133 l 1,25,-1
 70 1209 l 1,26,27
 381 1258 381 1258 563.5 1258 c 128,-1,28
 746 1258 746 1258 873 1224 c 128,-1,29
 1000 1190 1000 1190 1080 1134 c 128,-1,30
 1160 1078 1160 1078 1211.5 998.5 c 0,31,32
 1304 855.709 1304 855.709 1304 653 c 0,33,34
 1304 436.352 1304 436.352 1182.5 275 c 0,35,36
 975.422 1.62117e-05 975.422 1.62117e-05 541 0 c 2,37,-1
 47 0 l 1,21,-1
EndSplineSet
Validated: 543745
Colour: ffffff
EndChar

StartChar: Dcroat
Encoding: 272 272 21
Width: 1383
VWidth: 0
Flags: W
HStem: 0 104<433 857.276> 0 74<70 114.833> 1134 77<78 152.193> 1157 103<436.5 798.172>
VStem: 242 191<129 569 672 1104> 1112 214<427.838 839.438>
DStem2: 74 647 62 555 0.997111 0.075955<0 161.59 359.862 599.834>
LayerCount: 2
Fore
SplineSet
433 104 m 1,0,-1
 645 104 l 2,1,2
 764 104 764 104 856 144.5 c 128,-1,3
 948 185 948 185 1002.5 255.5 c 0,4,5
 1112 397.147 1112 397.147 1112 598 c 0,6,7
 1112 835.533 1112 835.533 973.5 992.5 c 0,8,9
 906 1069 906 1069 798.5 1113 c 128,-1,10
 691 1157 691 1157 555 1157 c 0,11,12
 493 1157 493 1157 433 1151 c 1,13,-1
 433 672 l 1,14,-1
 691 693 l 1,15,-1
 679 602 l 1,16,-1
 433 581 l 1,17,-1
 433 104 l 1,0,-1
62 555 m 1,18,-1
 74 647 l 1,19,-1
 242 660 l 1,20,-1
 242 1104 l 1,21,-1
 70 1134 l 1,22,-1
 78 1211 l 1,23,24
 389 1260 389 1260 572 1260 c 128,-1,25
 755 1260 755 1260 883.5 1226.5 c 128,-1,26
 1012 1193 1012 1193 1094 1137 c 128,-1,27
 1176 1081 1176 1081 1229 1002.5 c 0,28,29
 1326 858.83 1326 858.83 1326 658 c 0,30,31
 1326 452.504 1326 452.504 1200.5 285.5 c 0,32,33
 1065.14 105.372 1065.14 105.372 836 37 c 0,34,35
 712 0 712 0 568 0 c 2,36,-1
 57 0 l 1,37,-1
 70 74 l 1,38,-1
 242 129 l 1,39,-1
 242 569 l 1,40,-1
 62 555 l 1,18,-1
EndSplineSet
Validated: 543745
Colour: ffffff
EndChar

StartChar: E
Encoding: 69 69 22
Width: 1142
VWidth: 0
Flags: W
HStem: 0 96<426 921> 0 74<65 115.939> 583 93<426 700> 1152 92<426 897> 1168 76<61 112.123>
VStem: 232 194<121 583 676 1126> 734 85<421 481.788> 938 87<937 1012.18>
LayerCount: 2
Fore
SplineSet
50 1168 m 1,0,-1
 61 1244 l 1,1,-1
 1056 1244 l 1,2,-1
 1025 924 l 1,3,-1
 938 937 l 1,4,-1
 897 1152 l 1,5,-1
 426 1152 l 1,6,-1
 426 676 l 1,7,-1
 716 676 l 1,8,-1
 758 796 l 1,9,-1
 853 810 l 1,10,-1
 819 421 l 1,11,-1
 734 408 l 1,12,-1
 700 583 l 1,13,-1
 426 583 l 1,14,-1
 426 96 l 1,15,-1
 921 96 l 1,16,-1
 1019 326 l 1,17,-1
 1102 313 l 1,18,-1
 1072 0 l 1,19,-1
 57 0 l 1,20,-1
 65 74 l 1,21,-1
 232 121 l 1,22,-1
 232 1126 l 1,23,-1
 50 1168 l 1,0,-1
EndSplineSet
Validated: 19457
Colour: ffffff
EndChar

StartChar: Eacute
Encoding: 201 201 23
Width: 1142
VWidth: 0
Flags: W
HStem: 0 96<426 921> 0 74<65 115.939> 583 93<426 700> 1152 92<426 897> 1168 76<61 112.123>
VStem: 232 194<121 583 676 1126> 734 85<421 481.788> 938 87<937 1012.18>
LayerCount: 2
Fore
SplineSet
517 1385 m 1,0,-1
 640 1710 l 1,1,-1
 751 1670 l 1,2,-1
 568 1354 l 1,3,-1
 517 1385 l 1,0,-1
50 1168 m 1,4,-1
 61 1244 l 1,5,-1
 1056 1244 l 1,6,-1
 1025 924 l 1,7,-1
 938 937 l 1,8,-1
 897 1152 l 1,9,-1
 426 1152 l 1,10,-1
 426 676 l 1,11,-1
 716 676 l 1,12,-1
 758 796 l 1,13,-1
 853 810 l 1,14,-1
 819 421 l 1,15,-1
 734 408 l 1,16,-1
 700 583 l 1,17,-1
 426 583 l 1,18,-1
 426 96 l 1,19,-1
 921 96 l 1,20,-1
 1019 326 l 1,21,-1
 1102 313 l 1,22,-1
 1072 0 l 1,23,-1
 57 0 l 1,24,-1
 65 74 l 1,25,-1
 232 121 l 1,26,-1
 232 1126 l 1,27,-1
 50 1168 l 1,4,-1
EndSplineSet
Validated: 19457
Colour: ffffff
EndChar

StartChar: Ecaron
Encoding: 282 282 24
Width: 1142
VWidth: 0
Flags: W
HStem: 0 96<426 921> 0 74<65 115.939> 583 93<426 700> 1152 92<426 897> 1168 76<61 112.123>
VStem: 232 194<121 583 676 1126> 734 85<421 481.788> 938 87<937 1012.18>
DStem2: 466 1589 386 1527 0.733231 -0.67998<0 207.168> 624 1445 620 1376 0.692867 0.721065<0 186.865>
LayerCount: 2
Fore
SplineSet
386 1527 m 1,0,-1
 466 1589 l 1,1,-1
 615 1445 l 1,2,-1
 624 1445 l 1,3,-1
 748 1585 l 1,4,-1
 792 1555 l 1,5,-1
 620 1376 l 1,6,-1
 565 1361 l 1,7,-1
 386 1527 l 1,0,-1
50 1168 m 1,8,-1
 61 1244 l 1,9,-1
 1056 1244 l 1,10,-1
 1025 924 l 1,11,-1
 938 937 l 1,12,-1
 897 1152 l 1,13,-1
 426 1152 l 1,14,-1
 426 676 l 1,15,-1
 716 676 l 1,16,-1
 758 796 l 1,17,-1
 853 810 l 1,18,-1
 819 421 l 1,19,-1
 734 408 l 1,20,-1
 700 583 l 1,21,-1
 426 583 l 1,22,-1
 426 96 l 1,23,-1
 921 96 l 1,24,-1
 1019 326 l 1,25,-1
 1102 313 l 1,26,-1
 1072 0 l 1,27,-1
 57 0 l 1,28,-1
 65 74 l 1,29,-1
 232 121 l 1,30,-1
 232 1126 l 1,31,-1
 50 1168 l 1,8,-1
EndSplineSet
Validated: 19457
Colour: ffffff
EndChar

StartChar: Ecircumflex
Encoding: 202 202 25
Width: 1142
VWidth: 0
Flags: W
HStem: 0 96<451 946> 0 74<90 140.939> 583 93<451 725> 1152 92<451 922> 1168 76<86 137.123>
VStem: 257 194<121 583 676 1126> 759 85<421 481.788> 963 87<937 1012.18>
LayerCount: 2
Fore
SplineSet
75 1168 m 1,0,-1
 86 1244 l 1,1,-1
 1081 1244 l 1,2,-1
 1050 924 l 1,3,-1
 963 937 l 1,4,-1
 922 1152 l 1,5,-1
 451 1152 l 1,6,-1
 451 676 l 1,7,-1
 741 676 l 1,8,-1
 783 796 l 1,9,-1
 878 810 l 1,10,-1
 844 421 l 1,11,-1
 759 408 l 1,12,-1
 725 583 l 1,13,-1
 451 583 l 1,14,-1
 451 96 l 1,15,-1
 946 96 l 1,16,-1
 1044 326 l 1,17,-1
 1127 313 l 1,18,-1
 1097 0 l 1,19,-1
 82 0 l 1,20,-1
 90 74 l 1,21,-1
 257 121 l 1,22,-1
 257 1126 l 1,23,-1
 75 1168 l 1,0,-1
406 1387 m 1,24,-1
 574 1566 l 1,25,-1
 629 1581 l 1,26,-1
 807 1395 l 1,27,-1
 758 1358 l 1,28,-1
 595 1468 l 1,29,-1
 584 1468 l 1,30,-1
 445 1357 l 1,31,-1
 406 1387 l 1,24,-1
EndSplineSet
Validated: 19457
Colour: ffffff
EndChar

StartChar: Edieresis
Encoding: 203 203 26
Width: 1142
VWidth: 0
Flags: W
HStem: 0 96<426 921> 0 74<65 115.939> 583 93<426 700> 1152 92<426 897> 1168 76<61 112.123> 1373 157<406.299 522.186 673.299 790.67>
VStem: 232 194<121 583 676 1126> 380 169<1396.21 1507.31> 647 171<1396.21 1507.31> 734 85<421 481.788> 938 87<937 1012.18>
LayerCount: 2
Fore
SplineSet
671.5 1395.5 m 128,-1,1
 647 1418 647 1418 647 1452.5 c 128,-1,2
 647 1487 647 1487 672.5 1508.5 c 128,-1,3
 698 1530 698 1530 731.5 1530 c 128,-1,4
 765 1530 765 1530 791.5 1508 c 128,-1,5
 818 1486 818 1486 818 1452 c 128,-1,6
 818 1418 818 1418 791.5 1395.5 c 128,-1,7
 765 1373 765 1373 730.5 1373 c 128,-1,0
 696 1373 696 1373 671.5 1395.5 c 128,-1,1
404.5 1395.5 m 128,-1,9
 380 1418 380 1418 380 1452.5 c 128,-1,10
 380 1487 380 1487 405.5 1508.5 c 128,-1,11
 431 1530 431 1530 464 1530 c 128,-1,12
 497 1530 497 1530 523 1508 c 128,-1,13
 549 1486 549 1486 549 1452 c 128,-1,14
 549 1418 549 1418 523.5 1395.5 c 128,-1,15
 498 1373 498 1373 463.5 1373 c 128,-1,8
 429 1373 429 1373 404.5 1395.5 c 128,-1,9
50 1168 m 1,16,-1
 61 1244 l 1,17,-1
 1056 1244 l 1,18,-1
 1025 924 l 1,19,-1
 938 937 l 1,20,-1
 897 1152 l 1,21,-1
 426 1152 l 1,22,-1
 426 676 l 1,23,-1
 716 676 l 1,24,-1
 758 796 l 1,25,-1
 853 810 l 1,26,-1
 819 421 l 1,27,-1
 734 408 l 1,28,-1
 700 583 l 1,29,-1
 426 583 l 1,30,-1
 426 96 l 1,31,-1
 921 96 l 1,32,-1
 1019 326 l 1,33,-1
 1102 313 l 1,34,-1
 1072 0 l 1,35,-1
 57 0 l 1,36,-1
 65 74 l 1,37,-1
 232 121 l 1,38,-1
 232 1126 l 1,39,-1
 50 1168 l 1,16,-1
EndSplineSet
Validated: 19457
Colour: ffffff
EndChar

StartChar: Edotaccent
Encoding: 278 278 27
Width: 1142
VWidth: 0
Flags: W
HStem: 0 96<426 921> 0 74<65 115.939> 583 93<426 700> 1152 92<426 897> 1168 76<61 112.123> 1356 214<523.487 672.997>
VStem: 232 194<121 583 676 1126> 491 215<1389 1538.03> 734 85<421 481.788> 938 87<937 1012.18>
LayerCount: 2
Fore
SplineSet
491 1464 m 128,-1,1
 491 1508 491 1508 522.5 1539 c 128,-1,2
 554 1570 554 1570 598 1570 c 128,-1,3
 642 1570 642 1570 674 1539 c 128,-1,4
 706 1508 706 1508 706 1463 c 128,-1,5
 706 1418 706 1418 674.5 1387 c 128,-1,6
 643 1356 643 1356 598 1356 c 128,-1,7
 553 1356 553 1356 522 1388 c 128,-1,0
 491 1420 491 1420 491 1464 c 128,-1,1
50 1168 m 1,8,-1
 61 1244 l 1,9,-1
 1056 1244 l 1,10,-1
 1025 924 l 1,11,-1
 938 937 l 1,12,-1
 897 1152 l 1,13,-1
 426 1152 l 1,14,-1
 426 676 l 1,15,-1
 716 676 l 1,16,-1
 758 796 l 1,17,-1
 853 810 l 1,18,-1
 819 421 l 1,19,-1
 734 408 l 1,20,-1
 700 583 l 1,21,-1
 426 583 l 1,22,-1
 426 96 l 1,23,-1
 921 96 l 1,24,-1
 1019 326 l 1,25,-1
 1102 313 l 1,26,-1
 1072 0 l 1,27,-1
 57 0 l 1,28,-1
 65 74 l 1,29,-1
 232 121 l 1,30,-1
 232 1126 l 1,31,-1
 50 1168 l 1,8,-1
EndSplineSet
Validated: 19457
Colour: ffffff
EndChar

StartChar: Egrave
Encoding: 200 200 28
Width: 1142
VWidth: 0
Flags: W
HStem: 0 96<426 921> 0 74<65 115.939> 583 93<426 700> 1152 92<426 897> 1168 76<61 112.123>
VStem: 232 194<121 583 676 1126> 734 85<421 481.788> 938 87<937 1012.18>
LayerCount: 2
Fore
SplineSet
443 1664 m 1,0,-1
 559 1702 l 1,1,-1
 691 1368 l 1,2,-1
 633 1334 l 1,3,-1
 443 1664 l 1,0,-1
50 1168 m 1,4,-1
 61 1244 l 1,5,-1
 1056 1244 l 1,6,-1
 1025 924 l 1,7,-1
 938 937 l 1,8,-1
 897 1152 l 1,9,-1
 426 1152 l 1,10,-1
 426 676 l 1,11,-1
 716 676 l 1,12,-1
 758 796 l 1,13,-1
 853 810 l 1,14,-1
 819 421 l 1,15,-1
 734 408 l 1,16,-1
 700 583 l 1,17,-1
 426 583 l 1,18,-1
 426 96 l 1,19,-1
 921 96 l 1,20,-1
 1019 326 l 1,21,-1
 1102 313 l 1,22,-1
 1072 0 l 1,23,-1
 57 0 l 1,24,-1
 65 74 l 1,25,-1
 232 121 l 1,26,-1
 232 1126 l 1,27,-1
 50 1168 l 1,4,-1
EndSplineSet
Validated: 19457
Colour: ffffff
EndChar

StartChar: Emacron
Encoding: 274 274 29
Width: 1142
VWidth: 0
Flags: W
HStem: 0 96<426 921> 0 74<65 115.939> 583 93<426 700> 1152 92<426 897> 1168 76<61 112.123> 1383 101<386 813>
VStem: 232 194<121 583 676 1126> 734 85<421 481.788> 938 87<937 1012.18>
LayerCount: 2
Fore
SplineSet
372 1383 m 1,0,-1
 386 1484 l 1,1,-1
 826 1484 l 1,2,-1
 813 1383 l 1,3,-1
 372 1383 l 1,0,-1
50 1168 m 1,4,-1
 61 1244 l 1,5,-1
 1056 1244 l 1,6,-1
 1025 924 l 1,7,-1
 938 937 l 1,8,-1
 897 1152 l 1,9,-1
 426 1152 l 1,10,-1
 426 676 l 1,11,-1
 716 676 l 1,12,-1
 758 796 l 1,13,-1
 853 810 l 1,14,-1
 819 421 l 1,15,-1
 734 408 l 1,16,-1
 700 583 l 1,17,-1
 426 583 l 1,18,-1
 426 96 l 1,19,-1
 921 96 l 1,20,-1
 1019 326 l 1,21,-1
 1102 313 l 1,22,-1
 1072 0 l 1,23,-1
 57 0 l 1,24,-1
 65 74 l 1,25,-1
 232 121 l 1,26,-1
 232 1126 l 1,27,-1
 50 1168 l 1,4,-1
EndSplineSet
Validated: 19457
Colour: ffffff
EndChar

StartChar: Eng
Encoding: 330 330 30
Width: 1390
VWidth: 0
Flags: W
HStem: -383 21G<824.636 871.833> 0 80<65 98.9539 498.133 532> 1168 76<61 101.16 881 932.147 1280 1343>
VStem: 232 128<121 961> 1054 122<271 1126>
DStem2: 412 1244 360 961 0.550735 -0.83468<207.576 1165.72>
LayerCount: 2
Fore
SplineSet
50 1168 m 1,0,-1
 61 1244 l 1,1,-1
 412 1244 l 1,2,-1
 1054 271 l 1,3,-1
 1054 1126 l 1,4,-1
 869 1168 l 1,5,-1
 881 1244 l 1,6,-1
 1356 1244 l 1,7,-1
 1343 1168 l 1,8,-1
 1176 1130 l 1,9,-1
 1176 151 l 2,10,11
 1176 -192 1176 -192 879 -359 c 1,12,-1
 836 -383 l 1,13,-1
 786 -295 l 1,14,15
 863 -239 863 -239 916 -168 c 128,-1,16
 969 -97 969 -97 992 15 c 1,17,-1
 360 961 l 1,18,-1
 360 114 l 1,19,-1
 543 80 l 1,20,-1
 532 0 l 1,21,-1
 57 0 l 1,22,-1
 65 74 l 1,23,-1
 232 121 l 1,24,-1
 232 1117 l 1,25,-1
 50 1168 l 1,0,-1
EndSplineSet
Validated: 19457
Colour: ffffff
EndChar

StartChar: Eogonek
Encoding: 280 280 31
Width: 1142
VWidth: 0
Flags: W
HStem: 0 96<426 921> 0 74<65 115.939> 583 93<426 700> 1152 92<426 897> 1168 76<61 112.123>
VStem: 232 194<121 583 676 1126> 734 85<421 481.788> 804 147<-270.323 -90.6921> 938 87<937 1012.18>
LayerCount: 2
Fore
SplineSet
951 -148 m 0,0,1
 951 -263.312 951 -263.312 1075 -335 c 1,2,-1
 1041 -386 l 1,3,4
 935 -375 935 -375 869.5 -324.5 c 128,-1,5
 804 -274 804 -274 804 -218.5 c 128,-1,6
 804 -163 804 -163 830 -117.5 c 128,-1,7
 856 -72 856 -72 937 0 c 1,8,-1
 57 0 l 1,9,-1
 65 74 l 1,10,-1
 232 121 l 1,11,-1
 232 1126 l 1,12,-1
 50 1168 l 1,13,-1
 61 1244 l 1,14,-1
 1056 1244 l 1,15,-1
 1025 924 l 1,16,-1
 938 937 l 1,17,-1
 897 1152 l 1,18,-1
 426 1152 l 1,19,-1
 426 676 l 1,20,-1
 716 676 l 1,21,-1
 758 796 l 1,22,-1
 853 810 l 1,23,-1
 819 421 l 1,24,-1
 734 408 l 1,25,-1
 700 583 l 1,26,-1
 426 583 l 1,27,-1
 426 96 l 1,28,-1
 921 96 l 1,29,-1
 1019 326 l 1,30,-1
 1102 313 l 1,31,-1
 1072 0 l 1,32,-1
 1011 0 l 1,33,34
 951 -100 951 -100 951 -148 c 0,0,1
EndSplineSet
Validated: 543745
Colour: ffffff
EndChar

StartChar: Eth
Encoding: 208 208 32
Width: 1374
VWidth: 0
Flags: W
HStem: 0 104<424 849.276> 0 74<61 105.833> 1134 77<70 143.193> 1157 103<427.887 789.196>
VStem: 233 191<129 569 672 1104> 1103 214<427.517 839.438>
DStem2: 64 647 53 555 0.997241 0.0742283<0 162.744 360.863 600.988>
LayerCount: 2
Fore
SplineSet
424 104 m 1,0,-1
 636 104 l 2,1,2
 755 104 755 104 847 144.5 c 128,-1,3
 939 185 939 185 993.5 255.5 c 0,4,5
 1103 397.147 1103 397.147 1103 598 c 0,6,7
 1103 835.533 1103 835.533 964.5 992.5 c 0,8,9
 897 1069 897 1069 789.5 1113 c 128,-1,10
 682 1157 682 1157 546 1157 c 0,11,12
 484 1157 484 1157 424 1151 c 1,13,-1
 424 672 l 1,14,-1
 682 693 l 1,15,-1
 670 602 l 1,16,-1
 424 581 l 1,17,-1
 424 104 l 1,0,-1
53 555 m 1,18,-1
 64 647 l 1,19,-1
 233 660 l 1,20,-1
 233 1104 l 1,21,-1
 61 1134 l 1,22,-1
 70 1211 l 1,23,24
 381 1260 381 1260 563.5 1260 c 128,-1,25
 746 1260 746 1260 874.5 1226.5 c 128,-1,26
 1003 1193 1003 1193 1085 1137 c 128,-1,27
 1167 1081 1167 1081 1220 1002.5 c 0,28,29
 1317 858.83 1317 858.83 1317 658 c 0,30,31
 1317 451.173 1317 451.173 1192.5 285.5 c 0,32,33
 1057.14 105.372 1057.14 105.372 828 37 c 0,34,35
 704 0 704 0 560 0 c 2,36,-1
 47 0 l 1,37,-1
 61 74 l 1,38,-1
 233 129 l 1,39,-1
 233 569 l 1,40,-1
 53 555 l 1,18,-1
EndSplineSet
Validated: 543745
Colour: ffffff
EndChar

StartChar: Euro
Encoding: 8364 8364 33
Width: 1161
VWidth: 0
Flags: W
HStem: -24 107<584.611 890.065> 468 99<-4 144 374 828> 651 99<6 142 357 877> 1174 95<532.385 857.473>
VStem: 142 212<567 651 750 869.796> 156 218<328.273 468> 960 88<850 925.093> 977 88<325.319 401>
LayerCount: 2
Back
SplineSet
-43.7471 649.094 m 1,0,-1
 -41.7129 732.52 l 1,1,-1
 956.344 732.52 l 1,2,-1
 940.065 649.094 l 1,3,-1
 -43.7471 649.094 l 1,0,-1
-35.6084 868.849 m 1,4,-1
 -33.5742 951.257 l 1,5,-1
 1014.33 951.257 l 1,6,-1
 998.057 868.849 l 1,7,-1
 -35.6084 868.849 l 1,4,-1
178.043 732.52 m 0,8,9
 178.043 876.313 178.043 876.313 203.925 1003.88 c 0
 229.807 1131.46 229.807 1131.46 284.6 1240.14 c 0
 339.393 1348.82 339.393 1348.82 418.944 1427.25 c 0
 498.494 1505.68 498.494 1505.68 611.694 1549.96 c 0
 724.894 1594.25 724.894 1594.25 861.727 1594.25 c 0,10,11
 985.429 1594.25 985.429 1594.25 1069.39 1566.44 c 0
 1153.36 1538.63 1153.36 1538.63 1245.28 1469.11 c 1,12,-1
 1204.59 1045.87 l 1,13,-1
 1149.65 1056.05 l 1,14,-1
 1112 1381.61 l 1,15,16
 1072.18 1449.07 1072.18 1449.07 1014.95 1480.96 c 0
 957.733 1512.85 957.733 1512.85 856.641 1512.85 c 0,17,18
 688.496 1512.85 688.496 1512.85 569.753 1422.47 c 0
 451.009 1332.08 451.009 1332.08 391.339 1166.44 c 0
 331.669 1000.8 331.669 1000.8 331.669 772.196 c 0,19,20
 331.669 594.07 331.669 594.07 368.45 456.973 c 0
 405.232 319.876 405.232 319.876 473.868 231.767 c 0
 542.503 143.657 542.503 143.657 638.407 98.7896 c 0
 734.31 53.9219 734.31 53.9219 854.604 53.9219 c 0,21,22
 920.693 53.9219 920.693 53.9219 996.807 94.5556 c 0
 1072.92 135.189 1072.92 135.189 1131.33 215.686 c 1,23,-1
 1170 542.268 l 1,24,-1
 1225.95 549.389 l 1,25,-1
 1265.63 129.209 l 1,26,27
 1146.6 44.6586 1146.6 44.6586 1041.61 6.55975 c 0
 936.614 -31.5391 936.614 -31.5391 790.509 -31.5391 c 0,28,29
 656.96 -31.5391 656.96 -31.5391 543.488 23.1771 c 0
 430.016 77.8933 430.016 77.8933 349.412 176.469 c 0
 268.807 275.045 268.807 275.045 223.425 418.273 c 0
 178.043 561.502 178.043 561.502 178.043 732.52 c 0,8,9
EndSplineSet
Fore
SplineSet
750 1269 m 0,0,1
 949.37 1269 949.37 1269 1079 1169 c 1,2,-1
 1048 837 l 1,3,-1
 960 850 l 1,4,-1
 918 1070 l 1,5,6
 877 1122 877 1122 829 1148 c 128,-1,7
 781 1174 781 1174 693 1174 c 0,8,9
 544 1174 544 1174 458 1060 c 128,-1,10
 372 946 372 946 357 750 c 1,11,-1
 898 750 l 1,12,-1
 877 651 l 1,13,-1
 354 651 l 1,14,15
 354 612 354 612 359 567 c 1,16,-1
 849 567 l 1,17,-1
 828 468 l 1,18,-1
 374 468 l 1,19,20
 411 293 411 293 508.5 188 c 128,-1,21
 606 83 606 83 750 83 c 0,22,23
 868.717 83 868.717 83 934 174 c 1,24,-1
 977 401 l 1,25,-1
 1065 414 l 1,26,-1
 1096 111 l 1,27,28
 1002 37 1002 37 912.5 6.5 c 128,-1,29
 823 -24 823 -24 700 -24 c 0,30,31
 485 -24 485 -24 340.5 107.5 c 128,-1,32
 196 239 196 239 156 468 c 1,33,-1
 -14 468 l 1,34,-1
 -4 567 l 1,35,-1
 144 567 l 1,36,37
 142 611 142 611 142 636 c 2,38,-1
 142 651 l 1,39,-1
 -4 651 l 1,40,-1
 6 750 l 1,41,-1
 153 750 l 1,42,43
 189.764 952.205 189.764 952.205 336.5 1104 c 0,44,45
 409 1179 409 1179 516.5 1224 c 128,-1,46
 624 1269 624 1269 750 1269 c 0,0,1
EndSplineSet
Validated: 543745
Colour: ffffff
EndChar

StartChar: F
Encoding: 70 70 34
Width: 1064
VWidth: 0
Flags: W
HStem: 0 74<65 115.939 589.917 648> 578 92<426 700> 1152 92<426 891> 1168 76<61 112.123>
VStem: 232 194<122 578 670 1126> 730 88<412 484.016> 925 88<936 1027.08>
LayerCount: 2
Fore
SplineSet
50 1168 m 1,0,-1
 61 1244 l 1,1,-1
 1054 1244 l 1,2,-1
 1013 922 l 1,3,-1
 925 936 l 1,4,-1
 891 1152 l 1,5,-1
 426 1152 l 1,6,-1
 426 670 l 1,7,-1
 713 670 l 1,8,-1
 755 790 l 1,9,-1
 845 804 l 1,10,-1
 818 412 l 1,11,-1
 730 398 l 1,12,-1
 700 578 l 1,13,-1
 426 578 l 1,14,-1
 423 122 l 1,15,-1
 661 83 l 1,16,-1
 648 0 l 1,17,-1
 57 0 l 1,18,-1
 65 74 l 1,19,-1
 232 121 l 1,20,-1
 232 1126 l 1,21,-1
 50 1168 l 1,0,-1
EndSplineSet
Validated: 19457
Colour: ffffff
EndChar

StartChar: G
Encoding: 71 71 35
Width: 1299
VWidth: 0
Flags: W
HStem: -31 108<563.313 941.2> 472 83<719 796.034> 1161 99<491.05 878.468>
VStem: 61 215<395.882 840.321> 943 196<98.6973 434> 1028 87<856 932.06>
LayerCount: 2
Fore
SplineSet
1139 79 m 1,0,1
 955.034 -31 955.034 -31 658 -31 c 0,2,3
 511 -31 511 -31 395.5 16 c 128,-1,4
 280 63 280 63 208 146 c 0,5,6
 61 315.458 61 315.458 61 578 c 0,7,8
 61 947.467 61 947.467 342.5 1143 c 0,9,10
 510.94 1260 510.94 1260 717 1260 c 0,11,12
 976 1260 976 1260 1139 1163 c 1,13,-1
 1115 841 l 1,14,-1
 1028 856 l 1,15,-1
 992 1047 l 1,16,17
 950 1089 950 1089 861.5 1125 c 128,-1,18
 773 1161 773 1161 681.5 1161 c 128,-1,19
 590 1161 590 1161 522 1131.5 c 128,-1,20
 454 1102 454 1102 398 1042.5 c 0,21,22
 276 912.875 276 912.875 276 647 c 0,23,24
 276 361.385 276 361.385 459.5 192 c 0,25,26
 584.083 77 584.083 77 771 77 c 0,27,28
 870 77 870 77 943 119 c 1,29,-1
 943 434 l 1,30,-1
 707 472 l 1,31,-1
 719 555 l 1,32,-1
 1275 555 l 1,33,-1
 1263 480 l 1,34,-1
 1139 439 l 1,35,-1
 1139 79 l 1,0,1
EndSplineSet
Validated: 543745
Colour: ffffff
EndChar

StartChar: Gbreve
Encoding: 286 286 36
Width: 1299
VWidth: 0
Flags: W
HStem: -31 108<563.313 941.2> 472 83<719 796.034> 1161 99<491.05 878.468> 1379 108<644.845 858.981>
VStem: 61 215<395.882 840.321> 561 46<1551.77 1566.28> 943 196<98.6973 434> 1028 87<856 932.06>
LayerCount: 2
Fore
SplineSet
561 1556 m 1,0,-1
 607 1589 l 1,1,2
 655 1487 655 1487 746.5 1487 c 128,-1,3
 838 1487 838 1487 892 1573 c 1,4,-1
 902 1590 l 1,5,-1
 943 1561 l 1,6,7
 916.215 1476.18 916.215 1476.18 867.108 1427.59 c 128,-1,8
 818 1379 818 1379 747.5 1379 c 128,-1,9
 677 1379 677 1379 629 1425 c 0,10,11
 577.289 1474.56 577.289 1474.56 561 1556 c 1,0,-1
1139 79 m 1,12,13
 955.034 -31 955.034 -31 658 -31 c 0,14,15
 511 -31 511 -31 395.5 16 c 128,-1,16
 280 63 280 63 208 146 c 0,17,18
 61 315.458 61 315.458 61 578 c 0,19,20
 61 947.467 61 947.467 342.5 1143 c 0,21,22
 510.94 1260 510.94 1260 717 1260 c 0,23,24
 976 1260 976 1260 1139 1163 c 1,25,-1
 1115 841 l 1,26,-1
 1028 856 l 1,27,-1
 992 1047 l 1,28,29
 950 1089 950 1089 861.5 1125 c 128,-1,30
 773 1161 773 1161 681.5 1161 c 128,-1,31
 590 1161 590 1161 522 1131.5 c 128,-1,32
 454 1102 454 1102 398 1042.5 c 0,33,34
 276 912.875 276 912.875 276 647 c 0,35,36
 276 361.385 276 361.385 459.5 192 c 0,37,38
 584.083 77 584.083 77 771 77 c 0,39,40
 870 77 870 77 943 119 c 1,41,-1
 943 434 l 1,42,-1
 707 472 l 1,43,-1
 719 555 l 1,44,-1
 1275 555 l 1,45,-1
 1263 480 l 1,46,-1
 1139 439 l 1,47,-1
 1139 79 l 1,12,13
EndSplineSet
Validated: 543745
Colour: ffffff
EndChar

StartChar: Gcommaaccent
Encoding: 290 290 37
Width: 1299
VWidth: 0
Flags: W
HStem: -31 108<563.313 941.2> 472 83<719 796.034> 1161 99<491.05 878.468>
VStem: 61 215<395.882 840.321> 707 110<-312.488 -163.75> 943 196<98.6973 434> 1028 87<856 932.06>
LayerCount: 2
Fore
SplineSet
615 -337 m 1,0,1
 707 -313 707 -313 707 -246 c 0,2,3
 707 -223 707 -223 677 -196.5 c 128,-1,4
 647 -170 647 -170 628 -168 c 1,5,6
 635 -133 635 -133 659 -109 c 128,-1,7
 683 -85 683 -85 718 -85 c 128,-1,8
 753 -85 753 -85 785 -114 c 128,-1,9
 817 -143 817 -143 817 -184.5 c 128,-1,10
 817 -226 817 -226 808.5 -250.5 c 128,-1,11
 800 -275 800 -275 780.5 -302.5 c 0,12,13
 736.217 -364.95 736.217 -364.95 632 -389 c 1,14,-1
 615 -337 l 1,0,1
1139 79 m 1,15,16
 955.034 -31 955.034 -31 658 -31 c 0,17,18
 511 -31 511 -31 395.5 16 c 128,-1,19
 280 63 280 63 208 146 c 0,20,21
 61 315.458 61 315.458 61 578 c 0,22,23
 61 947.467 61 947.467 342.5 1143 c 0,24,25
 510.94 1260 510.94 1260 717 1260 c 0,26,27
 976 1260 976 1260 1139 1163 c 1,28,-1
 1115 841 l 1,29,-1
 1028 856 l 1,30,-1
 992 1047 l 1,31,32
 950 1089 950 1089 861.5 1125 c 128,-1,33
 773 1161 773 1161 681.5 1161 c 128,-1,34
 590 1161 590 1161 522 1131.5 c 128,-1,35
 454 1102 454 1102 398 1042.5 c 0,36,37
 276 912.875 276 912.875 276 647 c 0,38,39
 276 361.385 276 361.385 459.5 192 c 0,40,41
 584.083 77 584.083 77 771 77 c 0,42,43
 870 77 870 77 943 119 c 1,44,-1
 943 434 l 1,45,-1
 707 472 l 1,46,-1
 719 555 l 1,47,-1
 1275 555 l 1,48,-1
 1263 480 l 1,49,-1
 1139 439 l 1,50,-1
 1139 79 l 1,15,16
EndSplineSet
Validated: 543745
Colour: ffffff
EndChar

StartChar: Gdotaccent
Encoding: 288 288 38
Width: 1299
VWidth: 0
Flags: W
HStem: -31 108<574.313 952.185> 472 83<730 807.034> 1161 99<502.05 889.468> 1355 238<599.128 766.356>
VStem: 72 215<395.882 840.321> 562 242<1383.95 1558.45> 954 196<98.6973 434> 1039 87<856 932.06>
LayerCount: 2
Fore
SplineSet
1150 79 m 1,0,1
 966.034 -31 966.034 -31 669 -31 c 0,2,3
 522 -31 522 -31 406.5 16 c 128,-1,4
 291 63 291 63 219 146 c 0,5,6
 72 315.458 72 315.458 72 578 c 0,7,8
 72 947.467 72 947.467 353.5 1143 c 0,9,10
 521.94 1260 521.94 1260 728 1260 c 0,11,12
 987 1260 987 1260 1150 1163 c 1,13,-1
 1126 841 l 1,14,-1
 1039 856 l 1,15,-1
 1003 1047 l 1,16,17
 961 1089 961 1089 872.5 1125 c 128,-1,18
 784 1161 784 1161 692.5 1161 c 128,-1,19
 601 1161 601 1161 533 1131.5 c 128,-1,20
 465 1102 465 1102 409 1042.5 c 0,21,22
 287 912.875 287 912.875 287 647 c 0,23,24
 287 361.385 287 361.385 470.5 192 c 0,25,26
 595.083 77 595.083 77 782 77 c 0,27,28
 880 77 880 77 954 119 c 1,29,-1
 954 434 l 1,30,-1
 718 472 l 1,31,-1
 730 555 l 1,32,-1
 1286 555 l 1,33,-1
 1274 480 l 1,34,-1
 1150 439 l 1,35,-1
 1150 79 l 1,0,1
597 1391.5 m 128,-1,37
 562 1428 562 1428 562 1477 c 128,-1,38
 562 1526 562 1526 598 1559.5 c 128,-1,39
 634 1593 634 1593 682.5 1593 c 128,-1,40
 731 1593 731 1593 767.5 1559.5 c 128,-1,41
 804 1526 804 1526 804 1477 c 128,-1,42
 804 1428 804 1428 767.5 1391.5 c 128,-1,43
 731 1355 731 1355 681.5 1355 c 128,-1,36
 632 1355 632 1355 597 1391.5 c 128,-1,37
EndSplineSet
Validated: 543745
Colour: ffffff
EndChar

StartChar: Germandbls
Encoding: 7838 7838 39
Width: 1283
VWidth: 0
Flags: W
HStem: -24 100<702.908 999.75> 0 73<34 85.111> 897 21G<1041.83 1080> 1161 89<517.438 760.708>
VStem: 198 191<119 1000.74> 494 108<288.501 361> 521 170<800.915 1005.51> 1030 139<950 1043.2> 1050 182<146.723 362.869>
DStem2: 904 680 729.5 530 0.878829 -0.477137<-238.253 292.242>
LayerCount: 2
Fore
SplineSet
26 0 m 1,0,-1
 34 73 l 1,1,-1
 198 119 l 1,2,-1
 198 751 l 2,3,4
 198 1005 198 1005 327.5 1127.5 c 128,-1,5
 457 1250 457 1250 689 1250 c 0,6,7
 851.556 1250 851.556 1250 997 1207.5 c 0,8,9
 1074 1185 1074 1185 1121.5 1139.5 c 128,-1,10
 1169 1094 1169 1094 1169 1036 c 128,-1,11
 1169 978 1169 978 1140 948 c 128,-1,12
 1111 918 1111 918 1049 897 c 1,13,-1
 1030 950 l 2,14,15
 1006.1 1017.72 1006.1 1017.72 989.05 1038.86 c 128,-1,16
 972 1060 972 1060 953.5 1078.5 c 0,17,18
 920 1112 920 1112 858.5 1112 c 128,-1,19
 797 1112 797 1112 744 1056.5 c 128,-1,20
 691 1001 691 1001 691 935 c 128,-1,21
 691 869 691 869 721 822 c 128,-1,22
 751 775 751 775 798.5 742.5 c 128,-1,23
 846 710 846 710 904 680 c 1,24,-1
 1019.5 617.5 l 1,25,26
 1077 585 1077 585 1124.5 546.5 c 0,27,28
 1232 459.368 1232 459.368 1232 316 c 0,29,30
 1232 207 1232 207 1176.5 128.5 c 0,31,32
 1068.68 -24 1068.68 -24 826 -24 c 0,33,34
 717 -24 717 -24 626 15 c 128,-1,35
 535 54 535 54 494 121 c 1,36,-1
 507 376 l 1,37,-1
 602 361 l 1,38,-1
 637 184 l 1,39,40
 665 139 665 139 724 107.5 c 128,-1,41
 783 76 783 76 849 76 c 0,42,43
 1050 76 1050 76 1050 250 c 0,44,45
 1050 348.213 1050 348.213 945 413 c 0,46,47
 898 442 898 442 842 470 c 128,-1,48
 786 498 786 498 729.5 530 c 128,-1,49
 673 562 673 562 626 600 c 0,50,51
 521 684.894 521 684.894 521 817.447 c 128,-1,52
 521 950 521 950 588 1040.5 c 128,-1,53
 655 1131 655 1131 761 1155 c 1,54,-1
 763 1158 l 1,55,56
 735 1161 735 1161 676 1161 c 0,57,58
 387 1161 387 1161 387 774 c 2,59,-1
 389 0 l 1,60,-1
 26 0 l 1,0,-1
EndSplineSet
Validated: 543745
Colour: ffffff
EndChar

StartChar: Germandbls.alt
Encoding: 65537 -1 40
Width: 1283
VWidth: 0
Flags: W
HStem: -24 100<714.628 989.682> 0 73<33 84.4226> 1161 89<512.423 905.141>
VStem: 198 190<119 979.334> 506 101<308.996 377> 1049 183<154.991 377.06>
DStem2: 586 687 835 751 0.589924 0.807459<198.568 542.443>
LayerCount: 2
Fore
SplineSet
25 0 m 1,0,-1
 33 73 l 1,1,-1
 198 119 l 1,2,-1
 198 678 l 2,3,4
 198 998.045 198 998.045 332.5 1128.5 c 0,5,6
 457.767 1250 457.767 1250 688 1250 c 0,7,8
 812 1250 812 1250 951.5 1238.5 c 128,-1,9
 1091 1227 1091 1227 1134 1213 c 1,10,-1
 1135 1142 l 1,11,-1
 835 751 l 1,12,13
 853 738 853 738 908.5 710 c 128,-1,14
 964 682 964 682 1013.5 651.5 c 128,-1,15
 1063 621 1063 621 1116 576.5 c 0,16,17
 1232 479.104 1232 479.104 1232 323.552 c 128,-1,18
 1232 168 1232 168 1115.5 72 c 128,-1,19
 999 -24 999 -24 825 -24 c 0,20,21
 718 -24 718 -24 626 18.5 c 128,-1,22
 534 61 534 61 493 129 c 1,23,-1
 506 392 l 1,24,-1
 607 377 l 1,25,-1
 646 192 l 1,26,27
 676 144 676 144 730 110 c 128,-1,28
 784 76 784 76 859.5 76 c 128,-1,29
 935 76 935 76 992 122 c 128,-1,30
 1049 168 1049 168 1049 266 c 0,31,32
 1049 398.4 1049 398.4 797 537 c 1,33,34
 624.273 630.273 624.273 630.273 609 639 c 1,35,-1
 586 687 l 1,36,-1
 906 1125 l 1,37,-1
 906 1130 l 1,38,39
 879 1142 879 1142 790.5 1151.5 c 128,-1,40
 702 1161 702 1161 675 1161 c 0,41,42
 574 1161 574 1161 512.5 1120 c 0,43,44
 386 1035.67 386 1035.67 386 700 c 2,45,-1
 388 0 l 1,46,-1
 25 0 l 1,0,-1
EndSplineSet
Validated: 543745
Colour: ffffff
EndChar

StartChar: Germandbls.alt2
Encoding: 65538 -1 41
Width: 1283
VWidth: 0
Flags: W
HStem: -24 100<709.094 999.75> 0 73<34 85.111> 1161 89<517.438 761.703>
VStem: 198 191<119 1000.74> 507 101<300.996 369> 521 170<816.849 1015.13> 1028 97<884 982.698> 1050 182<146.723 362.974>
DStem2: 904 690.5 729.5 539.5 0.868243 -0.496139<-243.548 303.111>
LayerCount: 2
Fore
SplineSet
26 0 m 1,0,-1
 34 73 l 1,1,-1
 198 119 l 1,2,-1
 198 751 l 2,3,4
 198 1005 198 1005 327.5 1127.5 c 128,-1,5
 457 1250 457 1250 689 1250 c 0,6,7
 827 1250 827 1250 950.5 1223 c 128,-1,8
 1074 1196 1074 1196 1145 1151 c 1,9,-1
 1125 873 l 1,10,-1
 1028 884 l 1,11,-1
 1002 1063 l 1,12,13
 939 1113 939 1113 867 1113 c 128,-1,14
 795 1113 795 1113 743 1064.5 c 128,-1,15
 691 1016 691 1016 691 951 c 128,-1,16
 691 886 691 886 721 838 c 128,-1,17
 751 790 751 790 798.5 756 c 128,-1,18
 846 722 846 722 904 690.5 c 1,19,-1
 1019.5 624.5 l 1,20,21
 1077 590 1077 590 1124.5 549.5 c 0,22,23
 1232 457.842 1232 457.842 1232 316 c 0,24,25
 1232 207 1232 207 1176.5 128.5 c 0,26,27
 1068.68 -24 1068.68 -24 826 -24 c 0,28,29
 717 -24 717 -24 626 15 c 128,-1,30
 535 54 535 54 494 121 c 1,31,-1
 507 384 l 1,32,-1
 608 369 l 1,33,-1
 647 184 l 1,34,35
 676 138 676 138 730 107 c 128,-1,36
 784 76 784 76 849 76 c 0,37,38
 1050 76 1050 76 1050 250 c 0,39,40
 1050 346.745 1050 346.745 945 416 c 0,41,42
 898 447 898 447 842 476.5 c 128,-1,43
 786 506 786 506 729.5 539.5 c 128,-1,44
 673 573 673 573 626 613 c 0,45,46
 521 702.362 521 702.362 521 833.681 c 128,-1,47
 521 965 521 965 587.5 1047.5 c 128,-1,48
 654 1130 654 1130 761 1155 c 1,49,-1
 763 1158 l 1,50,51
 735 1161 735 1161 676 1161 c 0,52,53
 387 1161 387 1161 387 774 c 2,54,-1
 389 0 l 1,55,-1
 26 0 l 1,0,-1
EndSplineSet
Validated: 543745
Colour: ffffff
EndChar

StartChar: H
Encoding: 72 72 42
Width: 1478
VWidth: 0
Flags: W
HStem: 0 80<65 98.954 565.888 598 888 921.751 1386.38 1421> 589 103<427 1054> 1168 76<61 112.123 531.62 595 882 933.464 1353 1416>
VStem: 232 195<121 589 692 1126> 1054 195<121 589 692 1126>
LayerCount: 2
Fore
SplineSet
50 1168 m 1,0,-1
 61 1244 l 1,1,-1
 605 1244 l 1,2,-1
 595 1168 l 1,3,-1
 427 1130 l 1,4,-1
 427 692 l 1,5,-1
 1054 692 l 1,6,-1
 1054 1126 l 1,7,-1
 871 1168 l 1,8,-1
 882 1244 l 1,9,-1
 1428 1244 l 1,10,-1
 1416 1168 l 1,11,-1
 1249 1130 l 1,12,-1
 1249 114 l 1,13,-1
 1431 80 l 1,14,-1
 1421 0 l 1,15,-1
 878 0 l 1,16,-1
 888 74 l 1,17,-1
 1054 121 l 1,18,-1
 1054 589 l 1,19,-1
 427 589 l 1,20,-1
 427 114 l 1,21,-1
 611 80 l 1,22,-1
 598 0 l 1,23,-1
 57 0 l 1,24,-1
 65 74 l 1,25,-1
 232 121 l 1,26,-1
 232 1126 l 1,27,-1
 50 1168 l 1,0,-1
EndSplineSet
Validated: 19457
Colour: ffffff
EndChar

StartChar: Hbar
Encoding: 294 294 43
Width: 1486
VWidth: 0
Flags: W
HStem: 0 80<93 126.954 593.888 626 916 949.751 1414.38 1449> 589 103<455 1082> 873 117<132 260 1277 1369> 1168 76<89 140.123 559.62 623 910 961.464 1381 1444>
VStem: 260 195<121 589 692 873 990 1126> 1082 195<121 589 692 873 990 1126>
LayerCount: 2
Fore
SplineSet
1082 888 m 1,0,-1
 455 888 l 1,1,-1
 455 692 l 1,2,-1
 1082 692 l 1,3,-1
 1082 888 l 1,0,-1
123 873 m 1,4,-1
 132 990 l 1,5,-1
 260 990 l 1,6,-1
 260 1126 l 1,7,-1
 78 1168 l 1,8,-1
 89 1244 l 1,9,-1
 633 1244 l 1,10,-1
 623 1168 l 1,11,-1
 455 1130 l 1,12,-1
 455 974 l 1,13,-1
 1082 974 l 1,14,-1
 1082 1126 l 1,15,-1
 899 1168 l 1,16,-1
 910 1244 l 1,17,-1
 1456 1244 l 1,18,-1
 1444 1168 l 1,19,-1
 1277 1130 l 1,20,-1
 1277 990 l 1,21,-1
 1376 990 l 1,22,-1
 1369 873 l 1,23,-1
 1277 873 l 1,24,-1
 1277 114 l 1,25,-1
 1459 80 l 1,26,-1
 1449 0 l 1,27,-1
 906 0 l 1,28,-1
 916 74 l 1,29,-1
 1082 121 l 1,30,-1
 1082 589 l 1,31,-1
 455 589 l 1,32,-1
 455 114 l 1,33,-1
 639 80 l 1,34,-1
 626 0 l 1,35,-1
 85 0 l 1,36,-1
 93 74 l 1,37,-1
 260 121 l 1,38,-1
 260 873 l 1,39,-1
 123 873 l 1,4,-1
EndSplineSet
Validated: 19457
Colour: ffffff
EndChar

StartChar: I
Encoding: 73 73 44
Width: 655
VWidth: 0
Flags: W
HStem: 0 80<65 98.9539 562.623 597> 1168 76<61 112.123 531.243 595>
VStem: 232 194<121 1126>
LayerCount: 2
Fore
SplineSet
50 1168 m 1,0,-1
 61 1244 l 1,1,-1
 605 1244 l 1,2,-1
 595 1168 l 1,3,-1
 426 1130 l 1,4,-1
 426 114 l 1,5,-1
 607 80 l 1,6,-1
 597 0 l 1,7,-1
 57 0 l 1,8,-1
 65 74 l 1,9,-1
 232 121 l 1,10,-1
 232 1126 l 1,11,-1
 50 1168 l 1,0,-1
EndSplineSet
Validated: 19457
Colour: ffffff
EndChar

StartChar: Iacute
Encoding: 205 205 45
Width: 655
VWidth: 0
Flags: W
HStem: 0 80<65 98.9539 562.623 597> 1168 76<61 112.123 531.243 595>
VStem: 232 194<121 1126>
LayerCount: 2
Fore
SplineSet
289 1385 m 1,0,-1
 412 1710 l 1,1,-1
 523 1670 l 1,2,-1
 341 1354 l 1,3,-1
 289 1385 l 1,0,-1
50 1168 m 1,4,-1
 61 1244 l 1,5,-1
 605 1244 l 1,6,-1
 595 1168 l 1,7,-1
 426 1130 l 1,8,-1
 426 114 l 1,9,-1
 607 80 l 1,10,-1
 597 0 l 1,11,-1
 57 0 l 1,12,-1
 65 74 l 1,13,-1
 232 121 l 1,14,-1
 232 1126 l 1,15,-1
 50 1168 l 1,4,-1
EndSplineSet
Validated: 19457
Colour: ffffff
EndChar

StartChar: Icaron
Encoding: 463 463 46
Width: 655
VWidth: 0
Flags: W
HStem: 0 80<65 98.9539 562.623 597> 1168 76<61 112.123 531.243 595>
VStem: 232 194<121 1126>
DStem2: 197 1589 117 1527 0.733231 -0.67998<0 207.902> 356 1445 351 1376 0.692867 0.721065<0 186.172>
LayerCount: 2
Fore
SplineSet
117 1527 m 1,0,-1
 197 1589 l 1,1,-1
 347 1445 l 1,2,-1
 356 1445 l 1,3,-1
 479 1585 l 1,4,-1
 523 1555 l 1,5,-1
 351 1376 l 1,6,-1
 296 1361 l 1,7,-1
 117 1527 l 1,0,-1
50 1168 m 1,8,-1
 61 1244 l 1,9,-1
 605 1244 l 1,10,-1
 595 1168 l 1,11,-1
 426 1130 l 1,12,-1
 426 114 l 1,13,-1
 607 80 l 1,14,-1
 597 0 l 1,15,-1
 57 0 l 1,16,-1
 65 74 l 1,17,-1
 232 121 l 1,18,-1
 232 1126 l 1,19,-1
 50 1168 l 1,8,-1
EndSplineSet
Validated: 19457
Colour: ffffff
EndChar

StartChar: Icircumflex
Encoding: 206 206 47
Width: 655
VWidth: 0
Flags: W
HStem: 0 80<65 98.9539 562.623 597> 1168 76<61 112.123 531.243 595>
VStem: 232 194<121 1126>
LayerCount: 2
Fore
SplineSet
132 1392 m 1,0,-1
 299 1572 l 1,1,-1
 354 1585 l 1,2,-1
 532 1400 l 1,3,-1
 483 1364 l 1,4,-1
 319 1472 l 1,5,-1
 309 1472 l 1,6,-1
 169 1361 l 1,7,-1
 132 1392 l 1,0,-1
50 1168 m 1,8,-1
 61 1244 l 1,9,-1
 605 1244 l 1,10,-1
 595 1168 l 1,11,-1
 426 1130 l 1,12,-1
 426 114 l 1,13,-1
 607 80 l 1,14,-1
 597 0 l 1,15,-1
 57 0 l 1,16,-1
 65 74 l 1,17,-1
 232 121 l 1,18,-1
 232 1126 l 1,19,-1
 50 1168 l 1,8,-1
EndSplineSet
Validated: 19457
Colour: ffffff
EndChar

StartChar: Idieresis
Encoding: 207 207 48
Width: 655
VWidth: 0
Flags: W
HStem: 0 80<65 98.9539 562.623 597> 1168 76<61 112.123 531.243 595> 1373 157<136.814 252.701 403.814 521.67>
VStem: 110 169<1396.21 1507.31> 232 194<121 1126> 377 172<1396.21 1507.31>
LayerCount: 2
Fore
SplineSet
402 1395.5 m 128,-1,1
 377 1418 377 1418 377 1452.5 c 128,-1,2
 377 1487 377 1487 403 1508.5 c 128,-1,3
 429 1530 429 1530 462.5 1530 c 128,-1,4
 496 1530 496 1530 522.5 1508 c 128,-1,5
 549 1486 549 1486 549 1452 c 128,-1,6
 549 1418 549 1418 522.5 1395.5 c 128,-1,7
 496 1373 496 1373 461.5 1373 c 128,-1,0
 427 1373 427 1373 402 1395.5 c 128,-1,1
135 1395.5 m 128,-1,9
 110 1418 110 1418 110 1452.5 c 128,-1,10
 110 1487 110 1487 136 1508.5 c 128,-1,11
 162 1530 162 1530 195 1530 c 128,-1,12
 228 1530 228 1530 253.5 1508 c 128,-1,13
 279 1486 279 1486 279 1452 c 128,-1,14
 279 1418 279 1418 253.5 1395.5 c 128,-1,15
 228 1373 228 1373 194 1373 c 128,-1,8
 160 1373 160 1373 135 1395.5 c 128,-1,9
50 1168 m 1,16,-1
 61 1244 l 1,17,-1
 605 1244 l 1,18,-1
 595 1168 l 1,19,-1
 426 1130 l 1,20,-1
 426 114 l 1,21,-1
 607 80 l 1,22,-1
 597 0 l 1,23,-1
 57 0 l 1,24,-1
 65 74 l 1,25,-1
 232 121 l 1,26,-1
 232 1126 l 1,27,-1
 50 1168 l 1,16,-1
EndSplineSet
Validated: 19457
Colour: ffffff
EndChar

StartChar: Idotaccent
Encoding: 304 304 49
Width: 655
VWidth: 0
Flags: W
HStem: 0 80<65 98.9539 562.623 597> 1168 76<61 112.123 531.243 595> 1360 237<243.128 411.356>
VStem: 206 243<1389.35 1562.96> 232 194<121 1126>
LayerCount: 2
Fore
SplineSet
241.5 1397 m 128,-1,1
 206 1434 206 1434 206 1482.5 c 128,-1,2
 206 1531 206 1531 242 1564 c 128,-1,3
 278 1597 278 1597 327 1597 c 128,-1,4
 376 1597 376 1597 412.5 1564 c 128,-1,5
 449 1531 449 1531 449 1482 c 128,-1,6
 449 1433 449 1433 412.5 1396.5 c 128,-1,7
 376 1360 376 1360 326.5 1360 c 128,-1,0
 277 1360 277 1360 241.5 1397 c 128,-1,1
50 1168 m 1,8,-1
 61 1244 l 1,9,-1
 605 1244 l 1,10,-1
 595 1168 l 1,11,-1
 426 1130 l 1,12,-1
 426 114 l 1,13,-1
 607 80 l 1,14,-1
 597 0 l 1,15,-1
 57 0 l 1,16,-1
 65 74 l 1,17,-1
 232 121 l 1,18,-1
 232 1126 l 1,19,-1
 50 1168 l 1,8,-1
EndSplineSet
Validated: 19457
Colour: ffffff
EndChar

StartChar: Igrave
Encoding: 204 204 50
Width: 655
VWidth: 0
Flags: W
HStem: 0 80<65 98.9539 562.623 597> 1168 76<61 112.123 531.243 595>
VStem: 232 194<121 1126>
LayerCount: 2
Fore
SplineSet
133 1664 m 1,0,-1
 249 1702 l 1,1,-1
 381 1368 l 1,2,-1
 323 1334 l 1,3,-1
 133 1664 l 1,0,-1
50 1168 m 1,4,-1
 61 1244 l 1,5,-1
 605 1244 l 1,6,-1
 595 1168 l 1,7,-1
 426 1130 l 1,8,-1
 426 114 l 1,9,-1
 607 80 l 1,10,-1
 597 0 l 1,11,-1
 57 0 l 1,12,-1
 65 74 l 1,13,-1
 232 121 l 1,14,-1
 232 1126 l 1,15,-1
 50 1168 l 1,4,-1
EndSplineSet
Validated: 19457
Colour: ffffff
EndChar

StartChar: Imacron
Encoding: 298 298 51
Width: 655
VWidth: 0
Flags: W
HStem: 0 80<65 98.9539 562.623 597> 1168 76<61 112.123 531.243 595> 1383 101<117 544>
VStem: 232 194<121 1126>
LayerCount: 2
Fore
SplineSet
104 1383 m 1,0,-1
 117 1484 l 1,1,-1
 558 1484 l 1,2,-1
 544 1383 l 1,3,-1
 104 1383 l 1,0,-1
50 1168 m 1,4,-1
 61 1244 l 1,5,-1
 605 1244 l 1,6,-1
 595 1168 l 1,7,-1
 426 1130 l 1,8,-1
 426 114 l 1,9,-1
 607 80 l 1,10,-1
 597 0 l 1,11,-1
 57 0 l 1,12,-1
 65 74 l 1,13,-1
 232 121 l 1,14,-1
 232 1126 l 1,15,-1
 50 1168 l 1,4,-1
EndSplineSet
Validated: 19457
Colour: ffffff
EndChar

StartChar: Iogonek
Encoding: 302 302 52
Width: 664
VWidth: 0
Flags: W
HStem: -386 51<610.989 621.12> 0 74<65 115.939 560.949 597> 1168 76<61 112.123 531.243 595>
VStem: 232 194<121 1126> 374 148<-268.883 -92.1452>
LayerCount: 2
Fore
SplineSet
522 -148 m 0,0,1
 522 -260.781 522 -260.781 647 -335 c 1,2,-1
 611 -386 l 1,3,4
 505 -375 505 -375 439.5 -324.5 c 128,-1,5
 374 -274 374 -274 374 -218.5 c 128,-1,6
 374 -163 374 -163 400.5 -117.5 c 128,-1,7
 427 -72 427 -72 508 0 c 1,8,-1
 57 0 l 1,9,-1
 65 74 l 1,10,-1
 232 121 l 1,11,-1
 232 1126 l 1,12,-1
 50 1168 l 1,13,-1
 61 1244 l 1,14,-1
 605 1244 l 1,15,-1
 595 1168 l 1,16,-1
 426 1130 l 1,17,-1
 426 114 l 1,18,-1
 607 80 l 1,19,-1
 597 0 l 1,20,-1
 581 0 l 1,21,22
 522 -98 522 -98 522 -148 c 0,0,1
EndSplineSet
Validated: 543745
Colour: ffffff
EndChar

StartChar: J
Encoding: 74 74 53
Width: 638
VWidth: 0
Flags: W
HStem: 1168 76<62 113.781 532.865 597>
VStem: 232 194<31.1562 1126>
LayerCount: 2
Fore
SplineSet
-4 -237 m 1,0,1
 117 -122 117 -122 174.5 -20.5 c 128,-1,2
 232 81 232 81 232 197 c 2,3,-1
 233 1126 l 1,4,-1
 52 1168 l 1,5,-1
 62 1244 l 1,6,-1
 607 1244 l 1,7,-1
 597 1168 l 1,8,-1
 427 1130 l 1,9,-1
 426 385 l 2,10,11
 426 176.385 426 176.385 399 85.6923 c 128,-1,12
 372 -5 372 -5 346 -53 c 128,-1,13
 320 -101 320 -101 274.5 -149 c 0,14,15
 202.405 -225.057 202.405 -225.057 50 -326 c 1,16,-1
 -4 -237 l 1,0,1
EndSplineSet
Validated: 543745
Colour: ffffff
EndChar

StartChar: K
Encoding: 75 75 54
Width: 1238
VWidth: 0
Flags: W
HStem: -21 21G<1051.5 1143> 0 80<64 93.261 582.193 607> 1168 76<61 100.128 548.536 601 704 743.278 1131.01 1185>
VStem: 236 193<129 1117>
DStem2: 605 798 635 653 0.623268 0.782009<-94.6932 405.913>
LayerCount: 2
Fore
SplineSet
453 626 m 1,0,1
 531.667 704.667 531.667 704.667 605 798 c 1,2,-1
 851 1121 l 1,3,-1
 696 1168 l 1,4,-1
 704 1244 l 1,5,-1
 1197 1244 l 1,6,-1
 1185 1168 l 1,7,-1
 1008 1121 l 1,8,-1
 635 653 l 1,9,-1
 862 385 l 2,10,11
 991 232 991 232 1057.5 171.5 c 128,-1,12
 1124 111 1124 111 1213 83 c 1,13,-1
 1250 70 l 1,14,-1
 1240 1 l 1,15,16
 1177 -21 1177 -21 1109 -21 c 0,17,18
 994 -21 994 -21 899.5 52 c 128,-1,19
 805 125 805 125 706 261 c 2,20,-1
 454 605 l 1,21,-1
 453 626 l 1,0,1
47 1168 m 1,22,-1
 61 1244 l 1,23,-1
 611 1244 l 1,24,-1
 601 1168 l 1,25,-1
 429 1121 l 1,26,-1
 429 124 l 1,27,-1
 618 80 l 1,28,-1
 607 0 l 1,29,-1
 54 0 l 1,30,-1
 64 74 l 1,31,-1
 236 129 l 1,32,-1
 236 1117 l 1,33,-1
 47 1168 l 1,22,-1
EndSplineSet
Validated: 543745
Colour: ffffff
EndChar

StartChar: Kcommaaccent
Encoding: 310 310 55
Width: 1238
VWidth: 0
Flags: W
HStem: -21 21G<1051.5 1143> 0 80<64 93.261 582.193 607> 1168 76<61 100.128 548.536 601 704 743.278 1131.01 1185>
VStem: 236 193<129 1117> 738 110<-333.764 -183.75>
DStem2: 605 798 635 653 0.623268 0.782009<-94.6932 405.913>
LayerCount: 2
Fore
SplineSet
645 -357 m 1,0,1
 738 -333 738 -333 738 -267 c 0,2,3
 738 -244 738 -244 707.5 -217 c 128,-1,4
 677 -190 677 -190 658 -188 c 1,5,6
 665 -154 665 -154 689 -129.5 c 128,-1,7
 713 -105 713 -105 748.5 -105 c 128,-1,8
 784 -105 784 -105 816 -134 c 128,-1,9
 848 -163 848 -163 848 -204.5 c 128,-1,10
 848 -246 848 -246 839.5 -271 c 128,-1,11
 831 -296 831 -296 811.5 -323.5 c 0,12,13
 766.37 -387.145 766.37 -387.145 663 -411 c 1,14,-1
 645 -357 l 1,0,1
453 626 m 1,15,16
 531.667 704.667 531.667 704.667 605 798 c 1,17,-1
 851 1121 l 1,18,-1
 696 1168 l 1,19,-1
 704 1244 l 1,20,-1
 1197 1244 l 1,21,-1
 1185 1168 l 1,22,-1
 1008 1121 l 1,23,-1
 635 653 l 1,24,-1
 862 385 l 2,25,26
 991 232 991 232 1057.5 171.5 c 128,-1,27
 1124 111 1124 111 1213 83 c 1,28,-1
 1250 70 l 1,29,-1
 1240 1 l 1,30,31
 1177 -21 1177 -21 1109 -21 c 0,32,33
 994 -21 994 -21 899.5 52 c 128,-1,34
 805 125 805 125 706 261 c 2,35,-1
 454 605 l 1,36,-1
 453 626 l 1,15,16
47 1168 m 1,37,-1
 61 1244 l 1,38,-1
 611 1244 l 1,39,-1
 601 1168 l 1,40,-1
 429 1121 l 1,41,-1
 429 124 l 1,42,-1
 618 80 l 1,43,-1
 607 0 l 1,44,-1
 54 0 l 1,45,-1
 64 74 l 1,46,-1
 236 129 l 1,47,-1
 236 1117 l 1,48,-1
 47 1168 l 1,37,-1
EndSplineSet
Validated: 543745
Colour: ffffff
EndChar

StartChar: L
Encoding: 76 76 56
Width: 1097
VWidth: 0
Flags: W
HStem: 0 96<427 869> 0 74<67 117.634> 1168 76<58 97.8464 545.841 598>
VStem: 233 194<121 1117>
LayerCount: 2
Fore
SplineSet
58 0 m 1,0,-1
 67 74 l 1,1,-1
 233 121 l 1,2,-1
 233 1117 l 1,3,-1
 45 1168 l 1,4,-1
 58 1244 l 1,5,-1
 608 1244 l 1,6,-1
 598 1168 l 1,7,-1
 427 1121 l 1,8,-1
 427 96 l 1,9,-1
 869 96 l 1,10,-1
 1000 344 l 1,11,-1
 1085 331 l 1,12,-1
 1048 0 l 1,13,-1
 58 0 l 1,0,-1
EndSplineSet
Validated: 19457
Colour: ffffff
EndChar

StartChar: Lacute
Encoding: 313 313 57
Width: 1097
VWidth: 0
Flags: W
HStem: 0 96<427 869> 0 74<67 117.634> 1168 76<58 97.8464 545.841 598>
VStem: 233 194<121 1117>
LayerCount: 2
Fore
SplineSet
260 1385 m 1,0,-1
 383 1710 l 1,1,-1
 494 1670 l 1,2,-1
 311 1354 l 1,3,-1
 260 1385 l 1,0,-1
45 1168 m 1,4,-1
 58 1244 l 1,5,-1
 608 1244 l 1,6,-1
 598 1168 l 1,7,-1
 427 1121 l 1,8,-1
 427 96 l 1,9,-1
 869 96 l 1,10,-1
 1000 344 l 1,11,-1
 1085 331 l 1,12,-1
 1048 0 l 1,13,-1
 58 0 l 1,14,-1
 67 74 l 1,15,-1
 233 121 l 1,16,-1
 233 1117 l 1,17,-1
 45 1168 l 1,4,-1
EndSplineSet
Validated: 19457
Colour: ffffff
EndChar

StartChar: Lcaron
Encoding: 317 317 58
Width: 1097
VWidth: 0
Flags: W
HStem: 0 96<427 869> 0 74<67 117.634> 750 69<681.221 747.209> 1100 181<711.432 810.964> 1168 76<58 97.8464 545.841 598>
VStem: 233 194<121 1117> 845 137<911.11 1074.7>
LayerCount: 2
Fore
SplineSet
728 1100 m 1,0,-1
 700 1097 l 1,1,2
 684 1139 684 1139 684 1160 c 0,3,4
 684 1215 684 1215 724 1248 c 128,-1,5
 764 1281 764 1281 799.5 1281 c 128,-1,6
 835 1281 835 1281 864 1269 c 128,-1,7
 893 1257 893 1257 920.5 1234 c 0,8,9
 982 1182.56 982 1182.56 982 1073 c 0,10,11
 982 829 982 829 686 750 c 1,12,-1
 663 819 l 1,13,14
 755 843 755 843 800 891 c 128,-1,15
 845 939 845 939 845 987.5 c 128,-1,16
 845 1036 845 1036 812 1068 c 128,-1,17
 779 1100 779 1100 728 1100 c 1,0,-1
45 1168 m 1,18,-1
 58 1244 l 1,19,-1
 608 1244 l 1,20,-1
 598 1168 l 1,21,-1
 427 1121 l 1,22,-1
 427 96 l 1,23,-1
 869 96 l 1,24,-1
 1000 344 l 1,25,-1
 1085 331 l 1,26,-1
 1048 0 l 1,27,-1
 58 0 l 1,28,-1
 67 74 l 1,29,-1
 233 121 l 1,30,-1
 233 1117 l 1,31,-1
 45 1168 l 1,18,-1
EndSplineSet
Validated: 543745
Colour: ffffff
EndChar

StartChar: Lcommaaccent
Encoding: 315 315 59
Width: 1097
VWidth: 0
Flags: W
HStem: -372 21G<475.692 535.221> 0 96<427 869> 0 74<67 117.634> 1168 76<58 97.8464 545.841 598>
VStem: 233 194<121 1117> 558 109<-297.3 -147.75>
LayerCount: 2
Fore
SplineSet
464 -320 m 1,0,1
 558 -296 558 -296 558 -230 c 0,2,3
 558 -207 558 -207 527 -180 c 128,-1,4
 496 -153 496 -153 477 -151 c 1,5,6
 484 -117 484 -117 508 -92.5 c 128,-1,7
 532 -68 532 -68 567.5 -68 c 128,-1,8
 603 -68 603 -68 635 -97.5 c 128,-1,9
 667 -127 667 -127 667 -168.5 c 128,-1,10
 667 -210 667 -210 658.5 -234.5 c 128,-1,11
 650 -259 650 -259 631 -286 c 0,12,13
 587.442 -347.898 587.442 -347.898 483 -372 c 1,14,-1
 464 -320 l 1,0,1
45 1168 m 1,15,-1
 58 1244 l 1,16,-1
 608 1244 l 1,17,-1
 598 1168 l 1,18,-1
 427 1121 l 1,19,-1
 427 96 l 1,20,-1
 869 96 l 1,21,-1
 1000 344 l 1,22,-1
 1085 331 l 1,23,-1
 1048 0 l 1,24,-1
 58 0 l 1,25,-1
 67 74 l 1,26,-1
 233 121 l 1,27,-1
 233 1117 l 1,28,-1
 45 1168 l 1,15,-1
EndSplineSet
Validated: 543745
Colour: ffffff
EndChar

StartChar: Lslash
Encoding: 321 321 60
Width: 1097
VWidth: 0
Flags: W
HStem: 0 96<427 869> 0 74<67 117.634> 1168 76<58 97.8464 545.841 598>
VStem: 233 194<121 597 706 712 819 1117>
DStem2: 87 621 80 507 0.860891 0.508789<0 113.479 393.443 503.988>
LayerCount: 2
Fore
SplineSet
80 507 m 1,0,-1
 87 621 l 1,1,-1
 233 706 l 1,2,-1
 233 1117 l 1,3,-1
 45 1168 l 1,4,-1
 58 1244 l 1,5,-1
 608 1244 l 1,6,-1
 598 1168 l 1,7,-1
 427 1121 l 1,8,-1
 427 819 l 1,9,-1
 577 907 l 1,10,-1
 569 796 l 1,11,-1
 427 712 l 1,12,-1
 427 96 l 1,13,-1
 869 96 l 1,14,-1
 1000 344 l 1,15,-1
 1085 331 l 1,16,-1
 1048 0 l 1,17,-1
 58 0 l 1,18,-1
 67 74 l 1,19,-1
 233 121 l 1,20,-1
 233 597 l 1,21,-1
 80 507 l 1,0,-1
EndSplineSet
Validated: 19457
Colour: ffffff
EndChar

StartChar: M
Encoding: 77 77 61
Width: 1700
VWidth: 0
Flags: W
HStem: 0 74<35 85.9386 451.413 504 1139 1189.63 1608.77 1664> 1168 76<102 154.464 1544.62 1608>
DStem2: 202 121 334 114 0.072446 0.997372<2.58126 857.904> 583 1050 397 967 0.344078 -0.938941<13.9336 782.148> 845 313 868 50 0.370887 0.928678<0 791.555> 1440 1130 1249 1004 0.0511142 -0.998693<116.072 1000.78>
LayerCount: 2
Fore
SplineSet
24 0 m 1,0,-1
 35 74 l 1,1,-1
 202 121 l 1,2,-1
 275 1126 l 1,3,-1
 92 1168 l 1,4,-1
 102 1244 l 1,5,-1
 505 1244 l 1,6,-1
 583 1050 l 1,7,-1
 845 313 l 1,8,-1
 1152 1083 l 1,9,-1
 1223 1244 l 1,10,-1
 1618 1244 l 1,11,-1
 1608 1168 l 1,12,-1
 1440 1130 l 1,13,-1
 1492 114 l 1,14,-1
 1674 80 l 1,15,-1
 1664 0 l 1,16,-1
 1128 0 l 1,17,-1
 1139 74 l 1,18,-1
 1305 121 l 1,19,-1
 1249 1004 l 1,20,-1
 868 50 l 1,21,-1
 740 31 l 1,22,-1
 397 967 l 1,23,-1
 334 114 l 1,24,-1
 517 80 l 1,25,-1
 504 0 l 1,26,-1
 24 0 l 1,0,-1
EndSplineSet
Validated: 19457
Colour: ffffff
EndChar

StartChar: N
Encoding: 78 78 62
Width: 1390
VWidth: 0
Flags: W
HStem: 0 80<65 98.9539 498.133 532> 1168 76<61 101.16 881 932.147 1280 1343>
VStem: 232 128<121 961> 1054 122<274 1126>
DStem2: 411 1244 360 961 0.556054 -0.831146<206.856 1163.75>
LayerCount: 2
Fore
SplineSet
50 1168 m 1,0,-1
 61 1244 l 1,1,-1
 411 1244 l 1,2,-1
 1054 274 l 1,3,-1
 1054 1126 l 1,4,-1
 869 1168 l 1,5,-1
 881 1244 l 1,6,-1
 1356 1244 l 1,7,-1
 1343 1168 l 1,8,-1
 1176 1130 l 1,9,-1
 1176 1 l 1,10,-1
 1023 -30 l 1,11,-1
 360 961 l 1,12,-1
 360 114 l 1,13,-1
 543 80 l 1,14,-1
 532 0 l 1,15,-1
 57 0 l 1,16,-1
 65 74 l 1,17,-1
 232 121 l 1,18,-1
 232 1117 l 1,19,-1
 50 1168 l 1,0,-1
EndSplineSet
Validated: 19457
Colour: ffffff
EndChar

StartChar: Nacute
Encoding: 323 323 63
Width: 1390
VWidth: 0
Flags: W
HStem: 0 80<65 98.9539 498.133 532> 1168 76<61 101.16 881 932.147 1280 1343>
VStem: 232 128<121 961> 1054 122<271 1126>
DStem2: 412 1244 360 961 0.556054 -0.831146<206.299 1165.69>
LayerCount: 2
Fore
SplineSet
598 1385 m 1,0,-1
 721 1710 l 1,1,-1
 832 1670 l 1,2,-1
 650 1354 l 1,3,-1
 598 1385 l 1,0,-1
50 1168 m 1,4,-1
 61 1244 l 1,5,-1
 412 1244 l 1,6,-1
 1054 271 l 1,7,-1
 1054 1126 l 1,8,-1
 869 1168 l 1,9,-1
 881 1244 l 1,10,-1
 1356 1244 l 1,11,-1
 1343 1168 l 1,12,-1
 1176 1130 l 1,13,-1
 1176 1 l 1,14,-1
 1023 -30 l 1,15,-1
 360 961 l 1,16,-1
 360 114 l 1,17,-1
 543 80 l 1,18,-1
 532 0 l 1,19,-1
 57 0 l 1,20,-1
 65 74 l 1,21,-1
 232 121 l 1,22,-1
 232 1117 l 1,23,-1
 50 1168 l 1,4,-1
EndSplineSet
Validated: 19457
Colour: ffffff
EndChar

StartChar: Ncaron
Encoding: 327 327 64
Width: 1390
VWidth: 0
Flags: W
HStem: 0 80<65 98.9539 498.133 532> 1168 76<61 101.16 881 932.147 1280 1343>
VStem: 232 128<121 961> 1054 122<271 1126>
DStem2: 412 1244 360 961 0.556054 -0.831146<206.299 1165.69> 547 1589 467 1527 0.735117 -0.677941<0 207.156> 706 1445 701 1376 0.692867 0.721065<0 186.172>
LayerCount: 2
Fore
SplineSet
467 1527 m 1,0,-1
 547 1589 l 1,1,-1
 696 1445 l 1,2,-1
 706 1445 l 1,3,-1
 829 1585 l 1,4,-1
 873 1555 l 1,5,-1
 701 1376 l 1,6,-1
 647 1361 l 1,7,-1
 467 1527 l 1,0,-1
50 1168 m 1,8,-1
 61 1244 l 1,9,-1
 412 1244 l 1,10,-1
 1054 271 l 1,11,-1
 1054 1126 l 1,12,-1
 869 1168 l 1,13,-1
 881 1244 l 1,14,-1
 1356 1244 l 1,15,-1
 1343 1168 l 1,16,-1
 1176 1130 l 1,17,-1
 1176 1 l 1,18,-1
 1023 -30 l 1,19,-1
 360 961 l 1,20,-1
 360 114 l 1,21,-1
 543 80 l 1,22,-1
 532 0 l 1,23,-1
 57 0 l 1,24,-1
 65 74 l 1,25,-1
 232 121 l 1,26,-1
 232 1117 l 1,27,-1
 50 1168 l 1,8,-1
EndSplineSet
Validated: 19457
Colour: ffffff
EndChar

StartChar: Ncommaaccent
Encoding: 325 325 65
Width: 1390
VWidth: 0
Flags: W
HStem: 0 80<65 98.9539 498.133 532> 1168 76<61 101.16 881 932.147 1280 1343>
VStem: 232 128<121 961> 696 110<-312.488 -163.75> 1054 122<271 1126>
DStem2: 412 1244 360 961 0.556054 -0.831146<206.299 1165.69>
LayerCount: 2
Fore
SplineSet
602 -337 m 1,0,1
 696 -313 696 -313 696 -246 c 0,2,3
 696 -223 696 -223 665.5 -196.5 c 128,-1,4
 635 -170 635 -170 616 -168 c 1,5,6
 623 -134 623 -134 647 -109.5 c 128,-1,7
 671 -85 671 -85 706.5 -85 c 128,-1,8
 742 -85 742 -85 774 -114 c 128,-1,9
 806 -143 806 -143 806 -184.5 c 128,-1,10
 806 -226 806 -226 797.5 -250.5 c 128,-1,11
 789 -275 789 -275 769.5 -302.5 c 0,12,13
 725.217 -364.95 725.217 -364.95 621 -389 c 1,14,-1
 602 -337 l 1,0,1
50 1168 m 1,15,-1
 61 1244 l 1,16,-1
 412 1244 l 1,17,-1
 1054 271 l 1,18,-1
 1054 1126 l 1,19,-1
 869 1168 l 1,20,-1
 881 1244 l 1,21,-1
 1356 1244 l 1,22,-1
 1343 1168 l 1,23,-1
 1176 1130 l 1,24,-1
 1176 1 l 1,25,-1
 1023 -30 l 1,26,-1
 360 961 l 1,27,-1
 360 114 l 1,28,-1
 543 80 l 1,29,-1
 532 0 l 1,30,-1
 57 0 l 1,31,-1
 65 74 l 1,32,-1
 232 121 l 1,33,-1
 232 1117 l 1,34,-1
 50 1168 l 1,15,-1
EndSplineSet
Validated: 543745
Colour: ffffff
EndChar

StartChar: Ntilde
Encoding: 209 209 66
Width: 1390
VWidth: 0
Flags: W
HStem: 0 80<65 98.9539 498.133 532> 1168 76<61 101.16 881 932.147 1280 1343> 1391 105<695.914 859.724> 1423 103<489.536 648.664>
VStem: 232 128<121 961> 1054 122<271 1126>
DStem2: 412 1244 360 961 0.556054 -0.831146<206.299 1165.69>
LayerCount: 2
Fore
SplineSet
543 1423 m 2,0,1
 518.25 1423 518.25 1423 483 1376 c 1,2,-1
 445 1383 l 1,3,4
 452.357 1427.14 452.357 1427.14 474.679 1461.07 c 0,5,6
 517.395 1526 517.395 1526 566 1526 c 2,7,-1
 580 1526 l 1,8,-1
 802 1496 l 1,9,-1
 807 1496 l 2,10,11
 830 1496 830 1496 862 1536 c 1,12,-1
 910 1535 l 1,13,14
 862 1391 862 1391 781 1391 c 0,15,16
 772 1391 772 1391 768 1392 c 2,17,-1
 546 1423 l 1,18,-1
 543 1423 l 2,0,1
50 1168 m 1,19,-1
 61 1244 l 1,20,-1
 412 1244 l 1,21,-1
 1054 271 l 1,22,-1
 1054 1126 l 1,23,-1
 869 1168 l 1,24,-1
 881 1244 l 1,25,-1
 1356 1244 l 1,26,-1
 1343 1168 l 1,27,-1
 1176 1130 l 1,28,-1
 1176 1 l 1,29,-1
 1023 -30 l 1,30,-1
 360 961 l 1,31,-1
 360 114 l 1,32,-1
 543 80 l 1,33,-1
 532 0 l 1,34,-1
 57 0 l 1,35,-1
 65 74 l 1,36,-1
 232 121 l 1,37,-1
 232 1117 l 1,38,-1
 50 1168 l 1,19,-1
EndSplineSet
Validated: 543745
Colour: ffffff
EndChar

StartChar: O
Encoding: 79 79 67
Width: 1342
VWidth: 0
Flags: W
HStem: -27 106<511.392 875.782> 1176 96<469.619 828.61>
VStem: 61 222<378.474 883.017> 1062 222<366.541 863.039>
LayerCount: 2
Fore
SplineSet
283 676 m 0,0,1
 283 377 283 377 419.5 204.5 c 0,2,3
 518.809 79 518.809 79 686 79 c 0,4,5
 931.909 79 931.909 79 1017 295 c 0,6,7
 1062 409.231 1062 409.231 1062 535.115 c 128,-1,8
 1062 661 1062 661 1048 745 c 128,-1,9
 1034 829 1034 829 1002 907.5 c 128,-1,10
 970 986 970 986 924.5 1045.5 c 0,11,12
 824.706 1176 824.706 1176 658 1176 c 0,13,14
 283 1176 283 1176 283 676 c 0,0,1
61 619 m 0,15,16
 61 911 61 911 236 1091.5 c 128,-1,17
 411 1272 411 1272 706 1272 c 0,18,19
 838 1272 838 1272 948.5 1219.5 c 128,-1,20
 1059 1167 1059 1167 1131.5 1077 c 0,21,22
 1284 887.69 1284 887.69 1284 619 c 0,23,24
 1284 352.186 1284 352.186 1116.5 167 c 0,25,26
 1036 78 1036 78 911.5 25.5 c 128,-1,27
 787 -27 787 -27 627 -27 c 128,-1,28
 467 -27 467 -27 335 59 c 128,-1,29
 203 145 203 145 132 292 c 128,-1,30
 61 439 61 439 61 619 c 0,15,16
EndSplineSet
Validated: 543745
Colour: ffffff
EndChar

StartChar: OE
Encoding: 338 338 68
Width: 1708
VWidth: 0
Flags: W
HStem: -27 106<486.049 917.076> 0 96<995 1487> 583 93<995 1267> 1152 92<995 1464> 1176 96<447.113 790.992>
VStem: 64 222<366.169 904.621> 802 193<101.214 583 676 1147.88> 1300 87<421 484.024> 1504 86<937 1014.06>
LayerCount: 2
Fore
SplineSet
286 676 m 0,0,1
 286 459.455 286 459.455 361.5 281 c 0,2,3
 400 190 400 190 470 134.5 c 128,-1,4
 540 79 540 79 633 79 c 128,-1,5
 726 79 726 79 802 122 c 1,6,-1
 802 1126 l 1,7,8
 717 1176 717 1176 611 1176 c 0,9,10
 286 1176 286 1176 286 676 c 0,0,1
64 619 m 0,11,12
 64 919 64 919 217.5 1095.5 c 128,-1,13
 371 1272 371 1272 660 1272 c 0,14,15
 767 1272 767 1272 845 1244 c 1,16,-1
 1622 1244 l 1,17,-1
 1590 924 l 1,18,-1
 1504 937 l 1,19,-1
 1464 1152 l 1,20,-1
 995 1152 l 1,21,-1
 995 676 l 1,22,-1
 1283 676 l 1,23,-1
 1325 796 l 1,24,-1
 1419 810 l 1,25,-1
 1387 421 l 1,26,-1
 1300 408 l 1,27,-1
 1267 583 l 1,28,-1
 995 583 l 1,29,-1
 995 96 l 1,30,-1
 1487 96 l 1,31,-1
 1585 326 l 1,32,-1
 1668 313 l 1,33,-1
 1639 0 l 1,34,-1
 798 0 l 1,35,36
 687 -27 687 -27 590 -27 c 0,37,38
 425 -27 425 -27 304.5 57.5 c 0,39,40
 64 226.149 64 226.149 64 619 c 0,11,12
EndSplineSet
Validated: 543745
Colour: ffffff
EndChar

StartChar: Oacute
Encoding: 211 211 69
Width: 1342
VWidth: 0
Flags: W
HStem: -27 106<523.867 884.727> 1176 96<481.619 840.137>
VStem: 73 222<378.474 883.017> 1073 223<366.692 867.532>
LayerCount: 2
Fore
SplineSet
574 1380 m 1,0,-1
 696 1705 l 1,1,-1
 808 1666 l 1,2,-1
 624 1348 l 1,3,-1
 574 1380 l 1,0,-1
295 676 m 0,4,5
 295 377 295 377 431.5 204.5 c 0,6,7
 530.809 79 530.809 79 698 79 c 0,8,9
 942.909 79 942.909 79 1028 295 c 0,10,11
 1073 409.231 1073 409.231 1073 535.115 c 128,-1,12
 1073 661 1073 661 1059 744.5 c 128,-1,13
 1045 828 1045 828 1013.5 907 c 128,-1,14
 982 986 982 986 936 1045.5 c 0,15,16
 835.109 1176 835.109 1176 670 1176 c 0,17,18
 295 1176 295 1176 295 676 c 0,4,5
73 619 m 0,19,20
 73 911 73 911 248 1091.5 c 128,-1,21
 423 1272 423 1272 718 1272 c 0,22,23
 850 1272 850 1272 960.5 1219.5 c 128,-1,24
 1071 1167 1071 1167 1143.5 1077 c 0,25,26
 1296 887.69 1296 887.69 1296 619 c 0,27,28
 1296 352.788 1296 352.788 1129 167 c 0,29,30
 1049 78 1049 78 924.5 25.5 c 128,-1,31
 800 -27 800 -27 640 -27 c 128,-1,32
 480 -27 480 -27 347.5 59 c 128,-1,33
 215 145 215 145 144 292 c 128,-1,34
 73 439 73 439 73 619 c 0,19,20
EndSplineSet
Validated: 543745
Colour: ffffff
EndChar

StartChar: Ocaron
Encoding: 465 465 70
Width: 1342
VWidth: 0
Flags: W
HStem: -27 106<511.392 875.782> 1176 96<469.619 828.61>
VStem: 61 222<378.474 883.017> 1062 222<366.541 863.039>
DStem2: 550 1589 470 1527 0.733231 -0.67998<0 207.902> 709 1445 704 1376 0.690764 0.72308<0 186.195>
LayerCount: 2
Fore
SplineSet
470 1527 m 1,0,-1
 550 1589 l 1,1,-1
 700 1445 l 1,2,-1
 709 1445 l 1,3,-1
 832 1585 l 1,4,-1
 875 1555 l 1,5,-1
 704 1376 l 1,6,-1
 649 1361 l 1,7,-1
 470 1527 l 1,0,-1
283 676 m 0,8,9
 283 377 283 377 419.5 204.5 c 0,10,11
 518.809 79 518.809 79 686 79 c 0,12,13
 931.909 79 931.909 79 1017 295 c 0,14,15
 1062 409.231 1062 409.231 1062 535.115 c 128,-1,16
 1062 661 1062 661 1048 745 c 128,-1,17
 1034 829 1034 829 1002 907.5 c 128,-1,18
 970 986 970 986 924.5 1045.5 c 0,19,20
 824.706 1176 824.706 1176 658 1176 c 0,21,22
 283 1176 283 1176 283 676 c 0,8,9
61 619 m 0,23,24
 61 911 61 911 236 1091.5 c 128,-1,25
 411 1272 411 1272 706 1272 c 0,26,27
 838 1272 838 1272 948.5 1219.5 c 128,-1,28
 1059 1167 1059 1167 1131.5 1077 c 0,29,30
 1284 887.69 1284 887.69 1284 619 c 0,31,32
 1284 352.186 1284 352.186 1116.5 167 c 0,33,34
 1036 78 1036 78 911.5 25.5 c 128,-1,35
 787 -27 787 -27 627 -27 c 128,-1,36
 467 -27 467 -27 335 59 c 128,-1,37
 203 145 203 145 132 292 c 128,-1,38
 61 439 61 439 61 619 c 0,23,24
EndSplineSet
Validated: 543745
Colour: ffffff
EndChar

StartChar: Ocircumflex
Encoding: 212 212 71
Width: 1342
VWidth: 0
Flags: W
HStem: -27 106<511.392 875.782> 1176 96<469.619 828.61>
VStem: 61 222<378.474 883.017> 1062 222<366.541 863.039>
LayerCount: 2
Fore
SplineSet
484 1392 m 1,0,-1
 652 1572 l 1,1,-1
 707 1585 l 1,2,-1
 885 1400 l 1,3,-1
 836 1364 l 1,4,-1
 672 1472 l 1,5,-1
 662 1472 l 1,6,-1
 522 1361 l 1,7,-1
 484 1392 l 1,0,-1
283 676 m 0,8,9
 283 377 283 377 419.5 204.5 c 0,10,11
 518.809 79 518.809 79 686 79 c 0,12,13
 931.909 79 931.909 79 1017 295 c 0,14,15
 1062 409.231 1062 409.231 1062 535.115 c 128,-1,16
 1062 661 1062 661 1048 745 c 128,-1,17
 1034 829 1034 829 1002 907.5 c 128,-1,18
 970 986 970 986 924.5 1045.5 c 0,19,20
 824.706 1176 824.706 1176 658 1176 c 0,21,22
 283 1176 283 1176 283 676 c 0,8,9
61 619 m 0,23,24
 61 911 61 911 236 1091.5 c 128,-1,25
 411 1272 411 1272 706 1272 c 0,26,27
 838 1272 838 1272 948.5 1219.5 c 128,-1,28
 1059 1167 1059 1167 1131.5 1077 c 0,29,30
 1284 887.69 1284 887.69 1284 619 c 0,31,32
 1284 352.186 1284 352.186 1116.5 167 c 0,33,34
 1036 78 1036 78 911.5 25.5 c 128,-1,35
 787 -27 787 -27 627 -27 c 128,-1,36
 467 -27 467 -27 335 59 c 128,-1,37
 203 145 203 145 132 292 c 128,-1,38
 61 439 61 439 61 619 c 0,23,24
EndSplineSet
Validated: 543745
Colour: ffffff
EndChar

StartChar: Odieresis
Encoding: 214 214 72
Width: 1342
VWidth: 0
Flags: W
HStem: -27 106<511.392 875.782> 1176 96<469.619 828.61> 1373 157<489.814 605.701 756.814 874.67>
VStem: 61 222<378.474 883.017> 463 169<1396.21 1507.31> 730 172<1396.21 1507.31> 1062 222<366.541 863.039>
LayerCount: 2
Fore
SplineSet
755 1395.5 m 128,-1,1
 730 1418 730 1418 730 1452.5 c 128,-1,2
 730 1487 730 1487 756 1508.5 c 128,-1,3
 782 1530 782 1530 815.5 1530 c 128,-1,4
 849 1530 849 1530 875.5 1508 c 128,-1,5
 902 1486 902 1486 902 1452 c 128,-1,6
 902 1418 902 1418 875.5 1395.5 c 128,-1,7
 849 1373 849 1373 814.5 1373 c 128,-1,0
 780 1373 780 1373 755 1395.5 c 128,-1,1
488 1395.5 m 128,-1,9
 463 1418 463 1418 463 1452.5 c 128,-1,10
 463 1487 463 1487 489 1508.5 c 128,-1,11
 515 1530 515 1530 548 1530 c 128,-1,12
 581 1530 581 1530 606.5 1508 c 128,-1,13
 632 1486 632 1486 632 1452 c 128,-1,14
 632 1418 632 1418 606.5 1395.5 c 128,-1,15
 581 1373 581 1373 547 1373 c 128,-1,8
 513 1373 513 1373 488 1395.5 c 128,-1,9
283 676 m 0,16,17
 283 377 283 377 419.5 204.5 c 0,18,19
 518.809 79 518.809 79 686 79 c 0,20,21
 931.909 79 931.909 79 1017 295 c 0,22,23
 1062 409.231 1062 409.231 1062 535.115 c 128,-1,24
 1062 661 1062 661 1048 745 c 128,-1,25
 1034 829 1034 829 1002 907.5 c 128,-1,26
 970 986 970 986 924.5 1045.5 c 0,27,28
 824.706 1176 824.706 1176 658 1176 c 0,29,30
 283 1176 283 1176 283 676 c 0,16,17
61 619 m 0,31,32
 61 911 61 911 236 1091.5 c 128,-1,33
 411 1272 411 1272 706 1272 c 0,34,35
 838 1272 838 1272 948.5 1219.5 c 128,-1,36
 1059 1167 1059 1167 1131.5 1077 c 0,37,38
 1284 887.69 1284 887.69 1284 619 c 0,39,40
 1284 352.186 1284 352.186 1116.5 167 c 0,41,42
 1036 78 1036 78 911.5 25.5 c 128,-1,43
 787 -27 787 -27 627 -27 c 128,-1,44
 467 -27 467 -27 335 59 c 128,-1,45
 203 145 203 145 132 292 c 128,-1,46
 61 439 61 439 61 619 c 0,31,32
EndSplineSet
Validated: 543745
Colour: ffffff
EndChar

StartChar: Ograve
Encoding: 210 210 73
Width: 1342
VWidth: 0
Flags: W
HStem: -27 106<511.392 875.782> 1176 96<469.619 828.61>
VStem: 61 222<378.474 883.017> 1062 222<366.541 863.039>
LayerCount: 2
Fore
SplineSet
527 1664 m 1,0,-1
 642 1702 l 1,1,-1
 774 1368 l 1,2,-1
 717 1334 l 1,3,-1
 527 1664 l 1,0,-1
283 676 m 0,4,5
 283 377 283 377 419.5 204.5 c 0,6,7
 518.809 79 518.809 79 686 79 c 0,8,9
 931.909 79 931.909 79 1017 295 c 0,10,11
 1062 409.231 1062 409.231 1062 535.115 c 128,-1,12
 1062 661 1062 661 1048 745 c 128,-1,13
 1034 829 1034 829 1002 907.5 c 128,-1,14
 970 986 970 986 924.5 1045.5 c 0,15,16
 824.706 1176 824.706 1176 658 1176 c 0,17,18
 283 1176 283 1176 283 676 c 0,4,5
61 619 m 0,19,20
 61 911 61 911 236 1091.5 c 128,-1,21
 411 1272 411 1272 706 1272 c 0,22,23
 838 1272 838 1272 948.5 1219.5 c 128,-1,24
 1059 1167 1059 1167 1131.5 1077 c 0,25,26
 1284 887.69 1284 887.69 1284 619 c 0,27,28
 1284 352.186 1284 352.186 1116.5 167 c 0,29,30
 1036 78 1036 78 911.5 25.5 c 128,-1,31
 787 -27 787 -27 627 -27 c 128,-1,32
 467 -27 467 -27 335 59 c 128,-1,33
 203 145 203 145 132 292 c 128,-1,34
 61 439 61 439 61 619 c 0,19,20
EndSplineSet
Validated: 543745
Colour: ffffff
EndChar

StartChar: Ohungarumlaut
Encoding: 336 336 74
Width: 1342
VWidth: 0
Flags: W
HStem: -27 106<511.392 875.782> 1176 96<469.619 828.61>
VStem: 61 222<378.474 883.017> 1062 222<366.541 863.039>
LayerCount: 2
Fore
SplineSet
717 1413 m 1,0,-1
 964 1613 l 1,1,-1
 1035 1530 l 1,2,-1
 744 1364 l 1,3,-1
 717 1413 l 1,0,-1
506 1413 m 1,4,-1
 760 1621 l 1,5,-1
 833 1535 l 1,6,-1
 534 1364 l 1,7,-1
 506 1413 l 1,4,-1
283 676 m 0,8,9
 283 377 283 377 419.5 204.5 c 0,10,11
 518.809 79 518.809 79 686 79 c 0,12,13
 931.909 79 931.909 79 1017 295 c 0,14,15
 1062 409.231 1062 409.231 1062 535.115 c 128,-1,16
 1062 661 1062 661 1048 745 c 128,-1,17
 1034 829 1034 829 1002 907.5 c 128,-1,18
 970 986 970 986 924.5 1045.5 c 0,19,20
 824.706 1176 824.706 1176 658 1176 c 0,21,22
 283 1176 283 1176 283 676 c 0,8,9
61 619 m 0,23,24
 61 911 61 911 236 1091.5 c 128,-1,25
 411 1272 411 1272 706 1272 c 0,26,27
 838 1272 838 1272 948.5 1219.5 c 128,-1,28
 1059 1167 1059 1167 1131.5 1077 c 0,29,30
 1284 887.69 1284 887.69 1284 619 c 0,31,32
 1284 352.186 1284 352.186 1116.5 167 c 0,33,34
 1036 78 1036 78 911.5 25.5 c 128,-1,35
 787 -27 787 -27 627 -27 c 128,-1,36
 467 -27 467 -27 335 59 c 128,-1,37
 203 145 203 145 132 292 c 128,-1,38
 61 439 61 439 61 619 c 0,23,24
EndSplineSet
Validated: 543745
Colour: ffffff
EndChar

StartChar: Omacron
Encoding: 332 332 75
Width: 1342
VWidth: 0
Flags: W
HStem: -27 106<511.392 875.782> 1176 96<469.619 828.61> 1383 101<470 897>
VStem: 61 222<378.474 883.017> 1062 222<366.541 863.039>
LayerCount: 2
Fore
SplineSet
457 1383 m 1,0,-1
 470 1484 l 1,1,-1
 910 1484 l 1,2,-1
 897 1383 l 1,3,-1
 457 1383 l 1,0,-1
283 676 m 0,4,5
 283 377 283 377 419.5 204.5 c 0,6,7
 518.809 79 518.809 79 686 79 c 0,8,9
 931.909 79 931.909 79 1017 295 c 0,10,11
 1062 409.231 1062 409.231 1062 535.115 c 128,-1,12
 1062 661 1062 661 1048 745 c 128,-1,13
 1034 829 1034 829 1002 907.5 c 128,-1,14
 970 986 970 986 924.5 1045.5 c 0,15,16
 824.706 1176 824.706 1176 658 1176 c 0,17,18
 283 1176 283 1176 283 676 c 0,4,5
61 619 m 0,19,20
 61 911 61 911 236 1091.5 c 128,-1,21
 411 1272 411 1272 706 1272 c 0,22,23
 838 1272 838 1272 948.5 1219.5 c 128,-1,24
 1059 1167 1059 1167 1131.5 1077 c 0,25,26
 1284 887.69 1284 887.69 1284 619 c 0,27,28
 1284 352.186 1284 352.186 1116.5 167 c 0,29,30
 1036 78 1036 78 911.5 25.5 c 128,-1,31
 787 -27 787 -27 627 -27 c 128,-1,32
 467 -27 467 -27 335 59 c 128,-1,33
 203 145 203 145 132 292 c 128,-1,34
 61 439 61 439 61 619 c 0,19,20
EndSplineSet
Validated: 543745
Colour: ffffff
EndChar

StartChar: Oslash
Encoding: 216 216 76
Width: 1342
VWidth: 0
Flags: W
HStem: -27 106<524.984 886.426> 1176 96<481.619 837.797>
VStem: 73 222<375.49 883.017> 1073 223<369.127 868.019>
DStem2: 427 210 484 152 0.473914 0.880571<-299.382 -167.422 0 964.709>
LayerCount: 2
Fore
SplineSet
73 619 m 0,0,1
 73 911 73 911 248 1091.5 c 128,-1,2
 423 1272 423 1272 718 1272 c 0,3,4
 839 1272 839 1272 943 1227 c 1,5,-1
 984 1304 l 1,6,-1
 1136 1312 l 1,7,-1
 1054 1162 l 1,8,9
 1169 1073 1169 1073 1232.5 930 c 128,-1,10
 1296 787 1296 787 1296 638 c 128,-1,11
 1296 489 1296 489 1252.5 372.5 c 128,-1,12
 1209 256 1209 256 1129 167 c 128,-1,13
 1049 78 1049 78 924.5 25.5 c 128,-1,14
 800 -27 800 -27 667.5 -27 c 128,-1,15
 535 -27 535 -27 437 13 c 1,16,-1
 375 -102 l 1,17,-1
 228 -111 l 1,18,-1
 327 73 l 1,19,20
 207 159 207 159 140 302.5 c 128,-1,21
 73 446 73 446 73 619 c 0,0,1
952 1023 m 1,22,-1
 484 152 l 1,23,24
 574 79 574 79 680 79 c 128,-1,25
 786 79 786 79 853.5 107.5 c 128,-1,26
 921 136 921 136 961.5 182.5 c 128,-1,27
 1002 229 1002 229 1028 295 c 0,28,29
 1073 409.231 1073 409.231 1073 554.115 c 0,30,31
 1073 849.567 1073 849.567 952 1023 c 1,22,-1
897 1087 m 1,32,33
 802 1176 802 1176 670 1176 c 0,34,35
 295 1176 295 1176 295 676 c 0,36,37
 295 378 295 378 427 210 c 1,38,-1
 897 1087 l 1,32,33
EndSplineSet
Validated: 543745
Colour: ffffff
EndChar

StartChar: Otilde
Encoding: 213 213 77
Width: 1342
VWidth: 0
Flags: W
HStem: -27 106<511.392 875.782> 1176 96<469.619 828.61> 1391 105<697.958 862.519> 1423 103<492.597 650.589>
VStem: 61 222<378.474 883.017> 1062 222<366.541 863.039>
LayerCount: 2
Fore
SplineSet
546 1423 m 2,0,1
 520.25 1423 520.25 1423 485 1376 c 1,2,-1
 448 1383 l 1,3,4
 455.357 1427.14 455.357 1427.14 477.679 1461.07 c 0,5,6
 520.395 1526 520.395 1526 568 1526 c 2,7,-1
 581 1526 l 1,8,-1
 805 1496 l 1,9,-1
 810 1496 l 2,10,11
 832 1496 832 1496 866 1536 c 1,12,-1
 913 1535 l 1,13,14
 865 1391 865 1391 783 1391 c 0,15,16
 775 1391 775 1391 771 1392 c 2,17,-1
 547 1423 l 1,18,-1
 546 1423 l 2,0,1
283 676 m 0,19,20
 283 377 283 377 419.5 204.5 c 0,21,22
 518.809 79 518.809 79 686 79 c 0,23,24
 931.909 79 931.909 79 1017 295 c 0,25,26
 1062 409.231 1062 409.231 1062 535.115 c 128,-1,27
 1062 661 1062 661 1048 745 c 128,-1,28
 1034 829 1034 829 1002 907.5 c 128,-1,29
 970 986 970 986 924.5 1045.5 c 0,30,31
 824.706 1176 824.706 1176 658 1176 c 0,32,33
 283 1176 283 1176 283 676 c 0,19,20
61 619 m 0,34,35
 61 911 61 911 236 1091.5 c 128,-1,36
 411 1272 411 1272 706 1272 c 0,37,38
 838 1272 838 1272 948.5 1219.5 c 128,-1,39
 1059 1167 1059 1167 1131.5 1077 c 0,40,41
 1284 887.69 1284 887.69 1284 619 c 0,42,43
 1284 352.186 1284 352.186 1116.5 167 c 0,44,45
 1036 78 1036 78 911.5 25.5 c 128,-1,46
 787 -27 787 -27 627 -27 c 128,-1,47
 467 -27 467 -27 335 59 c 128,-1,48
 203 145 203 145 132 292 c 128,-1,49
 61 439 61 439 61 619 c 0,34,35
EndSplineSet
Validated: 543745
Colour: ffffff
EndChar

StartChar: P
Encoding: 80 80 78
Width: 1078
VWidth: 0
Flags: W
HStem: 0 74<61 111.939 586.216 643> 497 83<484 705.249> 1134 77<67 138.715> 1172 83<420.461 700.651>
VStem: 228 192<122 1104> 838 207<719.57 1034.77>
LayerCount: 2
Fore
SplineSet
50 0 m 1,0,-1
 61 74 l 1,1,-1
 228 121 l 1,2,-1
 228 1104 l 1,3,-1
 57 1134 l 1,4,-1
 67 1211 l 1,5,6
 366 1255 366 1255 543 1255 c 0,7,8
 1045 1255 1045 1255 1045 892 c 0,9,10
 1045 805 1045 805 1007 730 c 128,-1,11
 969 655 969 655 905.5 604 c 0,12,13
 768.539 494 768.539 494 584 494 c 0,14,15
 577 494 577 494 484 497 c 1,16,-1
 466 580 l 1,17,-1
 519 581 l 1,18,19
 838 590 838 590 838 856 c 0,20,21
 838 995 838 995 760.5 1083.5 c 128,-1,22
 683 1172 683 1172 522 1172 c 1,23,-1
 420 1166 l 1,24,-1
 420 122 l 1,25,-1
 657 83 l 1,26,-1
 643 0 l 1,27,-1
 50 0 l 1,0,-1
EndSplineSet
Validated: 543777
Colour: ffffff
EndChar

StartChar: Q
Encoding: 81 81 79
Width: 1357
VWidth: 0
Flags: W
HStem: -385 110<1064.91 1238.8> -27 21G<553.5 660.5> 1168 104<472.928 827.568>
VStem: 61 202<412.041 868.021> 1092 207<382.919 826.534>
LayerCount: 2
Fore
SplineSet
263 679 m 0,0,1
 263 550.721 263 550.721 294.5 450.36 c 128,-1,2
 326 350 326 350 364 290.5 c 128,-1,3
 402 231 402 231 453.5 182 c 0,4,5
 563.788 77.0659 563.788 77.0659 749 67 c 1,6,7
 1037.34 139.996 1037.34 139.996 1082.5 430 c 0,8,9
 1092 491 1092 491 1092 582.5 c 128,-1,10
 1092 674 1092 674 1061.5 781.5 c 128,-1,11
 1031 889 1031 889 977.5 975.5 c 128,-1,12
 924 1062 924 1062 842 1115 c 128,-1,13
 760 1168 760 1168 664 1168 c 0,14,15
 475 1168 475 1168 369 1039.5 c 128,-1,16
 263 911 263 911 263 679 c 0,0,1
132.5 283.5 m 128,-1,18
 61 428 61 428 61 614 c 128,-1,19
 61 800 61 800 142.5 950.5 c 128,-1,20
 224 1101 224 1101 375 1186.5 c 128,-1,21
 526 1272 526 1272 710.5 1272 c 128,-1,22
 895 1272 895 1272 1028 1184 c 128,-1,23
 1161 1096 1161 1096 1230 951 c 128,-1,24
 1299 806 1299 806 1299 643.5 c 128,-1,25
 1299 481 1299 481 1243 351 c 128,-1,26
 1187 221 1187 221 1076.5 125.5 c 128,-1,27
 966 30 966 30 818 -6 c 1,28,29
 890.731 -172.675 890.731 -172.675 1070.5 -233 c 0,30,31
 1145 -258 1145 -258 1250 -275 c 1,32,33
 1250 -324 1250 -324 1241 -351 c 1,34,35
 1171 -385 1171 -385 1065 -385 c 0,36,37
 924 -385 924 -385 820 -286 c 128,-1,38
 716 -187 716 -187 703 -21 c 1,39,40
 683 -27 683 -27 638 -27 c 0,41,42
 469 -27 469 -27 336.5 56 c 128,-1,17
 204 139 204 139 132.5 283.5 c 128,-1,18
EndSplineSet
Validated: 543745
Colour: ffffff
EndChar

StartChar: R
Encoding: 82 82 80
Width: 1208
VWidth: 0
Flags: W
HStem: -21 21G<1053.5 1140.5> 0 74<61 111.939 556.17 598> 537 91<420 594> 1130 77<67 138.715> 1169 84<420.812 697.945>
VStem: 228 192<126 537 628 1100> 818 207<790.552 1052.5>
LayerCount: 2
Fore
SplineSet
420 628 m 1,0,-1
 618 628 l 1,1,2
 702 656 702 656 760 722 c 128,-1,3
 818 788 818 788 818 900.5 c 128,-1,4
 818 1013 818 1013 744 1091 c 128,-1,5
 670 1169 670 1169 540 1169 c 1,6,-1
 420 1164 l 1,7,-1
 420 628 l 1,0,-1
50 0 m 1,8,-1
 61 74 l 1,9,-1
 228 121 l 1,10,-1
 228 1100 l 1,11,-1
 57 1130 l 1,12,-1
 67 1207 l 1,13,14
 361 1253 361 1253 500 1253 c 128,-1,15
 639 1253 639 1253 727.5 1237 c 128,-1,16
 816 1221 816 1221 884.5 1185.5 c 0,17,18
 1025 1112.69 1025 1112.69 1025 943 c 0,19,20
 1025 841 1025 841 949 744 c 128,-1,21
 873 647 873 647 738 599 c 1,22,-1
 738 598 l 1,23,24
 975.363 269.648 975.363 269.648 999.181 238.824 c 128,-1,25
 1023 208 1023 208 1060 169 c 0,26,27
 1121.42 104.265 1121.42 104.265 1211 77 c 2,28,-1
 1244 67 l 1,29,-1
 1229 -1 l 1,30,31
 1172 -21 1172 -21 1109 -21 c 0,32,33
 998 -21 998 -21 911.5 51.5 c 128,-1,34
 825 124 825 124 753 253 c 2,35,-1
 594 537 l 1,36,-1
 420 537 l 1,37,-1
 420 126 l 1,38,-1
 608 83 l 1,39,-1
 598 0 l 1,40,-1
 50 0 l 1,8,-1
EndSplineSet
Validated: 543745
Colour: ffffff
EndChar

StartChar: Racute
Encoding: 340 340 81
Width: 1208
VWidth: 0
Flags: W
HStem: -21 21G<1053.5 1140.5> 0 74<61 111.939 556.17 598> 537 91<420 594> 1130 77<67 138.715> 1169 84<420.812 697.945>
VStem: 228 192<126 537 628 1100> 818 207<790.552 1052.5>
LayerCount: 2
Fore
SplineSet
506 1385 m 1,0,-1
 628 1710 l 1,1,-1
 740 1670 l 1,2,-1
 556 1354 l 1,3,-1
 506 1385 l 1,0,-1
420 628 m 1,4,-1
 618 628 l 1,5,6
 702 656 702 656 760 722 c 128,-1,7
 818 788 818 788 818 900.5 c 128,-1,8
 818 1013 818 1013 744 1091 c 128,-1,9
 670 1169 670 1169 540 1169 c 1,10,-1
 420 1164 l 1,11,-1
 420 628 l 1,4,-1
50 0 m 1,12,-1
 61 74 l 1,13,-1
 228 121 l 1,14,-1
 228 1100 l 1,15,-1
 57 1130 l 1,16,-1
 67 1207 l 1,17,18
 361 1253 361 1253 500 1253 c 128,-1,19
 639 1253 639 1253 727.5 1237 c 128,-1,20
 816 1221 816 1221 884.5 1185.5 c 0,21,22
 1025 1112.69 1025 1112.69 1025 943 c 0,23,24
 1025 841 1025 841 949 744 c 128,-1,25
 873 647 873 647 738 599 c 1,26,-1
 738 598 l 1,27,28
 975.363 269.648 975.363 269.648 999.181 238.824 c 128,-1,29
 1023 208 1023 208 1060 169 c 0,30,31
 1121.42 104.265 1121.42 104.265 1211 77 c 2,32,-1
 1244 67 l 1,33,-1
 1229 -1 l 1,34,35
 1172 -21 1172 -21 1109 -21 c 0,36,37
 998 -21 998 -21 911.5 51.5 c 128,-1,38
 825 124 825 124 753 253 c 2,39,-1
 594 537 l 1,40,-1
 420 537 l 1,41,-1
 420 126 l 1,42,-1
 608 83 l 1,43,-1
 598 0 l 1,44,-1
 50 0 l 1,12,-1
EndSplineSet
Validated: 543745
Colour: ffffff
EndChar

StartChar: Rcaron
Encoding: 344 344 82
Width: 1208
VWidth: 0
Flags: W
HStem: -21 21G<1053.5 1140.5> 0 74<61 111.939 556.17 598> 537 91<420 594> 1130 77<67 138.715> 1169 84<420.812 697.945>
VStem: 228 192<126 537 628 1100> 818 207<790.552 1052.5>
DStem2: 454 1589 374 1527 0.733231 -0.67998<0 207.902> 614 1445 608 1376 0.694953 0.719055<0 186.147>
LayerCount: 2
Fore
SplineSet
420 628 m 1,0,-1
 618 628 l 1,1,2
 702 656 702 656 760 722 c 128,-1,3
 818 788 818 788 818 900.5 c 128,-1,4
 818 1013 818 1013 744 1091 c 128,-1,5
 670 1169 670 1169 540 1169 c 1,6,-1
 420 1164 l 1,7,-1
 420 628 l 1,0,-1
374 1527 m 1,8,-1
 454 1589 l 1,9,-1
 604 1445 l 1,10,-1
 614 1445 l 1,11,-1
 737 1585 l 1,12,-1
 781 1555 l 1,13,-1
 608 1376 l 1,14,-1
 553 1361 l 1,15,-1
 374 1527 l 1,8,-1
50 0 m 1,16,-1
 61 74 l 1,17,-1
 228 121 l 1,18,-1
 228 1100 l 1,19,-1
 57 1130 l 1,20,-1
 67 1207 l 1,21,22
 361 1253 361 1253 500 1253 c 128,-1,23
 639 1253 639 1253 727.5 1237 c 128,-1,24
 816 1221 816 1221 884.5 1185.5 c 0,25,26
 1025 1112.69 1025 1112.69 1025 943 c 0,27,28
 1025 841 1025 841 949 744 c 128,-1,29
 873 647 873 647 738 599 c 1,30,-1
 738 598 l 1,31,32
 975.363 269.648 975.363 269.648 999.181 238.824 c 128,-1,33
 1023 208 1023 208 1060 169 c 0,34,35
 1121.42 104.265 1121.42 104.265 1211 77 c 2,36,-1
 1244 67 l 1,37,-1
 1229 -1 l 1,38,39
 1172 -21 1172 -21 1109 -21 c 0,40,41
 998 -21 998 -21 911.5 51.5 c 128,-1,42
 825 124 825 124 753 253 c 2,43,-1
 594 537 l 1,44,-1
 420 537 l 1,45,-1
 420 126 l 1,46,-1
 608 83 l 1,47,-1
 598 0 l 1,48,-1
 50 0 l 1,16,-1
EndSplineSet
Validated: 543745
Colour: ffffff
EndChar

StartChar: Rcommaaccent
Encoding: 342 342 83
Width: 1208
VWidth: 0
Flags: W
HStem: -21 21G<1053.5 1140.5> 0 74<61 111.939 556.17 598> 537 91<420 594> 1130 77<67 138.715> 1169 84<420.812 697.945>
VStem: 228 192<126 537 628 1100> 731 111<-312.488 -163.75> 818 207<790.552 1052.5>
LayerCount: 2
Fore
SplineSet
639 -337 m 1,0,1
 731 -313 731 -313 731 -246 c 0,2,3
 731 -223 731 -223 701 -196.5 c 128,-1,4
 671 -170 671 -170 652 -168 c 1,5,6
 659 -134 659 -134 683 -109.5 c 128,-1,7
 707 -85 707 -85 742.5 -85 c 128,-1,8
 778 -85 778 -85 810 -114 c 128,-1,9
 842 -143 842 -143 842 -184.5 c 128,-1,10
 842 -226 842 -226 833.5 -250.5 c 128,-1,11
 825 -275 825 -275 805.5 -302.5 c 0,12,13
 761.217 -364.95 761.217 -364.95 657 -389 c 1,14,-1
 639 -337 l 1,0,1
420 628 m 1,15,-1
 618 628 l 1,16,17
 702 656 702 656 760 722 c 128,-1,18
 818 788 818 788 818 900.5 c 128,-1,19
 818 1013 818 1013 744 1091 c 128,-1,20
 670 1169 670 1169 540 1169 c 1,21,-1
 420 1164 l 1,22,-1
 420 628 l 1,15,-1
50 0 m 1,23,-1
 61 74 l 1,24,-1
 228 121 l 1,25,-1
 228 1100 l 1,26,-1
 57 1130 l 1,27,-1
 67 1207 l 1,28,29
 361 1253 361 1253 500 1253 c 128,-1,30
 639 1253 639 1253 727.5 1237 c 128,-1,31
 816 1221 816 1221 884.5 1185.5 c 0,32,33
 1025 1112.69 1025 1112.69 1025 943 c 0,34,35
 1025 841 1025 841 949 744 c 128,-1,36
 873 647 873 647 738 599 c 1,37,-1
 738 598 l 1,38,39
 975.363 269.648 975.363 269.648 999.181 238.824 c 128,-1,40
 1023 208 1023 208 1060 169 c 0,41,42
 1121.42 104.265 1121.42 104.265 1211 77 c 2,43,-1
 1244 67 l 1,44,-1
 1229 -1 l 1,45,46
 1172 -21 1172 -21 1109 -21 c 0,47,48
 998 -21 998 -21 911.5 51.5 c 128,-1,49
 825 124 825 124 753 253 c 2,50,-1
 594 537 l 1,51,-1
 420 537 l 1,52,-1
 420 126 l 1,53,-1
 608 83 l 1,54,-1
 598 0 l 1,55,-1
 50 0 l 1,23,-1
EndSplineSet
Validated: 543745
Colour: ffffff
EndChar

StartChar: S
Encoding: 83 83 84
Width: 900
VWidth: 0
Flags: W
HStem: -24 101<284.393 577.56> 887 21G<640 740.56> 1185 84<322.982 563.125>
VStem: 79 102<305.893 375> 90 173<873.912 1086.91> 640 99<899 1008.53> 663 184<185.392 399.408>
DStem2: 378.5 807.5 315 594.5 0.849934 -0.526889<-143.136 485.062>
LayerCount: 2
Fore
SplineSet
66 122 m 1,0,-1
 79 389 l 1,1,-1
 181 375 l 1,2,-1
 220 187 l 1,3,4
 249 141 249 141 304.5 109 c 128,-1,5
 360 77 360 77 421.5 77 c 128,-1,6
 483 77 483 77 534.5 97.5 c 128,-1,7
 586 118 586 118 624.5 167.5 c 128,-1,8
 663 217 663 217 663 278 c 128,-1,9
 663 339 663 339 631.5 383.5 c 128,-1,10
 600 428 600 428 549.5 461 c 128,-1,11
 499 494 499 494 437.5 526 c 128,-1,12
 376 558 376 558 315 594.5 c 128,-1,13
 254 631 254 631 203.5 673.5 c 0,14,15
 90 769.02 90 769.02 90 916 c 0,16,17
 90 1025 90 1025 147 1107 c 0,18,19
 259.61 1269 259.61 1269 479 1269 c 0,20,21
 641 1269 641 1269 761 1169 c 1,22,-1
 739 887 l 1,23,-1
 640 899 l 1,24,-1
 615 1090 l 1,25,26
 599 1122 599 1122 549.5 1153.5 c 128,-1,27
 500 1185 500 1185 432.5 1185 c 128,-1,28
 365 1185 365 1185 314 1137 c 128,-1,29
 263 1089 263 1089 263 1013 c 128,-1,30
 263 937 263 937 295 889.5 c 128,-1,31
 327 842 327 842 378.5 807.5 c 128,-1,32
 430 773 430 773 492.5 741 c 128,-1,33
 555 709 555 709 617.5 673 c 128,-1,34
 680 637 680 637 731.5 595.5 c 0,35,36
 847 502.427 847 502.427 847 354 c 0,37,38
 847 243 847 243 783 155 c 128,-1,39
 719 67 719 67 618 21.5 c 128,-1,40
 517 -24 517 -24 407.5 -24 c 128,-1,41
 298 -24 298 -24 207.5 17.5 c 128,-1,42
 117 59 117 59 66 122 c 1,0,-1
EndSplineSet
Validated: 543745
Colour: ffffff
EndChar

StartChar: Sacute
Encoding: 346 346 85
Width: 900
VWidth: 0
Flags: W
HStem: -24 101<284.393 577.56> 887 21G<640 740.56> 1185 84<322.982 563.125>
VStem: 79 102<305.893 375> 90 173<873.912 1086.91> 640 99<899 1008.53> 663 184<185.392 399.408>
DStem2: 378.5 807.5 315 594.5 0.849934 -0.526889<-143.136 485.062>
LayerCount: 2
Fore
SplineSet
386 1383 m 1,0,-1
 509 1709 l 1,1,-1
 621 1670 l 1,2,-1
 438 1351 l 1,3,-1
 386 1383 l 1,0,-1
66 122 m 1,4,-1
 79 389 l 1,5,-1
 181 375 l 1,6,-1
 220 187 l 1,7,8
 249 141 249 141 304.5 109 c 128,-1,9
 360 77 360 77 421.5 77 c 128,-1,10
 483 77 483 77 534.5 97.5 c 128,-1,11
 586 118 586 118 624.5 167.5 c 128,-1,12
 663 217 663 217 663 278 c 128,-1,13
 663 339 663 339 631.5 383.5 c 128,-1,14
 600 428 600 428 549.5 461 c 128,-1,15
 499 494 499 494 437.5 526 c 128,-1,16
 376 558 376 558 315 594.5 c 128,-1,17
 254 631 254 631 203.5 673.5 c 0,18,19
 90 769.02 90 769.02 90 916 c 0,20,21
 90 1025 90 1025 147 1107 c 0,22,23
 259.61 1269 259.61 1269 479 1269 c 0,24,25
 641 1269 641 1269 761 1169 c 1,26,-1
 739 887 l 1,27,-1
 640 899 l 1,28,-1
 615 1090 l 1,29,30
 599 1122 599 1122 549.5 1153.5 c 128,-1,31
 500 1185 500 1185 432.5 1185 c 128,-1,32
 365 1185 365 1185 314 1137 c 128,-1,33
 263 1089 263 1089 263 1013 c 128,-1,34
 263 937 263 937 295 889.5 c 128,-1,35
 327 842 327 842 378.5 807.5 c 128,-1,36
 430 773 430 773 492.5 741 c 128,-1,37
 555 709 555 709 617.5 673 c 128,-1,38
 680 637 680 637 731.5 595.5 c 0,39,40
 847 502.427 847 502.427 847 354 c 0,41,42
 847 243 847 243 783 155 c 128,-1,43
 719 67 719 67 618 21.5 c 128,-1,44
 517 -24 517 -24 407.5 -24 c 128,-1,45
 298 -24 298 -24 207.5 17.5 c 128,-1,46
 117 59 117 59 66 122 c 1,4,-1
EndSplineSet
Validated: 543745
Colour: ffffff
EndChar

StartChar: Scaron
Encoding: 352 352 86
Width: 900
VWidth: 0
Flags: W
HStem: -24 101<284.393 577.56> 887 21G<640 740.56> 1185 84<322.982 563.125>
VStem: 79 102<305.893 375> 90 173<873.912 1086.91> 640 99<899 1008.53> 663 184<185.392 399.408>
DStem2: 335 1587 255 1526 0.733231 -0.67998<0 207.168> 378.5 807.5 315 594.5 0.849934 -0.526889<-143.136 485.062> 494 1443 489 1373 0.690858 0.722991<0 187.608>
LayerCount: 2
Fore
SplineSet
255 1526 m 1,0,-1
 335 1587 l 1,1,-1
 484 1443 l 1,2,-1
 494 1443 l 1,3,-1
 618 1584 l 1,4,-1
 661 1553 l 1,5,-1
 489 1373 l 1,6,-1
 434 1360 l 1,7,-1
 255 1526 l 1,0,-1
66 122 m 1,8,-1
 79 389 l 1,9,-1
 181 375 l 1,10,-1
 220 187 l 1,11,12
 249 141 249 141 304.5 109 c 128,-1,13
 360 77 360 77 421.5 77 c 128,-1,14
 483 77 483 77 534.5 97.5 c 128,-1,15
 586 118 586 118 624.5 167.5 c 128,-1,16
 663 217 663 217 663 278 c 128,-1,17
 663 339 663 339 631.5 383.5 c 128,-1,18
 600 428 600 428 549.5 461 c 128,-1,19
 499 494 499 494 437.5 526 c 128,-1,20
 376 558 376 558 315 594.5 c 128,-1,21
 254 631 254 631 203.5 673.5 c 0,22,23
 90 769.02 90 769.02 90 916 c 0,24,25
 90 1025 90 1025 147 1107 c 0,26,27
 259.61 1269 259.61 1269 479 1269 c 0,28,29
 641 1269 641 1269 761 1169 c 1,30,-1
 739 887 l 1,31,-1
 640 899 l 1,32,-1
 615 1090 l 1,33,34
 599 1122 599 1122 549.5 1153.5 c 128,-1,35
 500 1185 500 1185 432.5 1185 c 128,-1,36
 365 1185 365 1185 314 1137 c 128,-1,37
 263 1089 263 1089 263 1013 c 128,-1,38
 263 937 263 937 295 889.5 c 128,-1,39
 327 842 327 842 378.5 807.5 c 128,-1,40
 430 773 430 773 492.5 741 c 128,-1,41
 555 709 555 709 617.5 673 c 128,-1,42
 680 637 680 637 731.5 595.5 c 0,43,44
 847 502.427 847 502.427 847 354 c 0,45,46
 847 243 847 243 783 155 c 128,-1,47
 719 67 719 67 618 21.5 c 128,-1,48
 517 -24 517 -24 407.5 -24 c 128,-1,49
 298 -24 298 -24 207.5 17.5 c 128,-1,50
 117 59 117 59 66 122 c 1,8,-1
EndSplineSet
Validated: 543745
Colour: ffffff
EndChar

StartChar: Scedilla
Encoding: 350 350 87
Width: 903
VWidth: 0
Flags: W
HStem: -389 58<336.057 371.029> -24 101<285.949 412> 887 21G<642 742.631> 1185 84<324.479 564.942>
VStem: 80 104<302.158 375> 92 172<874.555 1088.82> 408 133<-311.344 -168.035> 642 99<899 1004.31> 666 183<183.037 400.853>
DStem2: 380.5 807.5 318 594.5 0.877106 -0.480296<-132.375 446.179>
LayerCount: 2
Fore
SplineSet
67 122 m 1,0,-1
 80 389 l 1,1,-1
 184 375 l 1,2,-1
 221 187 l 1,3,4
 250 141 250 141 306 109 c 128,-1,5
 362 77 362 77 415.5 77 c 128,-1,6
 469 77 469 77 509.5 89.5 c 128,-1,7
 550 102 550 102 586 126 c 0,8,9
 666 179.333 666 179.333 666 287 c 0,10,11
 666 387.235 666 387.235 552 461 c 0,12,13
 501 494 501 494 440 526 c 128,-1,14
 379 558 379 558 318 594.5 c 128,-1,15
 257 631 257 631 206 673.5 c 0,16,17
 92 768.5 92 768.5 92 916 c 0,18,19
 92 1025 92 1025 148.5 1107 c 0,20,21
 260.122 1269 260.122 1269 480 1269 c 0,22,23
 644 1269 644 1269 764 1169 c 1,24,-1
 741 887 l 1,25,-1
 642 899 l 1,26,-1
 616 1090 l 1,27,28
 600 1122 600 1122 551.5 1153.5 c 128,-1,29
 503 1185 503 1185 435.5 1185 c 128,-1,30
 368 1185 368 1185 316 1136.5 c 128,-1,31
 264 1088 264 1088 264 1012.5 c 128,-1,32
 264 937 264 937 296.5 889.5 c 128,-1,33
 329 842 329 842 380.5 807.5 c 128,-1,34
 432 773 432 773 494 741 c 128,-1,35
 556 709 556 709 618.5 673 c 128,-1,36
 681 637 681 637 732.5 595.5 c 0,37,38
 849 501.621 849 501.621 849 355.311 c 128,-1,39
 849 209 849 209 746 108.5 c 128,-1,40
 643 8 643 8 492 -18 c 1,41,-1
 452 -76 l 1,42,43
 541 -155 541 -155 541 -227 c 0,44,45
 541 -330 541 -330 341 -389 c 1,46,-1
 321 -331 l 1,47,48
 362 -317 362 -317 385 -294.5 c 128,-1,49
 408 -272 408 -272 408 -240 c 128,-1,50
 408 -208 408 -208 334 -138 c 1,51,-1
 412 -24 l 1,52,-1
 405 -24 l 2,53,54
 301 -24 301 -24 209.5 18 c 128,-1,55
 118 60 118 60 67 122 c 1,0,-1
EndSplineSet
Validated: 543745
Colour: ffffff
EndChar

StartChar: Scommaaccent
Encoding: 536 536 88
Width: 900
VWidth: 0
Flags: W
HStem: -24 101<284.393 577.56> 887 21G<640 740.56> 1185 84<322.982 563.125>
VStem: 79 102<305.893 375> 90 173<873.912 1086.91> 423 109<-309.018 -159.75> 640 99<899 1008.53> 663 184<185.392 399.408>
DStem2: 378.5 807.5 315 594.5 0.849934 -0.526889<-143.136 485.062>
LayerCount: 2
Fore
SplineSet
329 -332 m 1,0,1
 423 -308 423 -308 423 -243 c 0,2,3
 423 -220 423 -220 392 -193 c 128,-1,4
 361 -166 361 -166 342 -164 c 1,5,6
 349 -129 349 -129 373.5 -104.5 c 128,-1,7
 398 -80 398 -80 433 -80 c 128,-1,8
 468 -80 468 -80 500 -109.5 c 128,-1,9
 532 -139 532 -139 532 -180.5 c 128,-1,10
 532 -222 532 -222 523.5 -246.5 c 128,-1,11
 515 -271 515 -271 495.5 -299 c 0,12,13
 451.745 -361.828 451.745 -361.828 347 -386 c 1,14,-1
 329 -332 l 1,0,1
66 122 m 1,15,-1
 79 389 l 1,16,-1
 181 375 l 1,17,-1
 220 187 l 1,18,19
 249 141 249 141 304.5 109 c 128,-1,20
 360 77 360 77 421.5 77 c 128,-1,21
 483 77 483 77 534.5 97.5 c 128,-1,22
 586 118 586 118 624.5 167.5 c 128,-1,23
 663 217 663 217 663 278 c 128,-1,24
 663 339 663 339 631.5 383.5 c 128,-1,25
 600 428 600 428 549.5 461 c 128,-1,26
 499 494 499 494 437.5 526 c 128,-1,27
 376 558 376 558 315 594.5 c 128,-1,28
 254 631 254 631 203.5 673.5 c 0,29,30
 90 769.02 90 769.02 90 916 c 0,31,32
 90 1025 90 1025 147 1107 c 0,33,34
 259.61 1269 259.61 1269 479 1269 c 0,35,36
 641 1269 641 1269 761 1169 c 1,37,-1
 739 887 l 1,38,-1
 640 899 l 1,39,-1
 615 1090 l 1,40,41
 599 1122 599 1122 549.5 1153.5 c 128,-1,42
 500 1185 500 1185 432.5 1185 c 128,-1,43
 365 1185 365 1185 314 1137 c 128,-1,44
 263 1089 263 1089 263 1013 c 128,-1,45
 263 937 263 937 295 889.5 c 128,-1,46
 327 842 327 842 378.5 807.5 c 128,-1,47
 430 773 430 773 492.5 741 c 128,-1,48
 555 709 555 709 617.5 673 c 128,-1,49
 680 637 680 637 731.5 595.5 c 0,50,51
 847 502.427 847 502.427 847 354 c 0,52,53
 847 243 847 243 783 155 c 128,-1,54
 719 67 719 67 618 21.5 c 128,-1,55
 517 -24 517 -24 407.5 -24 c 128,-1,56
 298 -24 298 -24 207.5 17.5 c 128,-1,57
 117 59 117 59 66 122 c 1,15,-1
EndSplineSet
Validated: 543745
Colour: ffffff
EndChar

StartChar: T
Encoding: 84 84 89
Width: 1146
VWidth: 0
Flags: W
HStem: 0 80<301 335.361 801.642 833> 1152 92<175 470 662 967>
VStem: 31 91<922 974.729> 470 192<121 1152> 1005 95<921 1008.15>
LayerCount: 2
Fore
SplineSet
23 1244 m 1,0,-1
 1134 1244 l 1,1,-1
 1100 906 l 1,2,-1
 1005 921 l 1,3,-1
 967 1152 l 1,4,-1
 662 1152 l 1,5,-1
 662 114 l 1,6,-1
 847 80 l 1,7,-1
 833 0 l 1,8,-1
 294 0 l 1,9,-1
 301 74 l 1,10,-1
 470 121 l 1,11,-1
 470 1152 l 1,12,-1
 175 1152 l 1,13,-1
 122 909 l 1,14,-1
 31 922 l 1,15,-1
 23 1244 l 1,0,-1
EndSplineSet
Validated: 19457
Colour: ffffff
EndChar

StartChar: Tbar
Encoding: 358 358 90
Width: 1146
VWidth: 0
Flags: W
HStem: 0 80<316 350.361 816.642 848> 1152 92<190 485 677 982> 1379 100<328 757>
VStem: 46 91<922 974.729> 485 192<121 1152> 1020 95<921 1008.15>
LayerCount: 2
Fore
SplineSet
38 1244 m 1,0,-1
 1149 1244 l 1,1,-1
 1115 906 l 1,2,-1
 1020 921 l 1,3,-1
 982 1152 l 1,4,-1
 677 1152 l 1,5,-1
 677 114 l 1,6,-1
 862 80 l 1,7,-1
 848 0 l 1,8,-1
 309 0 l 1,9,-1
 316 74 l 1,10,-1
 485 121 l 1,11,-1
 485 1152 l 1,12,-1
 190 1152 l 1,13,-1
 137 909 l 1,14,-1
 46 922 l 1,15,-1
 38 1244 l 1,0,-1
315 1379 m 1,16,-1
 328 1479 l 1,17,-1
 770 1479 l 1,18,-1
 757 1379 l 1,19,-1
 315 1379 l 1,16,-1
EndSplineSet
Validated: 19457
Colour: ffffff
EndChar

StartChar: Tcaron
Encoding: 356 356 91
Width: 1146
VWidth: 0
Flags: W
HStem: 0 80<301 335.361 801.642 833> 1152 92<175 470 662 967>
VStem: 31 91<922 974.729> 470 192<121 1152> 1005 95<921 1008.15>
DStem2: 428 1589 347 1527 0.735117 -0.677941<0 207.156> 586 1445 581 1376 0.692867 0.721065<0 186.172>
LayerCount: 2
Fore
SplineSet
347 1527 m 1,0,-1
 428 1589 l 1,1,-1
 577 1445 l 1,2,-1
 586 1445 l 1,3,-1
 709 1585 l 1,4,-1
 753 1555 l 1,5,-1
 581 1376 l 1,6,-1
 527 1361 l 1,7,-1
 347 1527 l 1,0,-1
23 1244 m 1,8,-1
 1134 1244 l 1,9,-1
 1100 906 l 1,10,-1
 1005 921 l 1,11,-1
 967 1152 l 1,12,-1
 662 1152 l 1,13,-1
 662 114 l 1,14,-1
 847 80 l 1,15,-1
 833 0 l 1,16,-1
 294 0 l 1,17,-1
 301 74 l 1,18,-1
 470 121 l 1,19,-1
 470 1152 l 1,20,-1
 175 1152 l 1,21,-1
 122 909 l 1,22,-1
 31 922 l 1,23,-1
 23 1244 l 1,8,-1
EndSplineSet
Validated: 19457
Colour: ffffff
EndChar

StartChar: Tcedilla
Encoding: 354 354 92
Width: 1146
VWidth: 0
Flags: W
HStem: -389 58<479.057 513.879> 0 74<301 352.549 780.696 833> 1152 92<175 470 662 967>
VStem: 31 91<922 974.729> 470 192<121 1152> 550 133<-311.888 -166.652> 1005 95<921 1008.15>
LayerCount: 2
Fore
SplineSet
23 1244 m 1,0,-1
 1134 1244 l 1,1,-1
 1100 906 l 1,2,-1
 1005 921 l 1,3,-1
 967 1152 l 1,4,-1
 662 1152 l 1,5,-1
 662 114 l 1,6,-1
 847 80 l 1,7,-1
 833 0 l 1,8,-1
 647 0 l 1,9,-1
 595 -76 l 1,10,11
 683 -154 683 -154 683 -227 c 0,12,13
 683 -331 683 -331 484 -389 c 1,14,-1
 464 -331 l 1,15,16
 505 -317 505 -317 527.5 -294.5 c 128,-1,17
 550 -272 550 -272 550 -239.5 c 128,-1,18
 550 -207 550 -207 477 -138 c 1,19,-1
 572 0 l 1,20,-1
 294 0 l 1,21,-1
 301 74 l 1,22,-1
 470 121 l 1,23,-1
 470 1152 l 1,24,-1
 175 1152 l 1,25,-1
 122 909 l 1,26,-1
 31 922 l 1,27,-1
 23 1244 l 1,0,-1
EndSplineSet
Validated: 19457
Colour: ffffff
EndChar

StartChar: Tcommaaccent
Encoding: 538 538 93
Width: 1149
VWidth: 0
Flags: W
HStem: 0 80<304 338.157 803.397 836> 1152 92<177 472 663 968>
VStem: 33 91<922 974.729> 472 191<121 1152> 544 110<-314.019 -163.891> 1007 93<921 1005.91>
LayerCount: 2
Fore
SplineSet
451 -337 m 1,0,1
 544 -313 544 -313 544 -246 c 0,2,3
 544 -223 544 -223 513.5 -196.5 c 128,-1,4
 483 -170 483 -170 464 -168 c 1,5,6
 471 -134 471 -134 495 -109.5 c 128,-1,7
 519 -85 519 -85 554.5 -85 c 128,-1,8
 590 -85 590 -85 622 -114 c 128,-1,9
 654 -143 654 -143 654 -184.5 c 128,-1,10
 654 -226 654 -226 645.5 -250.5 c 128,-1,11
 637 -275 637 -275 618 -302.5 c 0,12,13
 574.973 -364.775 574.973 -364.775 470 -389 c 1,14,-1
 451 -337 l 1,0,1
24 1244 m 1,15,-1
 1136 1244 l 1,16,-1
 1100 906 l 1,17,-1
 1007 921 l 1,18,-1
 968 1152 l 1,19,-1
 663 1152 l 1,20,-1
 663 114 l 1,21,-1
 849 80 l 1,22,-1
 836 0 l 1,23,-1
 295 0 l 1,24,-1
 304 74 l 1,25,-1
 472 121 l 1,26,-1
 472 1152 l 1,27,-1
 177 1152 l 1,28,-1
 124 909 l 1,29,-1
 33 922 l 1,30,-1
 24 1244 l 1,15,-1
EndSplineSet
Validated: 543745
Colour: ffffff
EndChar

StartChar: Thorn
Encoding: 222 222 94
Width: 1084
VWidth: 0
Flags: W
HStem: -1 74<64 116.358 589.216 647> 266 85<487 602.218> 919 101<423 717.262> 1168 76<61 112.123 529.488 594>
VStem: 232 191<121 919 1020 1126> 841 207<478.106 795.381>
LayerCount: 2
Fore
SplineSet
423 1020 m 1,0,-1
 547 1024 l 1,1,2
 1048 1024 1048 1024 1048 660 c 0,3,4
 1048 544 1048 544 987.5 452 c 128,-1,5
 927 360 927 360 826 310 c 128,-1,6
 725 260 725 260 604 260 c 0,7,8
 547 260 547 260 487 266 c 1,9,-1
 470 351 l 1,10,11
 652 341 652 341 746.5 410 c 128,-1,12
 841 479 841 479 841 619.5 c 128,-1,13
 841 760 841 760 763 843 c 128,-1,14
 685 926 685 926 529 926 c 1,15,-1
 423 919 l 1,16,-1
 423 121 l 1,17,-1
 660 83 l 1,18,-1
 647 -1 l 1,19,-1
 54 -1 l 1,20,-1
 64 73 l 1,21,-1
 232 119 l 1,22,-1
 232 1126 l 1,23,-1
 50 1168 l 1,24,-1
 61 1244 l 1,25,-1
 604 1244 l 1,26,-1
 594 1168 l 1,27,-1
 423 1130 l 1,28,-1
 423 1020 l 1,0,-1
EndSplineSet
Validated: 19489
Colour: ffffff
EndChar

StartChar: U
Encoding: 85 85 95
Width: 1401
VWidth: 0
Flags: W
HStem: -27 132<563.919 927.97> 1168 76<35 84.8053 504.243 568 902 954.464 1306.37 1369>
VStem: 206 193<278.364 1126> 1072 126<259.721 1126>
LayerCount: 2
Fore
SplineSet
22 1168 m 1,0,-1
 35 1244 l 1,1,-1
 577 1244 l 1,2,-1
 568 1168 l 1,3,-1
 399 1130 l 1,4,-1
 399 510 l 2,5,6
 399 304 399 304 492.5 204.5 c 128,-1,7
 586 105 586 105 744.5 105 c 0,8,9
 1070.03 105 1070.03 105 1072 482 c 2,10,-1
 1075 1126 l 1,11,-1
 892 1168 l 1,12,-1
 902 1244 l 1,13,-1
 1380 1244 l 1,14,-1
 1369 1168 l 1,15,-1
 1203 1130 l 1,16,-1
 1198 515 l 2,17,18
 1196 241 1196 241 1075 107 c 128,-1,19
 954 -27 954 -27 697 -27 c 0,20,21
 433.453 -27 433.453 -27 311.5 112 c 0,22,23
 206 232.247 206 232.247 206 469 c 2,24,-1
 206 1126 l 1,25,-1
 22 1168 l 1,0,-1
EndSplineSet
Validated: 543745
Colour: ffffff
EndChar

StartChar: Uacute
Encoding: 218 218 96
Width: 1401
VWidth: 0
Flags: W
HStem: -27 132<578.919 942.97> 1168 76<50 99.8053 519.243 583 917 969.464 1321.37 1384>
VStem: 221 193<278.364 1126> 1087 126<259.721 1126>
LayerCount: 2
Fore
SplineSet
684 1348 m 1,0,-1
 633 1380 l 1,1,-1
 756 1705 l 1,2,-1
 867 1666 l 1,3,-1
 684 1348 l 1,0,-1
37 1168 m 1,4,-1
 50 1244 l 1,5,-1
 592 1244 l 1,6,-1
 583 1168 l 1,7,-1
 414 1130 l 1,8,-1
 414 510 l 2,9,10
 414 304 414 304 507.5 204.5 c 128,-1,11
 601 105 601 105 759.5 105 c 0,12,13
 1085.03 105 1085.03 105 1087 482 c 2,14,-1
 1090 1126 l 1,15,-1
 907 1168 l 1,16,-1
 917 1244 l 1,17,-1
 1395 1244 l 1,18,-1
 1384 1168 l 1,19,-1
 1218 1130 l 1,20,-1
 1213 515 l 2,21,22
 1211 241 1211 241 1090 107 c 128,-1,23
 969 -27 969 -27 712 -27 c 0,24,25
 448.453 -27 448.453 -27 326.5 112 c 0,26,27
 221 232.247 221 232.247 221 469 c 2,28,-1
 221 1126 l 1,29,-1
 37 1168 l 1,4,-1
EndSplineSet
Validated: 543745
Colour: ffffff
EndChar

StartChar: Ucaron
Encoding: 467 467 97
Width: 1401
VWidth: 0
Flags: W
HStem: -27 132<563.919 927.97> 1168 76<35 84.8053 504.243 568 902 954.464 1306.37 1369>
VStem: 206 193<278.364 1126> 1072 126<259.721 1126>
DStem2: 602 1589 521 1527 0.733231 -0.67998<0 207.168> 761 1445 755 1376 0.692867 0.721065<0 186.172>
LayerCount: 2
Fore
SplineSet
521 1527 m 1,0,-1
 602 1589 l 1,1,-1
 751 1445 l 1,2,-1
 761 1445 l 1,3,-1
 884 1585 l 1,4,-1
 927 1555 l 1,5,-1
 755 1376 l 1,6,-1
 700 1361 l 1,7,-1
 521 1527 l 1,0,-1
22 1168 m 1,8,-1
 35 1244 l 1,9,-1
 577 1244 l 1,10,-1
 568 1168 l 1,11,-1
 399 1130 l 1,12,-1
 399 510 l 2,13,14
 399 304 399 304 492.5 204.5 c 128,-1,15
 586 105 586 105 744.5 105 c 0,16,17
 1070.03 105 1070.03 105 1072 482 c 2,18,-1
 1075 1126 l 1,19,-1
 892 1168 l 1,20,-1
 902 1244 l 1,21,-1
 1380 1244 l 1,22,-1
 1369 1168 l 1,23,-1
 1203 1130 l 1,24,-1
 1198 515 l 2,25,26
 1196 241 1196 241 1075 107 c 128,-1,27
 954 -27 954 -27 697 -27 c 0,28,29
 433.453 -27 433.453 -27 311.5 112 c 0,30,31
 206 232.247 206 232.247 206 469 c 2,32,-1
 206 1126 l 1,33,-1
 22 1168 l 1,8,-1
EndSplineSet
Validated: 543745
Colour: ffffff
EndChar

StartChar: Ucircumflex
Encoding: 219 219 98
Width: 1401
VWidth: 0
Flags: W
HStem: -27 132<563.919 927.97> 1168 76<35 84.8053 504.243 568 902 954.464 1306.37 1369>
VStem: 206 193<278.364 1126> 1072 126<259.721 1126>
LayerCount: 2
Fore
SplineSet
537 1392 m 1,0,-1
 704 1572 l 1,1,-1
 759 1585 l 1,2,-1
 937 1400 l 1,3,-1
 887 1364 l 1,4,-1
 724 1472 l 1,5,-1
 713 1472 l 1,6,-1
 574 1361 l 1,7,-1
 537 1392 l 1,0,-1
22 1168 m 1,8,-1
 35 1244 l 1,9,-1
 577 1244 l 1,10,-1
 568 1168 l 1,11,-1
 399 1130 l 1,12,-1
 399 510 l 2,13,14
 399 304 399 304 492.5 204.5 c 128,-1,15
 586 105 586 105 744.5 105 c 0,16,17
 1070.03 105 1070.03 105 1072 482 c 2,18,-1
 1075 1126 l 1,19,-1
 892 1168 l 1,20,-1
 902 1244 l 1,21,-1
 1380 1244 l 1,22,-1
 1369 1168 l 1,23,-1
 1203 1130 l 1,24,-1
 1198 515 l 2,25,26
 1196 241 1196 241 1075 107 c 128,-1,27
 954 -27 954 -27 697 -27 c 0,28,29
 433.453 -27 433.453 -27 311.5 112 c 0,30,31
 206 232.247 206 232.247 206 469 c 2,32,-1
 206 1126 l 1,33,-1
 22 1168 l 1,8,-1
EndSplineSet
Validated: 543745
Colour: ffffff
EndChar

StartChar: Udieresis
Encoding: 220 220 99
Width: 1401
VWidth: 0
Flags: W
HStem: -27 132<563.919 927.97> 1168 76<35 84.8053 504.243 568 902 954.464 1306.37 1369> 1373 157<541.299 657.186 808.814 926.185>
VStem: 206 193<278.364 1126> 515 169<1396.21 1507.31> 782 171<1396.21 1507.82> 1072 126<259.721 1126>
LayerCount: 2
Fore
SplineSet
807 1395.5 m 128,-1,1
 782 1418 782 1418 782 1452.5 c 128,-1,2
 782 1487 782 1487 808 1508.5 c 128,-1,3
 834 1530 834 1530 867 1530 c 128,-1,4
 900 1530 900 1530 926.5 1508 c 128,-1,5
 953 1486 953 1486 953 1452 c 128,-1,6
 953 1418 953 1418 927 1395.5 c 128,-1,7
 901 1373 901 1373 866.5 1373 c 128,-1,0
 832 1373 832 1373 807 1395.5 c 128,-1,1
539.5 1395.5 m 128,-1,9
 515 1418 515 1418 515 1452.5 c 128,-1,10
 515 1487 515 1487 540.5 1508.5 c 128,-1,11
 566 1530 566 1530 599 1530 c 128,-1,12
 632 1530 632 1530 658 1508 c 128,-1,13
 684 1486 684 1486 684 1452 c 128,-1,14
 684 1418 684 1418 658.5 1395.5 c 128,-1,15
 633 1373 633 1373 598.5 1373 c 128,-1,8
 564 1373 564 1373 539.5 1395.5 c 128,-1,9
22 1168 m 1,16,-1
 35 1244 l 1,17,-1
 577 1244 l 1,18,-1
 568 1168 l 1,19,-1
 399 1130 l 1,20,-1
 399 510 l 2,21,22
 399 304 399 304 492.5 204.5 c 128,-1,23
 586 105 586 105 744.5 105 c 0,24,25
 1070.03 105 1070.03 105 1072 482 c 2,26,-1
 1075 1126 l 1,27,-1
 892 1168 l 1,28,-1
 902 1244 l 1,29,-1
 1380 1244 l 1,30,-1
 1369 1168 l 1,31,-1
 1203 1130 l 1,32,-1
 1198 515 l 2,33,34
 1196 241 1196 241 1075 107 c 128,-1,35
 954 -27 954 -27 697 -27 c 0,36,37
 433.453 -27 433.453 -27 311.5 112 c 0,38,39
 206 232.247 206 232.247 206 469 c 2,40,-1
 206 1126 l 1,41,-1
 22 1168 l 1,16,-1
EndSplineSet
Validated: 543745
Colour: ffffff
EndChar

StartChar: Udieresisacute
Encoding: 471 471 100
Width: 1401
VWidth: 0
Flags: W
HStem: -27 132<563.919 927.97> 1168 76<35 84.8053 504.243 568 902 954.464 1306.37 1369> 1356 158<541.299 657.701 808.814 926.185>
VStem: 206 193<278.364 1126> 515 169<1379.21 1491.31> 782 171<1379.21 1491.31> 1072 126<259.721 1126>
LayerCount: 2
Fore
SplineSet
807 1378.5 m 128,-1,1
 782 1401 782 1401 782 1435.5 c 128,-1,2
 782 1470 782 1470 808 1492 c 128,-1,3
 834 1514 834 1514 867 1514 c 128,-1,4
 900 1514 900 1514 926.5 1491.5 c 128,-1,5
 953 1469 953 1469 953 1435 c 128,-1,6
 953 1401 953 1401 927 1378.5 c 128,-1,7
 901 1356 901 1356 866.5 1356 c 128,-1,0
 832 1356 832 1356 807 1378.5 c 128,-1,1
686 1541 m 1,8,-1
 808 1866 l 1,9,-1
 921 1827 l 1,10,-1
 737 1509 l 1,11,-1
 686 1541 l 1,8,-1
539.5 1378.5 m 128,-1,13
 515 1401 515 1401 515 1435.5 c 128,-1,14
 515 1470 515 1470 540.5 1492 c 128,-1,15
 566 1514 566 1514 599 1514 c 128,-1,16
 632 1514 632 1514 658 1491.5 c 128,-1,17
 684 1469 684 1469 684 1435 c 128,-1,18
 684 1401 684 1401 658.5 1378.5 c 128,-1,19
 633 1356 633 1356 598.5 1356 c 128,-1,12
 564 1356 564 1356 539.5 1378.5 c 128,-1,13
22 1168 m 1,20,-1
 35 1244 l 1,21,-1
 577 1244 l 1,22,-1
 568 1168 l 1,23,-1
 399 1130 l 1,24,-1
 399 510 l 2,25,26
 399 304 399 304 492.5 204.5 c 128,-1,27
 586 105 586 105 744.5 105 c 0,28,29
 1070.03 105 1070.03 105 1072 482 c 2,30,-1
 1075 1126 l 1,31,-1
 892 1168 l 1,32,-1
 902 1244 l 1,33,-1
 1380 1244 l 1,34,-1
 1369 1168 l 1,35,-1
 1203 1130 l 1,36,-1
 1198 515 l 2,37,38
 1196 241 1196 241 1075 107 c 128,-1,39
 954 -27 954 -27 697 -27 c 0,40,41
 433.453 -27 433.453 -27 311.5 112 c 0,42,43
 206 232.247 206 232.247 206 469 c 2,44,-1
 206 1126 l 1,45,-1
 22 1168 l 1,20,-1
EndSplineSet
Validated: 543745
Colour: ffffff
EndChar

StartChar: Udieresiscaron
Encoding: 473 473 101
Width: 1401
VWidth: 0
Flags: W
HStem: -27 132<563.919 927.97> 1168 76<35 84.8053 504.243 568 902 954.464 1306.37 1369> 1336 159<541.299 657.186 808.814 926.185>
VStem: 206 193<278.364 1126> 515 169<1359.21 1471.79> 782 171<1359.21 1471.79> 1072 126<259.721 1126>
DStem2: 611 1716 530 1654 0.735276 -0.677768<0 206.477> 770 1573 764 1504 0.694953 0.719055<0 186.147>
LayerCount: 2
Fore
SplineSet
807 1358.5 m 128,-1,1
 782 1381 782 1381 782 1415.5 c 128,-1,2
 782 1450 782 1450 808 1472.5 c 128,-1,3
 834 1495 834 1495 867 1495 c 128,-1,4
 900 1495 900 1495 926.5 1472 c 128,-1,5
 953 1449 953 1449 953 1415 c 128,-1,6
 953 1381 953 1381 927 1358.5 c 128,-1,7
 901 1336 901 1336 866.5 1336 c 128,-1,0
 832 1336 832 1336 807 1358.5 c 128,-1,1
530 1654 m 1,8,-1
 611 1716 l 1,9,-1
 760 1573 l 1,10,-1
 770 1573 l 1,11,-1
 893 1713 l 1,12,-1
 937 1683 l 1,13,-1
 764 1504 l 1,14,-1
 709 1489 l 1,15,-1
 530 1654 l 1,8,-1
539.5 1358.5 m 128,-1,17
 515 1381 515 1381 515 1415.5 c 128,-1,18
 515 1450 515 1450 540.5 1472.5 c 128,-1,19
 566 1495 566 1495 599 1495 c 128,-1,20
 632 1495 632 1495 658 1472.5 c 128,-1,21
 684 1450 684 1450 684 1415.5 c 128,-1,22
 684 1381 684 1381 658.5 1358.5 c 128,-1,23
 633 1336 633 1336 598.5 1336 c 128,-1,16
 564 1336 564 1336 539.5 1358.5 c 128,-1,17
22 1168 m 1,24,-1
 35 1244 l 1,25,-1
 577 1244 l 1,26,-1
 568 1168 l 1,27,-1
 399 1130 l 1,28,-1
 399 510 l 2,29,30
 399 304 399 304 492.5 204.5 c 128,-1,31
 586 105 586 105 744.5 105 c 0,32,33
 1070.03 105 1070.03 105 1072 482 c 2,34,-1
 1075 1126 l 1,35,-1
 892 1168 l 1,36,-1
 902 1244 l 1,37,-1
 1380 1244 l 1,38,-1
 1369 1168 l 1,39,-1
 1203 1130 l 1,40,-1
 1198 515 l 2,41,42
 1196 241 1196 241 1075 107 c 128,-1,43
 954 -27 954 -27 697 -27 c 0,44,45
 433.453 -27 433.453 -27 311.5 112 c 0,46,47
 206 232.247 206 232.247 206 469 c 2,48,-1
 206 1126 l 1,49,-1
 22 1168 l 1,24,-1
EndSplineSet
Validated: 543745
Colour: ffffff
EndChar

StartChar: Udieresisgrave
Encoding: 475 475 102
Width: 1401
VWidth: 0
Flags: W
HStem: -27 132<563.919 927.97> 1168 76<35 84.8053 504.243 568 902 954.464 1306.37 1369> 1338 158<541.299 657.186 808.814 926.185>
VStem: 206 193<278.364 1126> 515 169<1361.72 1473.31> 782 171<1361.72 1473.82> 1072 126<259.721 1126>
LayerCount: 2
Fore
SplineSet
807 1361 m 128,-1,1
 782 1384 782 1384 782 1418.5 c 128,-1,2
 782 1453 782 1453 808 1474.5 c 128,-1,3
 834 1496 834 1496 867 1496 c 128,-1,4
 900 1496 900 1496 926.5 1474 c 128,-1,5
 953 1452 953 1452 953 1418 c 128,-1,6
 953 1384 953 1384 927 1361 c 128,-1,7
 901 1338 901 1338 866.5 1338 c 128,-1,0
 832 1338 832 1338 807 1361 c 128,-1,1
530 1802 m 1,8,-1
 645 1839 l 1,9,-1
 777 1504 l 1,10,-1
 719 1470 l 1,11,-1
 530 1802 l 1,8,-1
539.5 1360.5 m 128,-1,13
 515 1383 515 1383 515 1418 c 128,-1,14
 515 1453 515 1453 540.5 1474.5 c 128,-1,15
 566 1496 566 1496 599 1496 c 128,-1,16
 632 1496 632 1496 658 1474 c 128,-1,17
 684 1452 684 1452 684 1418 c 128,-1,18
 684 1384 684 1384 658 1361 c 128,-1,19
 632 1338 632 1338 598 1338 c 128,-1,12
 564 1338 564 1338 539.5 1360.5 c 128,-1,13
22 1168 m 1,20,-1
 35 1244 l 1,21,-1
 577 1244 l 1,22,-1
 568 1168 l 1,23,-1
 399 1130 l 1,24,-1
 399 510 l 2,25,26
 399 304 399 304 492.5 204.5 c 128,-1,27
 586 105 586 105 744.5 105 c 0,28,29
 1070.03 105 1070.03 105 1072 482 c 2,30,-1
 1075 1126 l 1,31,-1
 892 1168 l 1,32,-1
 902 1244 l 1,33,-1
 1380 1244 l 1,34,-1
 1369 1168 l 1,35,-1
 1203 1130 l 1,36,-1
 1198 515 l 2,37,38
 1196 241 1196 241 1075 107 c 128,-1,39
 954 -27 954 -27 697 -27 c 0,40,41
 433.453 -27 433.453 -27 311.5 112 c 0,42,43
 206 232.247 206 232.247 206 469 c 2,44,-1
 206 1126 l 1,45,-1
 22 1168 l 1,20,-1
EndSplineSet
Validated: 543745
Colour: ffffff
EndChar

StartChar: Udieresismacron
Encoding: 469 469 103
Width: 1401
VWidth: 0
Flags: W
HStem: -27 132<563.919 927.97> 1168 76<35 84.8053 504.243 568 902 954.464 1306.37 1369> 1321 158<541.299 657.186 808.814 926.185> 1523 101<521 949>
VStem: 206 193<278.364 1126> 515 169<1344.72 1456.31> 782 171<1344.72 1456.82> 1072 126<259.721 1126>
LayerCount: 2
Fore
SplineSet
807 1344 m 128,-1,1
 782 1367 782 1367 782 1401.5 c 128,-1,2
 782 1436 782 1436 808 1457.5 c 128,-1,3
 834 1479 834 1479 867 1479 c 128,-1,4
 900 1479 900 1479 926.5 1457 c 128,-1,5
 953 1435 953 1435 953 1401 c 128,-1,6
 953 1367 953 1367 927 1344 c 128,-1,7
 901 1321 901 1321 866.5 1321 c 128,-1,0
 832 1321 832 1321 807 1344 c 128,-1,1
539.5 1343.5 m 128,-1,9
 515 1366 515 1366 515 1401 c 128,-1,10
 515 1436 515 1436 540.5 1457.5 c 128,-1,11
 566 1479 566 1479 599 1479 c 128,-1,12
 632 1479 632 1479 658 1457 c 128,-1,13
 684 1435 684 1435 684 1401 c 128,-1,14
 684 1367 684 1367 658 1344 c 128,-1,15
 632 1321 632 1321 598 1321 c 128,-1,8
 564 1321 564 1321 539.5 1343.5 c 128,-1,9
508 1523 m 1,16,-1
 521 1624 l 1,17,-1
 962 1624 l 1,18,-1
 949 1523 l 1,19,-1
 508 1523 l 1,16,-1
22 1168 m 1,20,-1
 35 1244 l 1,21,-1
 577 1244 l 1,22,-1
 568 1168 l 1,23,-1
 399 1130 l 1,24,-1
 399 510 l 2,25,26
 399 304 399 304 492.5 204.5 c 128,-1,27
 586 105 586 105 744.5 105 c 0,28,29
 1070.03 105 1070.03 105 1072 482 c 2,30,-1
 1075 1126 l 1,31,-1
 892 1168 l 1,32,-1
 902 1244 l 1,33,-1
 1380 1244 l 1,34,-1
 1369 1168 l 1,35,-1
 1203 1130 l 1,36,-1
 1198 515 l 2,37,38
 1196 241 1196 241 1075 107 c 128,-1,39
 954 -27 954 -27 697 -27 c 0,40,41
 433.453 -27 433.453 -27 311.5 112 c 0,42,43
 206 232.247 206 232.247 206 469 c 2,44,-1
 206 1126 l 1,45,-1
 22 1168 l 1,20,-1
EndSplineSet
Validated: 543745
Colour: ffffff
EndChar

StartChar: Ugrave
Encoding: 217 217 104
Width: 1401
VWidth: 0
Flags: W
HStem: -27 132<578.919 942.97> 1168 76<50 99.8053 519.243 583 917 969.464 1321.37 1384>
VStem: 221 193<278.364 1126> 1087 126<259.721 1126>
LayerCount: 2
Fore
SplineSet
37 1168 m 1,0,-1
 50 1244 l 1,1,-1
 592 1244 l 1,2,-1
 583 1168 l 1,3,-1
 414 1130 l 1,4,-1
 414 510 l 2,5,6
 414 304 414 304 507.5 204.5 c 128,-1,7
 601 105 601 105 759.5 105 c 0,8,9
 1085.03 105 1085.03 105 1087 482 c 2,10,-1
 1090 1126 l 1,11,-1
 907 1168 l 1,12,-1
 917 1244 l 1,13,-1
 1395 1244 l 1,14,-1
 1384 1168 l 1,15,-1
 1218 1130 l 1,16,-1
 1213 515 l 2,17,18
 1211 241 1211 241 1090 107 c 128,-1,19
 969 -27 969 -27 712 -27 c 0,20,21
 448.453 -27 448.453 -27 326.5 112 c 0,22,23
 221 232.247 221 232.247 221 469 c 2,24,-1
 221 1126 l 1,25,-1
 37 1168 l 1,0,-1
475 1659 m 1,26,-1
 590 1697 l 1,27,-1
 722 1364 l 1,28,-1
 666 1329 l 1,29,-1
 475 1659 l 1,26,-1
EndSplineSet
Validated: 543745
Colour: ffffff
EndChar

StartChar: Uhungarumlaut
Encoding: 368 368 105
Width: 1401
VWidth: 0
Flags: W
HStem: -27 132<563.919 927.97> 1168 76<35 84.8053 504.243 568 902 954.464 1306.37 1369>
VStem: 206 193<278.364 1126> 1072 126<259.721 1126>
LayerCount: 2
Fore
SplineSet
768 1413 m 1,0,-1
 1015 1613 l 1,1,-1
 1087 1530 l 1,2,-1
 798 1364 l 1,3,-1
 768 1413 l 1,0,-1
558 1413 m 1,4,-1
 811 1621 l 1,5,-1
 885 1535 l 1,6,-1
 585 1364 l 1,7,-1
 558 1413 l 1,4,-1
22 1168 m 1,8,-1
 35 1244 l 1,9,-1
 577 1244 l 1,10,-1
 568 1168 l 1,11,-1
 399 1130 l 1,12,-1
 399 510 l 2,13,14
 399 304 399 304 492.5 204.5 c 128,-1,15
 586 105 586 105 744.5 105 c 0,16,17
 1070.03 105 1070.03 105 1072 482 c 2,18,-1
 1075 1126 l 1,19,-1
 892 1168 l 1,20,-1
 902 1244 l 1,21,-1
 1380 1244 l 1,22,-1
 1369 1168 l 1,23,-1
 1203 1130 l 1,24,-1
 1198 515 l 2,25,26
 1196 241 1196 241 1075 107 c 128,-1,27
 954 -27 954 -27 697 -27 c 0,28,29
 433.453 -27 433.453 -27 311.5 112 c 0,30,31
 206 232.247 206 232.247 206 469 c 2,32,-1
 206 1126 l 1,33,-1
 22 1168 l 1,8,-1
EndSplineSet
Validated: 543745
Colour: ffffff
EndChar

StartChar: Umacron
Encoding: 362 362 106
Width: 1401
VWidth: 0
Flags: W
HStem: -27 132<578.919 942.97> 1168 76<50 99.8053 519.243 583 917 969.464 1321.37 1384> 1379 100<485 914>
VStem: 221 193<278.364 1126> 1087 126<259.721 1126>
LayerCount: 2
Fore
SplineSet
37 1168 m 1,0,-1
 50 1244 l 1,1,-1
 592 1244 l 1,2,-1
 583 1168 l 1,3,-1
 414 1130 l 1,4,-1
 414 510 l 2,5,6
 414 304 414 304 507.5 204.5 c 128,-1,7
 601 105 601 105 759.5 105 c 0,8,9
 1085.03 105 1085.03 105 1087 482 c 2,10,-1
 1090 1126 l 1,11,-1
 907 1168 l 1,12,-1
 917 1244 l 1,13,-1
 1395 1244 l 1,14,-1
 1384 1168 l 1,15,-1
 1218 1130 l 1,16,-1
 1213 515 l 2,17,18
 1211 241 1211 241 1090 107 c 128,-1,19
 969 -27 969 -27 712 -27 c 0,20,21
 448.453 -27 448.453 -27 326.5 112 c 0,22,23
 221 232.247 221 232.247 221 469 c 2,24,-1
 221 1126 l 1,25,-1
 37 1168 l 1,0,-1
472 1379 m 1,26,-1
 485 1479 l 1,27,-1
 927 1479 l 1,28,-1
 914 1379 l 1,29,-1
 472 1379 l 1,26,-1
EndSplineSet
Validated: 543745
Colour: ffffff
EndChar

StartChar: Uogonek
Encoding: 370 370 107
Width: 1405
VWidth: 0
Flags: W
HStem: -386 51<902.277 913.557> -27 132<561.644 851.783> 1168 76<35 84.8053 504.243 568 902 954.464 1306.37 1369>
VStem: 206 193<278.364 1126> 666 148<-269.84 -91.4048> 1072 126<259.721 1126>
LayerCount: 2
Fore
SplineSet
814 -148 m 0,0,1
 814 -263.312 814 -263.312 938 -335 c 1,2,-1
 904 -386 l 1,3,4
 798 -375 798 -375 732 -324.5 c 128,-1,5
 666 -274 666 -274 666 -208 c 0,6,7
 666 -167 666 -167 688 -125.5 c 128,-1,8
 710 -84 710 -84 775 -23 c 1,9,10
 727 -27 727 -27 673.5 -27 c 128,-1,11
 620 -27 620 -27 556.5 -16.5 c 128,-1,12
 493 -6 493 -6 425.5 26.5 c 128,-1,13
 358 59 358 59 311.5 112 c 0,14,15
 206 232.247 206 232.247 206 469 c 2,16,-1
 206 1126 l 1,17,-1
 22 1168 l 1,18,-1
 35 1244 l 1,19,-1
 577 1244 l 1,20,-1
 568 1168 l 1,21,-1
 399 1130 l 1,22,-1
 399 510 l 2,23,24
 399 304 399 304 492.5 204.5 c 128,-1,25
 586 105 586 105 744.5 105 c 0,26,27
 1070.03 105 1070.03 105 1072 482 c 2,28,-1
 1075 1126 l 1,29,-1
 892 1168 l 1,30,-1
 902 1244 l 1,31,-1
 1380 1244 l 1,32,-1
 1369 1168 l 1,33,-1
 1203 1130 l 1,34,-1
 1198 515 l 2,35,36
 1196 291 1196 291 1116 161.5 c 128,-1,37
 1036 32 1036 32 869 -8 c 1,38,39
 814 -100 814 -100 814 -148 c 0,0,1
EndSplineSet
Validated: 543745
Colour: ffffff
EndChar

StartChar: Uring
Encoding: 366 366 108
Width: 1401
VWidth: 0
Flags: W
HStem: -27 132<563.919 927.97> 1168 76<35 84.8053 504.243 568 902 954.464 1306.37 1369> 1337 48<683.269 800.704> 1627 47<675.297 787.428>
VStem: 206 193<278.364 1126> 575 70<1412.09 1598.63> 827 72<1404.96 1599.77> 1072 126<259.721 1126>
LayerCount: 2
Fore
SplineSet
667 1593.5 m 128,-1,1
 645 1560 645 1560 645 1512 c 128,-1,2
 645 1464 645 1464 670.5 1424.5 c 128,-1,3
 696 1385 696 1385 739 1385 c 0,4,5
 827 1385 827 1385 827 1499 c 0,6,7
 827 1549 827 1549 801 1588 c 128,-1,8
 775 1627 775 1627 732 1627 c 128,-1,0
 689 1627 689 1627 667 1593.5 c 128,-1,1
617 1381.5 m 128,-1,10
 575 1426 575 1426 575 1499 c 128,-1,11
 575 1572 575 1572 624.5 1623 c 128,-1,12
 674 1674 674 1674 744 1674 c 128,-1,13
 814 1674 814 1674 856.5 1628.5 c 128,-1,14
 899 1583 899 1583 899 1512.5 c 128,-1,15
 899 1442 899 1442 851 1389.5 c 128,-1,16
 803 1337 803 1337 731 1337 c 128,-1,9
 659 1337 659 1337 617 1381.5 c 128,-1,10
22 1168 m 1,17,-1
 35 1244 l 1,18,-1
 577 1244 l 1,19,-1
 568 1168 l 1,20,-1
 399 1130 l 1,21,-1
 399 510 l 2,22,23
 399 304 399 304 492.5 204.5 c 128,-1,24
 586 105 586 105 744.5 105 c 0,25,26
 1070.03 105 1070.03 105 1072 482 c 2,27,-1
 1075 1126 l 1,28,-1
 892 1168 l 1,29,-1
 902 1244 l 1,30,-1
 1380 1244 l 1,31,-1
 1369 1168 l 1,32,-1
 1203 1130 l 1,33,-1
 1198 515 l 2,34,35
 1196 241 1196 241 1075 107 c 128,-1,36
 954 -27 954 -27 697 -27 c 0,37,38
 433.453 -27 433.453 -27 311.5 112 c 0,39,40
 206 232.247 206 232.247 206 469 c 2,41,-1
 206 1126 l 1,42,-1
 22 1168 l 1,17,-1
EndSplineSet
Validated: 543745
Colour: ffffff
EndChar

StartChar: V
Encoding: 86 86 109
Width: 1235
VWidth: 0
Flags: W
HStem: -24 21G<536.73 652.571> 1168 76<-11 29.176 452.865 517 805 860.123 1203.2 1253>
DStem2: 347 1130 126 1126 0.341612 -0.939841<0 933.045> 660 251 696 4 0.353126 0.935576<0 931.629>
LayerCount: 2
Fore
SplineSet
-21 1168 m 1,0,-1
 -11 1244 l 1,1,-1
 527 1244 l 1,2,-1
 517 1168 l 1,3,-1
 347 1130 l 1,4,-1
 660 251 l 1,5,-1
 980 1126 l 1,6,-1
 798 1168 l 1,7,-1
 805 1244 l 1,8,-1
 1260 1244 l 1,9,-1
 1253 1168 l 1,10,-1
 1121 1130 l 1,11,-1
 696 4 l 1,12,-1
 544 -24 l 1,13,-1
 126 1126 l 1,14,-1
 -21 1168 l 1,0,-1
EndSplineSet
Validated: 19457
Colour: ffffff
EndChar

StartChar: W
Encoding: 87 87 110
Width: 1789
VWidth: 0
Flags: W
HStem: -24 21G<448.348 570.429 1158.63 1274> 1168 76<-2 36.7867 433.997 497 1368 1418.78 1759.6 1806>
DStem2: 330 1130 129 1126 0.271957 -0.962309<0 892.437> 572 271 617 4 0.288183 0.957575<0 746.252> 1029 1219 902 951 0.259512 -0.96574<225.86 964.429> 1277 287 1318 4 0.30836 0.95127<0 878.597>
LayerCount: 2
Fore
SplineSet
-11 1168 m 1,0,-1
 -2 1244 l 1,1,-1
 512 1244 l 1,2,-1
 497 1168 l 1,3,-1
 330 1130 l 1,4,-1
 572 271 l 1,5,-1
 853 1194 l 1,6,-1
 1029 1219 l 1,7,-1
 1277 287 l 1,8,-1
 1538 1126 l 1,9,-1
 1357 1168 l 1,10,-1
 1368 1244 l 1,11,-1
 1817 1244 l 1,12,-1
 1806 1168 l 1,13,-1
 1683 1130 l 1,14,-1
 1318 4 l 1,15,-1
 1164 -24 l 1,16,-1
 902 951 l 1,17,-1
 617 4 l 1,18,-1
 454 -24 l 1,19,-1
 129 1126 l 1,20,-1
 -11 1168 l 1,0,-1
EndSplineSet
Validated: 19457
Colour: ffffff
EndChar

StartChar: Wacute
Encoding: 7810 7810 111
Width: 1789
VWidth: 0
Flags: W
HStem: -24 21G<448.348 570.429 1158.63 1274> 1168 76<-2 36.7867 433.997 497 1368 1418.78 1759.6 1806>
DStem2: 330 1130 129 1126 0.271957 -0.962309<0 892.437> 572 271 617 4 0.288183 0.957575<0 746.252> 1029 1219 902 951 0.259512 -0.96574<225.86 964.429> 1277 287 1318 4 0.30836 0.95127<0 878.597>
LayerCount: 2
Fore
SplineSet
902 1385 m 1,0,-1
 1025 1710 l 1,1,-1
 1136 1670 l 1,2,-1
 953 1354 l 1,3,-1
 902 1385 l 1,0,-1
-11 1168 m 1,4,-1
 -2 1244 l 1,5,-1
 512 1244 l 1,6,-1
 497 1168 l 1,7,-1
 330 1130 l 1,8,-1
 572 271 l 1,9,-1
 853 1194 l 1,10,-1
 1029 1219 l 1,11,-1
 1277 287 l 1,12,-1
 1538 1126 l 1,13,-1
 1357 1168 l 1,14,-1
 1368 1244 l 1,15,-1
 1817 1244 l 1,16,-1
 1806 1168 l 1,17,-1
 1683 1130 l 1,18,-1
 1318 4 l 1,19,-1
 1164 -24 l 1,20,-1
 902 951 l 1,21,-1
 617 4 l 1,22,-1
 454 -24 l 1,23,-1
 129 1126 l 1,24,-1
 -11 1168 l 1,4,-1
EndSplineSet
Validated: 19457
Colour: ffffff
EndChar

StartChar: Wcircumflex
Encoding: 372 372 112
Width: 1789
VWidth: 0
Flags: W
HStem: -24 21G<448.348 570.429 1158.63 1274> 1168 76<-2 36.7867 433.997 497 1368 1418.78 1759.6 1806>
DStem2: 330 1130 129 1126 0.271957 -0.962309<0 892.437> 572 271 617 4 0.288183 0.957575<0 746.252> 1029 1219 902 951 0.259512 -0.96574<225.86 964.429> 1277 287 1318 4 0.30836 0.95127<0 878.597>
LayerCount: 2
Fore
SplineSet
744 1332 m 1,0,-1
 913 1511 l 1,1,-1
 968 1524 l 1,2,-1
 1146 1339 l 1,3,-1
 1096 1302 l 1,4,-1
 933 1412 l 1,5,-1
 922 1412 l 1,6,-1
 783 1301 l 1,7,-1
 744 1332 l 1,0,-1
-11 1168 m 1,8,-1
 -2 1244 l 1,9,-1
 512 1244 l 1,10,-1
 497 1168 l 1,11,-1
 330 1130 l 1,12,-1
 572 271 l 1,13,-1
 853 1194 l 1,14,-1
 1029 1219 l 1,15,-1
 1277 287 l 1,16,-1
 1538 1126 l 1,17,-1
 1357 1168 l 1,18,-1
 1368 1244 l 1,19,-1
 1817 1244 l 1,20,-1
 1806 1168 l 1,21,-1
 1683 1130 l 1,22,-1
 1318 4 l 1,23,-1
 1164 -24 l 1,24,-1
 902 951 l 1,25,-1
 617 4 l 1,26,-1
 454 -24 l 1,27,-1
 129 1126 l 1,28,-1
 -11 1168 l 1,8,-1
EndSplineSet
Validated: 19457
Colour: ffffff
EndChar

StartChar: Wdieresis
Encoding: 7812 7812 113
Width: 1789
VWidth: 0
Flags: W
HStem: -24 21G<448.348 570.429 1158.63 1274> 1168 76<-2 36.7867 433.997 497 1368 1418.78 1759.6 1806> 1373 157<748.299 865.701 1015.81 1135.67>
VStem: 722 170<1396.21 1507.31> 989 174<1396.21 1507.31>
DStem2: 330 1130 129 1126 0.271957 -0.962309<0 892.437> 572 271 617 4 0.288183 0.957575<0 746.252> 1029 1219 902 951 0.259512 -0.96574<225.86 964.429> 1277 287 1318 4 0.30836 0.95127<0 878.597>
LayerCount: 2
Fore
SplineSet
1015 1395.5 m 128,-1,1
 989 1418 989 1418 989 1452 c 128,-1,2
 989 1486 989 1486 1016 1508 c 128,-1,3
 1043 1530 1043 1530 1076.5 1530 c 128,-1,4
 1110 1530 1110 1530 1136.5 1508 c 128,-1,5
 1163 1486 1163 1486 1163 1452 c 128,-1,6
 1163 1418 1163 1418 1136.5 1395.5 c 128,-1,7
 1110 1373 1110 1373 1075.5 1373 c 128,-1,0
 1041 1373 1041 1373 1015 1395.5 c 128,-1,1
747.5 1395.5 m 128,-1,9
 722 1418 722 1418 722 1452 c 128,-1,10
 722 1486 722 1486 748.5 1508 c 128,-1,11
 775 1530 775 1530 808 1530 c 128,-1,12
 841 1530 841 1530 866.5 1508 c 128,-1,13
 892 1486 892 1486 892 1452 c 128,-1,14
 892 1418 892 1418 866.5 1395.5 c 128,-1,15
 841 1373 841 1373 807 1373 c 128,-1,8
 773 1373 773 1373 747.5 1395.5 c 128,-1,9
-11 1168 m 1,16,-1
 -2 1244 l 1,17,-1
 512 1244 l 1,18,-1
 497 1168 l 1,19,-1
 330 1130 l 1,20,-1
 572 271 l 1,21,-1
 853 1194 l 1,22,-1
 1029 1219 l 1,23,-1
 1277 287 l 1,24,-1
 1538 1126 l 1,25,-1
 1357 1168 l 1,26,-1
 1368 1244 l 1,27,-1
 1817 1244 l 1,28,-1
 1806 1168 l 1,29,-1
 1683 1130 l 1,30,-1
 1318 4 l 1,31,-1
 1164 -24 l 1,32,-1
 902 951 l 1,33,-1
 617 4 l 1,34,-1
 454 -24 l 1,35,-1
 129 1126 l 1,36,-1
 -11 1168 l 1,16,-1
EndSplineSet
Validated: 19457
Colour: ffffff
EndChar

StartChar: Wgrave
Encoding: 7808 7808 114
Width: 1789
VWidth: 0
Flags: W
HStem: -24 21G<448.348 570.429 1158.63 1274> 1168 76<-2 36.7867 433.997 497 1368 1418.78 1759.6 1806>
DStem2: 330 1130 129 1126 0.271957 -0.962309<0 892.437> 572 271 617 4 0.288183 0.957575<0 746.252> 1029 1219 902 951 0.259512 -0.96574<225.86 964.429> 1277 287 1318 4 0.30836 0.95127<0 878.597>
LayerCount: 2
Fore
SplineSet
721 1664 m 1,0,-1
 836 1702 l 1,1,-1
 968 1368 l 1,2,-1
 910 1334 l 1,3,-1
 721 1664 l 1,0,-1
-11 1168 m 1,4,-1
 -2 1244 l 1,5,-1
 512 1244 l 1,6,-1
 497 1168 l 1,7,-1
 330 1130 l 1,8,-1
 572 271 l 1,9,-1
 853 1194 l 1,10,-1
 1029 1219 l 1,11,-1
 1277 287 l 1,12,-1
 1538 1126 l 1,13,-1
 1357 1168 l 1,14,-1
 1368 1244 l 1,15,-1
 1817 1244 l 1,16,-1
 1806 1168 l 1,17,-1
 1683 1130 l 1,18,-1
 1318 4 l 1,19,-1
 1164 -24 l 1,20,-1
 902 951 l 1,21,-1
 617 4 l 1,22,-1
 454 -24 l 1,23,-1
 129 1126 l 1,24,-1
 -11 1168 l 1,4,-1
EndSplineSet
Validated: 19457
Colour: ffffff
EndChar

StartChar: X
Encoding: 88 88 115
Width: 1193
VWidth: 0
Flags: W
HStem: 0 80<416.601 439 682 714.531 1151.9 1172> 1166 78<40 67.3031 499.961 543 747 786.428 1130.48 1174>
DStem2: 138 121 288 117 0.606186 0.795323<87.7467 592.426 800.32 1263.64> 386 1121 165 1123 0.559842 -0.828599<0 445.691 599.14 1083.89>
LayerCount: 2
Fore
SplineSet
-1 0 m 1,0,-1
 11 76 l 1,1,-1
 138 121 l 1,2,-1
 504 615 l 1,3,-1
 165 1123 l 1,4,-1
 28 1166 l 1,5,-1
 40 1244 l 1,6,-1
 553 1244 l 1,7,-1
 543 1166 l 1,8,-1
 386 1121 l 1,9,-1
 633 750 l 1,10,-1
 904 1126 l 1,11,-1
 734 1166 l 1,12,-1
 747 1244 l 1,13,-1
 1182 1244 l 1,14,-1
 1174 1168 l 1,15,-1
 1047 1130 l 1,16,-1
 709 657 l 1,17,-1
 1050 114 l 1,18,-1
 1185 80 l 1,19,-1
 1172 0 l 1,20,-1
 669 0 l 1,21,-1
 682 74 l 1,22,-1
 842 121 l 1,23,-1
 580 529 l 1,24,-1
 288 117 l 1,25,-1
 454 83 l 1,26,-1
 439 0 l 1,27,-1
 -1 0 l 1,0,-1
EndSplineSet
Validated: 19457
Colour: ffffff
EndChar

StartChar: Y
Encoding: 89 89 116
Width: 1123
VWidth: 0
Flags: W
HStem: 0 80<320 350.498 786.036 816> 1168 76<-8 26.104 428.392 488 698 750.464 1085.84 1133>
VStem: 470 193<121 504>
DStem2: 330 1130 117 1126 0.493577 -0.869702<0 562.875> 607 640 663 529 0.497847 0.867265<0 552.922>
LayerCount: 2
Fore
SplineSet
-21 1168 m 1,0,-1
 -8 1244 l 1,1,-1
 500 1244 l 1,2,-1
 488 1168 l 1,3,-1
 330 1130 l 1,4,-1
 607 640 l 1,5,-1
 871 1126 l 1,6,-1
 688 1168 l 1,7,-1
 698 1244 l 1,8,-1
 1143 1244 l 1,9,-1
 1133 1168 l 1,10,-1
 1008 1130 l 1,11,-1
 663 529 l 1,12,-1
 663 114 l 1,13,-1
 826 80 l 1,14,-1
 816 0 l 1,15,-1
 310 0 l 1,16,-1
 320 74 l 1,17,-1
 470 121 l 1,18,-1
 470 504 l 1,19,-1
 117 1126 l 1,20,-1
 -21 1168 l 1,0,-1
EndSplineSet
Validated: 19457
Colour: ffffff
EndChar

StartChar: Yacute
Encoding: 221 221 117
Width: 1123
VWidth: 0
Flags: W
HStem: 0 80<268 298.498 734.036 764> 1168 76<-60 -25.896 376.392 436 646 698.464 1033.84 1081>
VStem: 418 193<121 504>
DStem2: 278 1130 65 1126 0.493577 -0.869702<0 562.875> 555 640 611 529 0.497847 0.867265<0 552.922>
LayerCount: 2
Fore
SplineSet
-73 1168 m 1,0,-1
 -60 1244 l 1,1,-1
 448 1244 l 1,2,-1
 436 1168 l 1,3,-1
 278 1130 l 1,4,-1
 555 640 l 1,5,-1
 819 1126 l 1,6,-1
 636 1168 l 1,7,-1
 646 1244 l 1,8,-1
 1091 1244 l 1,9,-1
 1081 1168 l 1,10,-1
 956 1130 l 1,11,-1
 611 529 l 1,12,-1
 611 114 l 1,13,-1
 774 80 l 1,14,-1
 764 0 l 1,15,-1
 258 0 l 1,16,-1
 268 74 l 1,17,-1
 418 121 l 1,18,-1
 418 504 l 1,19,-1
 65 1126 l 1,20,-1
 -73 1168 l 1,0,-1
455 1380 m 1,21,-1
 578 1705 l 1,22,-1
 689 1666 l 1,23,-1
 506 1348 l 1,24,-1
 455 1380 l 1,21,-1
EndSplineSet
Validated: 19457
Colour: ffffff
EndChar

StartChar: Ycircumflex
Encoding: 374 374 118
Width: 1123
VWidth: 0
Flags: W
HStem: 0 80<268 298.498 734.036 764> 1168 76<-60 -25.896 376.392 436 646 698.464 1033.84 1081>
VStem: 418 193<121 504>
DStem2: 278 1130 65 1126 0.493577 -0.869702<0 562.875> 555 640 611 529 0.497847 0.867265<0 552.922>
LayerCount: 2
Fore
SplineSet
-73 1168 m 1,0,-1
 -60 1244 l 1,1,-1
 448 1244 l 1,2,-1
 436 1168 l 1,3,-1
 278 1130 l 1,4,-1
 555 640 l 1,5,-1
 819 1126 l 1,6,-1
 636 1168 l 1,7,-1
 646 1244 l 1,8,-1
 1091 1244 l 1,9,-1
 1081 1168 l 1,10,-1
 956 1130 l 1,11,-1
 611 529 l 1,12,-1
 611 114 l 1,13,-1
 774 80 l 1,14,-1
 764 0 l 1,15,-1
 258 0 l 1,16,-1
 268 74 l 1,17,-1
 418 121 l 1,18,-1
 418 504 l 1,19,-1
 65 1126 l 1,20,-1
 -73 1168 l 1,0,-1
322 1387 m 1,21,-1
 490 1566 l 1,22,-1
 545 1581 l 1,23,-1
 723 1395 l 1,24,-1
 674 1358 l 1,25,-1
 511 1468 l 1,26,-1
 500 1468 l 1,27,-1
 361 1357 l 1,28,-1
 322 1387 l 1,21,-1
EndSplineSet
Validated: 19457
Colour: ffffff
EndChar

StartChar: Ydieresis
Encoding: 376 376 119
Width: 1123
VWidth: 0
Flags: W
HStem: 0 80<268 298.498 734.036 764> 1168 76<-60 -25.896 376.392 436 646 698.464 1033.84 1081> 1383 159<328.299 446.186 596.299 732.658>
VStem: 302 171<1407.24 1519.31> 418 193<121 504> 570 172<1407.24 1532.07>
DStem2: 278 1130 65 1126 0.493577 -0.869702<0 562.875> 555 640 611 529 0.497847 0.867265<0 552.922>
LayerCount: 2
Fore
SplineSet
-73 1168 m 1,0,-1
 -60 1244 l 1,1,-1
 448 1244 l 1,2,-1
 436 1168 l 1,3,-1
 278 1130 l 1,4,-1
 555 640 l 1,5,-1
 819 1126 l 1,6,-1
 636 1168 l 1,7,-1
 646 1244 l 1,8,-1
 1091 1244 l 1,9,-1
 1081 1168 l 1,10,-1
 956 1130 l 1,11,-1
 611 529 l 1,12,-1
 611 114 l 1,13,-1
 774 80 l 1,14,-1
 764 0 l 1,15,-1
 258 0 l 1,16,-1
 268 74 l 1,17,-1
 418 121 l 1,18,-1
 418 504 l 1,19,-1
 65 1126 l 1,20,-1
 -73 1168 l 1,0,-1
595.5 1406.5 m 128,-1,22
 570 1430 570 1430 570 1464 c 128,-1,23
 570 1498 570 1498 596.5 1520 c 128,-1,24
 623 1542 623 1542 656 1542 c 128,-1,25
 689 1542 689 1542 715.5 1520 c 128,-1,26
 742 1498 742 1498 742 1464 c 128,-1,27
 742 1430 742 1430 715.5 1406.5 c 128,-1,28
 689 1383 689 1383 655 1383 c 128,-1,21
 621 1383 621 1383 595.5 1406.5 c 128,-1,22
327.5 1406.5 m 128,-1,30
 302 1430 302 1430 302 1464 c 128,-1,31
 302 1498 302 1498 328.5 1520 c 128,-1,32
 355 1542 355 1542 388 1542 c 128,-1,33
 421 1542 421 1542 447 1520 c 128,-1,34
 473 1498 473 1498 473 1463.5 c 128,-1,35
 473 1429 473 1429 447 1406 c 128,-1,36
 421 1383 421 1383 387 1383 c 128,-1,29
 353 1383 353 1383 327.5 1406.5 c 128,-1,30
EndSplineSet
Validated: 19457
Colour: ffffff
EndChar

StartChar: Ygrave
Encoding: 7922 7922 120
Width: 1123
VWidth: 0
Flags: W
HStem: 0 80<268 298.498 734.036 764> 1168 76<-60 -25.896 376.392 436 646 698.464 1033.84 1081>
VStem: 418 193<121 504>
DStem2: 278 1130 65 1126 0.493577 -0.869702<0 562.875> 555 640 611 529 0.497847 0.867265<0 552.922>
LayerCount: 2
Fore
SplineSet
-73 1168 m 1,0,-1
 -60 1244 l 1,1,-1
 448 1244 l 1,2,-1
 436 1168 l 1,3,-1
 278 1130 l 1,4,-1
 555 640 l 1,5,-1
 819 1126 l 1,6,-1
 636 1168 l 1,7,-1
 646 1244 l 1,8,-1
 1091 1244 l 1,9,-1
 1081 1168 l 1,10,-1
 956 1130 l 1,11,-1
 611 529 l 1,12,-1
 611 114 l 1,13,-1
 774 80 l 1,14,-1
 764 0 l 1,15,-1
 258 0 l 1,16,-1
 268 74 l 1,17,-1
 418 121 l 1,18,-1
 418 504 l 1,19,-1
 65 1126 l 1,20,-1
 -73 1168 l 1,0,-1
297 1659 m 1,21,-1
 412 1697 l 1,22,-1
 544 1364 l 1,23,-1
 488 1329 l 1,24,-1
 297 1659 l 1,21,-1
EndSplineSet
Validated: 19457
Colour: ffffff
EndChar

StartChar: Z
Encoding: 90 90 121
Width: 1096
VWidth: 0
Flags: W
HStem: 0 100<262 832> 903 21G<88 184.26> 1149 95<255 792>
VStem: 88 90<921 948.801>
DStem2: 47 104 262 100 0.581814 0.813322<121.837 1283.37>
LayerCount: 2
Fore
SplineSet
47 104 m 1,0,-1
 792 1149 l 1,1,-1
 255 1149 l 1,2,-1
 178 903 l 1,3,-1
 88 921 l 1,4,-1
 98 1244 l 1,5,-1
 1026 1244 l 1,6,-1
 1026 1168 l 1,7,-1
 262 100 l 1,8,-1
 832 100 l 1,9,-1
 955 351 l 1,10,-1
 1048 335 l 1,11,-1
 991 0 l 1,12,-1
 55 0 l 1,13,-1
 47 104 l 1,0,-1
EndSplineSet
Validated: 19457
Colour: ffffff
EndChar

StartChar: Zacute
Encoding: 377 377 122
Width: 1096
VWidth: 0
Flags: W
HStem: 0 100<262 832> 903 21G<88 184.26> 1149 95<255 792>
VStem: 88 90<921 948.801>
DStem2: 47 104 262 100 0.581814 0.813322<121.837 1283.37>
LayerCount: 2
Fore
SplineSet
473 1385 m 1,0,-1
 595 1710 l 1,1,-1
 707 1670 l 1,2,-1
 523 1354 l 1,3,-1
 473 1385 l 1,0,-1
47 104 m 1,4,-1
 792 1149 l 1,5,-1
 255 1149 l 1,6,-1
 178 903 l 1,7,-1
 88 921 l 1,8,-1
 98 1244 l 1,9,-1
 1026 1244 l 1,10,-1
 1026 1168 l 1,11,-1
 262 100 l 1,12,-1
 832 100 l 1,13,-1
 955 351 l 1,14,-1
 1048 335 l 1,15,-1
 991 0 l 1,16,-1
 55 0 l 1,17,-1
 47 104 l 1,4,-1
EndSplineSet
Validated: 19457
Colour: ffffff
EndChar

StartChar: Zcaron
Encoding: 381 381 123
Width: 1096
VWidth: 0
Flags: W
HStem: 0 100<262 832> 903 21G<88 184.26> 1149 95<255 792>
VStem: 88 90<921 948.801>
DStem2: 47 104 262 100 0.581814 0.813322<121.837 1283.37> 423 1589 341 1527 0.733231 -0.67998<0 206.435> 581 1445 575 1376 0.694953 0.719055<0 186.147>
LayerCount: 2
Fore
SplineSet
341 1527 m 1,0,-1
 423 1589 l 1,1,-1
 571 1445 l 1,2,-1
 581 1445 l 1,3,-1
 704 1585 l 1,4,-1
 748 1555 l 1,5,-1
 575 1376 l 1,6,-1
 520 1361 l 1,7,-1
 341 1527 l 1,0,-1
47 104 m 1,8,-1
 792 1149 l 1,9,-1
 255 1149 l 1,10,-1
 178 903 l 1,11,-1
 88 921 l 1,12,-1
 98 1244 l 1,13,-1
 1026 1244 l 1,14,-1
 1026 1168 l 1,15,-1
 262 100 l 1,16,-1
 832 100 l 1,17,-1
 955 351 l 1,18,-1
 1048 335 l 1,19,-1
 991 0 l 1,20,-1
 55 0 l 1,21,-1
 47 104 l 1,8,-1
EndSplineSet
Validated: 19457
Colour: ffffff
EndChar

StartChar: Zdotaccent
Encoding: 379 379 124
Width: 1096
VWidth: 0
Flags: W
HStem: 0 100<262 832> 903 21G<88 184.26> 1149 95<255 792> 1360 237<468.613 635.356>
VStem: 88 90<921 948.801> 432 241<1397.64 1562.96>
DStem2: 47 104 262 100 0.581814 0.813322<121.837 1283.37>
LayerCount: 2
Fore
SplineSet
466.5 1396.5 m 128,-1,1
 432 1433 432 1433 432 1482 c 128,-1,2
 432 1531 432 1531 467.5 1564 c 128,-1,3
 503 1597 503 1597 551.5 1597 c 128,-1,4
 600 1597 600 1597 636.5 1564 c 128,-1,5
 673 1531 673 1531 673 1482 c 128,-1,6
 673 1433 673 1433 636.5 1396.5 c 128,-1,7
 600 1360 600 1360 550.5 1360 c 128,-1,0
 501 1360 501 1360 466.5 1396.5 c 128,-1,1
47 104 m 1,8,-1
 792 1149 l 1,9,-1
 255 1149 l 1,10,-1
 178 903 l 1,11,-1
 88 921 l 1,12,-1
 98 1244 l 1,13,-1
 1026 1244 l 1,14,-1
 1026 1168 l 1,15,-1
 262 100 l 1,16,-1
 832 100 l 1,17,-1
 955 351 l 1,18,-1
 1048 335 l 1,19,-1
 991 0 l 1,20,-1
 55 0 l 1,21,-1
 47 104 l 1,8,-1
EndSplineSet
Validated: 19457
Colour: ffffff
EndChar

StartChar: a
Encoding: 97 97 125
Width: 830
VWidth: 0
Flags: W
HStem: -24 123<247.639 411.306> 1 86<782 819> 807 93<254.354 444.385>
VStem: 47 175<121.673 305.213> 81 139<610.017 783.308> 508 162<149.469 428 481.274 738.587>
LayerCount: 2
Fore
SplineSet
222 215 m 0,0,1
 222 173 222 173 252.5 136 c 128,-1,2
 283 99 283 99 332.5 99 c 128,-1,3
 382 99 382 99 430 127 c 128,-1,4
 478 155 478 155 508 188 c 1,5,-1
 508 428 l 1,6,7
 352 397 352 397 287 344.5 c 128,-1,8
 222 292 222 292 222 215 c 0,0,1
104 28 m 128,-1,10
 47 80 47 80 47 152.5 c 128,-1,11
 47 225 47 225 74 276.5 c 128,-1,12
 101 328 101 328 154.5 372.5 c 0,13,14
 270.385 468.891 270.385 468.891 508 485 c 1,15,-1
 508 540 l 2,16,17
 508 807 508 807 331 807 c 0,18,19
 276.429 807 276.429 807 260.714 787 c 128,-1,20
 245 767 245 767 239 743.5 c 0,21,22
 220 669.083 220 669.083 220 592 c 1,23,24
 145.2 592 145.2 592 123.1 609 c 0,25,26
 81 641.385 81 641.385 81 694.192 c 128,-1,27
 81 747 81 747 138 795.5 c 128,-1,28
 195 844 195 844 274 872 c 128,-1,29
 353 900 353 900 423 900 c 0,30,31
 555 900 555 900 612.5 826.5 c 128,-1,32
 670 753 670 753 670 593 c 2,33,-1
 670 230 l 2,34,35
 670 160 670 160 691.5 133.5 c 128,-1,36
 713 107 713 107 782 96 c 1,37,-1
 832 87 l 1,38,-1
 819 1 l 1,39,40
 811 0 811 0 764.5 -9 c 128,-1,41
 718 -18 718 -18 683 -18 c 0,42,43
 604 -18 604 -18 566 23 c 128,-1,44
 528 64 528 64 528 116 c 2,45,-1
 528 131 l 1,46,-1
 517 131 l 1,47,48
 492.5 82 492.5 82 446.25 45 c 0,49,50
 360 -24 360 -24 260.5 -24 c 128,-1,9
 161 -24 161 -24 104 28 c 128,-1,10
EndSplineSet
Validated: 543745
Colour: ffffff
EndChar

StartChar: aacute
Encoding: 225 225 126
Width: 830
VWidth: 0
Flags: W
HStem: -24 123<247.639 411.306> 1 86<782 819> 804 96<252.241 444.385>
VStem: 47 175<121.673 305.213> 81 139<610.017 750.801> 508 162<149.469 428 481.274 738>
LayerCount: 2
Fore
SplineSet
328 1017 m 1,0,-1
 451 1342 l 1,1,-1
 562 1302 l 1,2,-1
 380 985 l 1,3,-1
 328 1017 l 1,0,-1
222 215 m 0,4,5
 222 173 222 173 252.5 136 c 128,-1,6
 283 99 283 99 332.5 99 c 128,-1,7
 382 99 382 99 430 127 c 128,-1,8
 478 155 478 155 508 188 c 1,9,-1
 508 428 l 1,10,11
 352 397 352 397 287 344.5 c 128,-1,12
 222 292 222 292 222 215 c 0,4,5
508 540 m 2,13,14
 508 804 508 804 331 804 c 0,15,16
 268.203 804 268.203 804 249 752.5 c 0,17,18
 228.878 698.537 228.878 698.537 220 592 c 1,19,20
 145.2 592 145.2 592 123.1 609 c 0,21,22
 81 641.385 81 641.385 81 694.192 c 128,-1,23
 81 747 81 747 138 795.5 c 128,-1,24
 195 844 195 844 274 872 c 128,-1,25
 353 900 353 900 423 900 c 0,26,27
 555 900 555 900 612.5 826.5 c 128,-1,28
 670 753 670 753 670 593 c 2,29,-1
 670 230 l 2,30,31
 670 160 670 160 691.5 133.5 c 128,-1,32
 713 107 713 107 782 96 c 1,33,-1
 832 87 l 1,34,-1
 819 1 l 1,35,36
 811 0 811 0 764.5 -9 c 128,-1,37
 718 -18 718 -18 683 -18 c 0,38,39
 604 -18 604 -18 566 23 c 128,-1,40
 528 64 528 64 528 116 c 2,41,-1
 528 131 l 1,42,-1
 517 131 l 1,43,44
 492.5 82 492.5 82 446.25 45 c 0,45,46
 360 -24 360 -24 260.5 -24 c 128,-1,47
 161 -24 161 -24 104 28 c 128,-1,48
 47 80 47 80 47 152.5 c 128,-1,49
 47 225 47 225 74 276.5 c 128,-1,50
 101 328 101 328 154.5 372.5 c 0,51,52
 270.385 468.891 270.385 468.891 508 485 c 1,53,-1
 508 540 l 2,13,14
EndSplineSet
Validated: 543745
Colour: ffffff
EndChar

StartChar: abreve
Encoding: 259 259 127
Width: 830
VWidth: 0
Flags: W
HStem: -24 123<247.639 411.306> 1 86<782 819> 804 96<252.241 444.385> 1011 109<302.832 518.804>
VStem: 47 175<121.673 305.213> 81 139<610.017 750.801> 220 46<1182.96 1197.97> 508 162<149.469 428 481.274 738>
LayerCount: 2
Fore
SplineSet
222 215 m 0,0,1
 222 173 222 173 252.5 136 c 128,-1,2
 283 99 283 99 332.5 99 c 128,-1,3
 382 99 382 99 430 127 c 128,-1,4
 478 155 478 155 508 188 c 1,5,-1
 508 428 l 1,6,7
 352 397 352 397 287 344.5 c 128,-1,8
 222 292 222 292 222 215 c 0,0,1
220 1188 m 1,9,-1
 266 1220 l 1,10,11
 313.059 1120 313.059 1120 405.529 1120 c 128,-1,12
 498 1120 498 1120 551 1204 c 1,13,-1
 561 1222 l 1,14,-1
 602 1194 l 1,15,-1
 595 1173 l 2,16,17
 571 1104 571 1104 524 1057.5 c 128,-1,18
 477 1011 477 1011 406.5 1011 c 128,-1,19
 336 1011 336 1011 288 1057.5 c 0,20,21
 237.091 1106.82 237.091 1106.82 220 1188 c 1,9,-1
508 540 m 2,22,23
 508 804 508 804 331 804 c 0,24,25
 268.203 804 268.203 804 249 752.5 c 0,26,27
 228.878 698.537 228.878 698.537 220 592 c 1,28,29
 145.2 592 145.2 592 123.1 609 c 0,30,31
 81 641.385 81 641.385 81 694.192 c 128,-1,32
 81 747 81 747 138 795.5 c 128,-1,33
 195 844 195 844 274 872 c 128,-1,34
 353 900 353 900 423 900 c 0,35,36
 555 900 555 900 612.5 826.5 c 128,-1,37
 670 753 670 753 670 593 c 2,38,-1
 670 230 l 2,39,40
 670 160 670 160 691.5 133.5 c 128,-1,41
 713 107 713 107 782 96 c 1,42,-1
 832 87 l 1,43,-1
 819 1 l 1,44,45
 811 0 811 0 764.5 -9 c 128,-1,46
 718 -18 718 -18 683 -18 c 0,47,48
 604 -18 604 -18 566 23 c 128,-1,49
 528 64 528 64 528 116 c 2,50,-1
 528 131 l 1,51,-1
 517 131 l 1,52,53
 492.5 82 492.5 82 446.25 45 c 0,54,55
 360 -24 360 -24 260.5 -24 c 128,-1,56
 161 -24 161 -24 104 28 c 128,-1,57
 47 80 47 80 47 152.5 c 128,-1,58
 47 225 47 225 74 276.5 c 128,-1,59
 101 328 101 328 154.5 372.5 c 0,60,61
 270.385 468.891 270.385 468.891 508 485 c 1,62,-1
 508 540 l 2,22,23
EndSplineSet
Validated: 543745
Colour: ffffff
EndChar

StartChar: acaron
Encoding: 462 462 128
Width: 830
VWidth: 0
Flags: W
HStem: -24 123<247.639 411.306> 1 86<782 819> 804 96<252.241 444.385>
VStem: 47 175<121.673 305.213> 81 139<610.017 750.801> 508 162<149.469 428 481.274 738>
DStem2: 276 1220 196 1159 0.733231 -0.67998<0 207.222> 436 1077 430 1007 0.692867 0.721065<0 186.172>
LayerCount: 2
Fore
SplineSet
222 215 m 0,0,1
 222 173 222 173 252.5 136 c 128,-1,2
 283 99 283 99 332.5 99 c 128,-1,3
 382 99 382 99 430 127 c 128,-1,4
 478 155 478 155 508 188 c 1,5,-1
 508 428 l 1,6,7
 352 397 352 397 287 344.5 c 128,-1,8
 222 292 222 292 222 215 c 0,0,1
196 1159 m 1,9,-1
 276 1220 l 1,10,-1
 426 1077 l 1,11,-1
 436 1077 l 1,12,-1
 559 1217 l 1,13,-1
 602 1186 l 1,14,-1
 430 1007 l 1,15,-1
 375 993 l 1,16,-1
 196 1159 l 1,9,-1
508 540 m 2,17,18
 508 804 508 804 331 804 c 0,19,20
 268.203 804 268.203 804 249 752.5 c 0,21,22
 228.878 698.537 228.878 698.537 220 592 c 1,23,24
 145.2 592 145.2 592 123.1 609 c 0,25,26
 81 641.385 81 641.385 81 694.192 c 128,-1,27
 81 747 81 747 138 795.5 c 128,-1,28
 195 844 195 844 274 872 c 128,-1,29
 353 900 353 900 423 900 c 0,30,31
 555 900 555 900 612.5 826.5 c 128,-1,32
 670 753 670 753 670 593 c 2,33,-1
 670 230 l 2,34,35
 670 160 670 160 691.5 133.5 c 128,-1,36
 713 107 713 107 782 96 c 1,37,-1
 832 87 l 1,38,-1
 819 1 l 1,39,40
 811 0 811 0 764.5 -9 c 128,-1,41
 718 -18 718 -18 683 -18 c 0,42,43
 604 -18 604 -18 566 23 c 128,-1,44
 528 64 528 64 528 116 c 2,45,-1
 528 131 l 1,46,-1
 517 131 l 1,47,48
 492.5 82 492.5 82 446.25 45 c 0,49,50
 360 -24 360 -24 260.5 -24 c 128,-1,51
 161 -24 161 -24 104 28 c 128,-1,52
 47 80 47 80 47 152.5 c 128,-1,53
 47 225 47 225 74 276.5 c 128,-1,54
 101 328 101 328 154.5 372.5 c 0,55,56
 270.385 468.891 270.385 468.891 508 485 c 1,57,-1
 508 540 l 2,17,18
EndSplineSet
Validated: 543745
Colour: ffffff
EndChar

StartChar: acircumflex
Encoding: 226 226 129
Width: 830
VWidth: 0
Flags: W
HStem: -24 123<247.639 411.306> 1 86<782 819> 804 96<252.241 444.385>
VStem: 47 175<121.673 305.213> 81 139<610.017 750.801> 508 162<149.469 428 481.274 738>
LayerCount: 2
Fore
SplineSet
222 215 m 0,0,1
 222 173 222 173 252.5 136 c 128,-1,2
 283 99 283 99 332.5 99 c 128,-1,3
 382 99 382 99 430 127 c 128,-1,4
 478 155 478 155 508 188 c 1,5,-1
 508 428 l 1,6,7
 352 397 352 397 287 344.5 c 128,-1,8
 222 292 222 292 222 215 c 0,0,1
211 1024 m 1,9,-1
 380 1203 l 1,10,-1
 434 1217 l 1,11,-1
 611 1032 l 1,12,-1
 562 995 l 1,13,-1
 399 1104 l 1,14,-1
 389 1104 l 1,15,-1
 249 993 l 1,16,-1
 211 1024 l 1,9,-1
508 540 m 2,17,18
 508 804 508 804 331 804 c 0,19,20
 268.203 804 268.203 804 249 752.5 c 0,21,22
 228.878 698.537 228.878 698.537 220 592 c 1,23,24
 145.2 592 145.2 592 123.1 609 c 0,25,26
 81 641.385 81 641.385 81 694.192 c 128,-1,27
 81 747 81 747 138 795.5 c 128,-1,28
 195 844 195 844 274 872 c 128,-1,29
 353 900 353 900 423 900 c 0,30,31
 555 900 555 900 612.5 826.5 c 128,-1,32
 670 753 670 753 670 593 c 2,33,-1
 670 230 l 2,34,35
 670 160 670 160 691.5 133.5 c 128,-1,36
 713 107 713 107 782 96 c 1,37,-1
 832 87 l 1,38,-1
 819 1 l 1,39,40
 811 0 811 0 764.5 -9 c 128,-1,41
 718 -18 718 -18 683 -18 c 0,42,43
 604 -18 604 -18 566 23 c 128,-1,44
 528 64 528 64 528 116 c 2,45,-1
 528 131 l 1,46,-1
 517 131 l 1,47,48
 492.5 82 492.5 82 446.25 45 c 0,49,50
 360 -24 360 -24 260.5 -24 c 128,-1,51
 161 -24 161 -24 104 28 c 128,-1,52
 47 80 47 80 47 152.5 c 128,-1,53
 47 225 47 225 74 276.5 c 128,-1,54
 101 328 101 328 154.5 372.5 c 0,55,56
 270.385 468.891 270.385 468.891 508 485 c 1,57,-1
 508 540 l 2,17,18
EndSplineSet
Validated: 543745
Colour: ffffff
EndChar

StartChar: acute
Encoding: 180 180 130
Width: 520
VWidth: 0
Flags: W
HStem: 1348 357
VStem: 172 234
LayerCount: 2
Fore
SplineSet
172 1380 m 1,0,-1
 295 1705 l 1,1,-1
 406 1666 l 1,2,-1
 223 1348 l 1,3,-1
 172 1380 l 1,0,-1
EndSplineSet
Validated: 19457
Colour: ffffff
EndChar

StartChar: adieresis
Encoding: 228 228 131
Width: 830
VWidth: 0
Flags: W
HStem: -24 123<247.639 411.306> 1 86<782 819> 804 96<252.241 444.385> 1004 159<215.814 332.186 483.299 600.67>
VStem: 47 175<121.673 305.213> 81 139<610.017 750.801> 189 170<1027.21 1139.79> 457 171<1027.21 1139.79> 508 162<149.469 428 481.274 738>
LayerCount: 2
Fore
SplineSet
481.5 1026.5 m 128,-1,1
 457 1049 457 1049 457 1083.5 c 128,-1,2
 457 1118 457 1118 482.5 1140.5 c 128,-1,3
 508 1163 508 1163 541 1163 c 128,-1,4
 574 1163 574 1163 601 1140 c 128,-1,5
 628 1117 628 1117 628 1083 c 128,-1,6
 628 1049 628 1049 601.5 1026.5 c 128,-1,7
 575 1004 575 1004 540.5 1004 c 128,-1,0
 506 1004 506 1004 481.5 1026.5 c 128,-1,1
222 215 m 0,8,9
 222 173 222 173 252.5 136 c 128,-1,10
 283 99 283 99 332.5 99 c 128,-1,11
 382 99 382 99 430 127 c 128,-1,12
 478 155 478 155 508 188 c 1,13,-1
 508 428 l 1,14,15
 352 397 352 397 287 344.5 c 128,-1,16
 222 292 222 292 222 215 c 0,8,9
214 1026.5 m 128,-1,18
 189 1049 189 1049 189 1083.5 c 128,-1,19
 189 1118 189 1118 215 1140.5 c 128,-1,20
 241 1163 241 1163 274 1163 c 128,-1,21
 307 1163 307 1163 333 1140.5 c 128,-1,22
 359 1118 359 1118 359 1083.5 c 128,-1,23
 359 1049 359 1049 333.5 1026.5 c 128,-1,24
 308 1004 308 1004 273.5 1004 c 128,-1,17
 239 1004 239 1004 214 1026.5 c 128,-1,18
508 540 m 2,25,26
 508 804 508 804 331 804 c 0,27,28
 268.203 804 268.203 804 249 752.5 c 0,29,30
 228.878 698.537 228.878 698.537 220 592 c 1,31,32
 145.2 592 145.2 592 123.1 609 c 0,33,34
 81 641.385 81 641.385 81 694.192 c 128,-1,35
 81 747 81 747 138 795.5 c 128,-1,36
 195 844 195 844 274 872 c 128,-1,37
 353 900 353 900 423 900 c 0,38,39
 555 900 555 900 612.5 826.5 c 128,-1,40
 670 753 670 753 670 593 c 2,41,-1
 670 230 l 2,42,43
 670 160 670 160 691.5 133.5 c 128,-1,44
 713 107 713 107 782 96 c 1,45,-1
 832 87 l 1,46,-1
 819 1 l 1,47,48
 811 0 811 0 764.5 -9 c 128,-1,49
 718 -18 718 -18 683 -18 c 0,50,51
 604 -18 604 -18 566 23 c 128,-1,52
 528 64 528 64 528 116 c 2,53,-1
 528 131 l 1,54,-1
 517 131 l 1,55,56
 492.5 82 492.5 82 446.25 45 c 0,57,58
 360 -24 360 -24 260.5 -24 c 128,-1,59
 161 -24 161 -24 104 28 c 128,-1,60
 47 80 47 80 47 152.5 c 128,-1,61
 47 225 47 225 74 276.5 c 128,-1,62
 101 328 101 328 154.5 372.5 c 0,63,64
 270.385 468.891 270.385 468.891 508 485 c 1,65,-1
 508 540 l 2,25,26
EndSplineSet
Validated: 543745
Colour: ffffff
EndChar

StartChar: ae
Encoding: 230 230 132
Width: 1238
VWidth: 0
Flags: W
HStem: -24 107<237.282 423.398 807.24 1084.19> 409 75<352.427 507> 801 99<255.029 447.801 760.672 954.819>
VStem: 45 175<99.7764 298.283> 507 163<246.809 409 507 693.787> 992 177<542.234 764.295>
LayerCount: 2
Fore
SplineSet
670 507 m 1,0,-1
 983 543 l 1,1,2
 992 579 992 579 992 615 c 0,3,4
 992 801 992 801 851 801 c 0,5,6
 786 801 786 801 731.5 722.5 c 128,-1,7
 677 644 677 644 670 507 c 1,0,-1
220 203 m 0,8,9
 220 83 220 83 334 83 c 0,10,11
 397 83 397 83 452 136 c 128,-1,12
 507 189 507 189 507 262 c 2,13,-1
 507 409 l 1,14,15
 324.23 378.873 324.23 378.873 269 326.5 c 0,16,17
 220 280.034 220 280.034 220 203 c 0,8,9
1194 104 m 1,18,19
 1066.38 -30 1066.38 -30 866 -30 c 0,20,21
 731.459 -30 731.459 -30 623.5 62 c 0,22,23
 566 111 566 111 552 175 c 1,24,25
 520 79 520 79 436 27.5 c 128,-1,26
 352 -24 352 -24 255 -24 c 128,-1,27
 158 -24 158 -24 101.5 23 c 128,-1,28
 45 70 45 70 45 142.5 c 128,-1,29
 45 215 45 215 67 261.5 c 128,-1,30
 89 308 89 308 140 350.5 c 0,31,32
 243.042 436.369 243.042 436.369 507 484 c 1,33,-1
 507 540 l 2,34,35
 507 801 507 801 341 801 c 0,36,37
 301.471 801 301.471 801 287.235 790 c 2,38,-1
 265.5 773 l 2,39,40
 258 767 258 767 251.5 750.5 c 2,41,-1
 241.5 724.5 l 2,42,43
 235.034 706.949 235.034 706.949 231.017 673.475 c 2,44,-1
 223 608 l 1,45,46
 126.867 608 126.867 608 100 654.5 c 0,47,48
 87 677 87 677 87 720.5 c 128,-1,49
 87 764 87 764 142.5 808.5 c 128,-1,50
 198 853 198 853 275 876.5 c 128,-1,51
 352 900 352 900 423 900 c 0,52,53
 582 900 582 900 623 777 c 1,54,55
 745 899 745 899 900 899 c 0,56,57
 1015 899 1015 899 1092 815.5 c 128,-1,58
 1169 732 1169 732 1169 581 c 0,59,60
 1169 522 1169 522 1151 445 c 1,61,-1
 670 426 l 1,62,63
 676.101 299.919 676.101 299.919 741 197.5 c 0,64,65
 811.653 86 811.653 86 947 86 c 0,66,67
 1002 86 1002 86 1050.5 100 c 128,-1,68
 1099 114 1099 114 1174 155 c 1,69,-1
 1194 104 l 1,18,19
EndSplineSet
Validated: 543745
Colour: ffffff
EndChar

StartChar: agrave
Encoding: 224 224 133
Width: 830
VWidth: 0
Flags: W
HStem: -24 123<228.639 392.306> 1 86<763 800> 807 93<235.354 425.385>
VStem: 28 175<121.673 305.213> 62 139<610.017 783.308> 489 162<149.469 428 481.274 738.587>
LayerCount: 2
Fore
SplineSet
203 215 m 0,0,1
 203 173 203 173 233.5 136 c 128,-1,2
 264 99 264 99 313.5 99 c 128,-1,3
 363 99 363 99 411 127 c 128,-1,4
 459 155 459 155 489 188 c 1,5,-1
 489 428 l 1,6,7
 333 397 333 397 268 344.5 c 128,-1,8
 203 292 203 292 203 215 c 0,0,1
85 28 m 128,-1,10
 28 80 28 80 28 152.5 c 128,-1,11
 28 225 28 225 55 276.5 c 128,-1,12
 82 328 82 328 135.5 372.5 c 0,13,14
 251.385 468.891 251.385 468.891 489 485 c 1,15,-1
 489 540 l 2,16,17
 489 807 489 807 312 807 c 0,18,19
 257.429 807 257.429 807 241.714 787 c 128,-1,20
 226 767 226 767 220 743.5 c 0,21,22
 201 669.083 201 669.083 201 592 c 1,23,24
 126.2 592 126.2 592 104.1 609 c 0,25,26
 62 641.385 62 641.385 62 694.192 c 128,-1,27
 62 747 62 747 119 795.5 c 128,-1,28
 176 844 176 844 255 872 c 128,-1,29
 334 900 334 900 404 900 c 0,30,31
 536 900 536 900 593.5 826.5 c 128,-1,32
 651 753 651 753 651 593 c 2,33,-1
 651 230 l 2,34,35
 651 160 651 160 672.5 133.5 c 128,-1,36
 694 107 694 107 763 96 c 1,37,-1
 813 87 l 1,38,-1
 800 1 l 1,39,40
 792 0 792 0 745.5 -9 c 128,-1,41
 699 -18 699 -18 664 -18 c 0,42,43
 585 -18 585 -18 547 23 c 128,-1,44
 509 64 509 64 509 116 c 2,45,-1
 509 131 l 1,46,-1
 498 131 l 1,47,48
 473.5 82 473.5 82 427.25 45 c 0,49,50
 341 -24 341 -24 241.5 -24 c 128,-1,9
 142 -24 142 -24 85 28 c 128,-1,10
158 1291 m 1,51,-1
 273 1329 l 1,52,-1
 405 996 l 1,53,-1
 349 961 l 1,54,-1
 158 1291 l 1,51,-1
EndSplineSet
Validated: 543745
Colour: ffffff
EndChar

StartChar: uni05D0
Encoding: 1488 1488 134
Width: 835
VWidth: 0
Flags: W
HStem: 0 21G<99.9206 321.5>
VStem: 104 107<301.523 477.096> 154 179<82.7214 252.412> 639 117<631.053 766.75>
DStem2: 230 862 83 782 0.609617 -0.792696<0 225.233 270.426 495.207 553.801 892.8>
LayerCount: 2
Fore
SplineSet
83 782 m 1,0,-1
 83 803 l 1,1,-1
 180 964 l 1,2,-1
 238 938 l 1,3,-1
 230 862 l 1,4,-1
 530 468 l 1,5,-1
 533 468 l 1,6,-1
 622 615 l 1,7,8
 639 648 639 648 639 660 c 128,-1,9
 639 672 639 672 633 676 c 2,10,-1
 510 777 l 1,11,-1
 502 805 l 1,12,-1
 589 966 l 1,13,-1
 640 956 l 1,14,-1
 643 897 l 1,15,-1
 717 828 l 1,16,17
 756 789 756 789 756 744.5 c 128,-1,18
 756 700 756 700 707 624 c 1,19,-1
 565 421 l 1,20,-1
 770 151 l 1,21,-1
 738 -32 l 1,22,-1
 709 -32 l 1,23,-1
 264 547 l 1,24,25
 211 476 211 476 211 431 c 128,-1,26
 211 386 211 386 230 347.5 c 128,-1,27
 249 309 249 309 272 276.5 c 0,28,29
 333 190.304 333 190.304 333 125.152 c 128,-1,30
 333 60 333 60 310 0 c 1,31,-1
 105 0 l 1,32,-1
 89 63 l 1,33,-1
 149 92 l 1,34,35
 154 104 154 104 154 122 c 128,-1,36
 154 140 154 140 129 219 c 128,-1,37
 104 298 104 298 104 347.5 c 128,-1,38
 104 397 104 397 141.5 464.5 c 128,-1,39
 179 532 179 532 230 590 c 1,40,-1
 83 782 l 1,0,-1
EndSplineSet
Validated: 543745
Colour: ffffff
EndChar

StartChar: amacron
Encoding: 257 257 135
Width: 830
VWidth: 0
Flags: W
HStem: -24 123<247.639 411.306> 1 86<782 819> 804 96<252.241 444.385> 1015 101<196 623>
VStem: 47 175<121.673 305.213> 81 139<610.017 750.801> 508 162<149.469 428 481.274 738>
LayerCount: 2
Fore
SplineSet
222 215 m 0,0,1
 222 173 222 173 252.5 136 c 128,-1,2
 283 99 283 99 332.5 99 c 128,-1,3
 382 99 382 99 430 127 c 128,-1,4
 478 155 478 155 508 188 c 1,5,-1
 508 428 l 1,6,7
 352 397 352 397 287 344.5 c 128,-1,8
 222 292 222 292 222 215 c 0,0,1
182 1015 m 1,9,-1
 196 1116 l 1,10,-1
 636 1116 l 1,11,-1
 623 1015 l 1,12,-1
 182 1015 l 1,9,-1
508 540 m 2,13,14
 508 804 508 804 331 804 c 0,15,16
 268.203 804 268.203 804 249 752.5 c 0,17,18
 228.878 698.537 228.878 698.537 220 592 c 1,19,20
 145.2 592 145.2 592 123.1 609 c 0,21,22
 81 641.385 81 641.385 81 694.192 c 128,-1,23
 81 747 81 747 138 795.5 c 128,-1,24
 195 844 195 844 274 872 c 128,-1,25
 353 900 353 900 423 900 c 0,26,27
 555 900 555 900 612.5 826.5 c 128,-1,28
 670 753 670 753 670 593 c 2,29,-1
 670 230 l 2,30,31
 670 160 670 160 691.5 133.5 c 128,-1,32
 713 107 713 107 782 96 c 1,33,-1
 832 87 l 1,34,-1
 819 1 l 1,35,36
 811 0 811 0 764.5 -9 c 128,-1,37
 718 -18 718 -18 683 -18 c 0,38,39
 604 -18 604 -18 566 23 c 128,-1,40
 528 64 528 64 528 116 c 2,41,-1
 528 131 l 1,42,-1
 517 131 l 1,43,44
 492.5 82 492.5 82 446.25 45 c 0,45,46
 360 -24 360 -24 260.5 -24 c 128,-1,47
 161 -24 161 -24 104 28 c 128,-1,48
 47 80 47 80 47 152.5 c 128,-1,49
 47 225 47 225 74 276.5 c 128,-1,50
 101 328 101 328 154.5 372.5 c 0,51,52
 270.385 468.891 270.385 468.891 508 485 c 1,53,-1
 508 540 l 2,13,14
EndSplineSet
Validated: 543745
Colour: ffffff
EndChar

StartChar: ampersand
Encoding: 38 38 136
Width: 1281
VWidth: 0
Flags: W
HStem: -19 124<309.151 561.887> 761 76<823 864.541 1182.51 1245> 1188 83<382.516 571.941>
VStem: 33 188<205.494 483.539> 178 160<890.533 1118.36> 616 170<878.547 1148.91>
DStem2: 556 705 372 629 0.681772 -0.731565<0 344.77 492.626 839.845> 787 449 859 380 0.538123 0.842866<0 322.822>
LayerCount: 2
Fore
SplineSet
616 988 m 0,0,1
 616 1188 616 1188 474 1188 c 0,2,3
 413 1188 413 1188 375.5 1139 c 128,-1,4
 338 1090 338 1090 338 1023 c 128,-1,5
 338 956 338 956 385 886 c 128,-1,6
 432 816 432 816 488 773 c 1,7,8
 533 803 533 803 557.5 827 c 0,9,10
 616 884.306 616 884.306 616 988 c 0,0,1
355 632 m 1,11,12
 221 539.586 221 539.586 221 404.793 c 128,-1,13
 221 270 221 270 276.5 187.5 c 128,-1,14
 332 105 332 105 425.5 105 c 128,-1,15
 519 105 519 105 584.5 159 c 128,-1,16
 650 213 650 213 685 282 c 1,17,-1
 372 629 l 1,18,-1
 355 632 l 1,11,12
494 1271 m 0,19,20
 786 1271 786 1271 786 1011 c 0,21,22
 786 856 786 856 556 716 c 1,23,-1
 556 705 l 1,24,-1
 787 449 l 1,25,-1
 964 719 l 1,26,-1
 813 761 l 1,27,-1
 823 837 l 1,28,-1
 1255 837 l 1,29,-1
 1245 761 l 1,30,-1
 1075 722 l 1,31,-1
 859 380 l 1,32,33
 1113 106 1113 106 1202 79 c 1,34,-1
 1235 70 l 1,35,-1
 1220 0 l 1,36,37
 1166 -19 1166 -19 1113.5 -19 c 128,-1,38
 1061 -19 1061 -19 1023 -6 c 128,-1,39
 985 7 985 7 951 32.5 c 0,40,41
 897.606 72.5454 897.606 72.5454 844 128 c 2,42,-1
 756 218 l 1,43,44
 680.556 107.735 680.556 107.735 620.278 61.3675 c 0,45,46
 515.8 -19 515.8 -19 370.4 -19 c 128,-1,47
 225 -19 225 -19 129 72 c 128,-1,48
 33 163 33 163 33 313 c 0,49,50
 33 544 33 544 310 701 c 1,51,52
 256 746 256 746 217 820 c 128,-1,53
 178 894 178 894 178 974 c 0,54,55
 178 1090 178 1090 275.5 1180.5 c 128,-1,56
 373 1271 373 1271 494 1271 c 0,19,20
EndSplineSet
Validated: 543745
Colour: ffffff
EndChar

StartChar: aogonek
Encoding: 261 261 137
Width: 835
VWidth: 0
Flags: W
HStem: -386 51<819.989 830.838> -24 123<247.639 411.306> 1 86<789.167 819> 804 96<252.241 444.385>
VStem: 47 175<121.673 305.213> 81 139<610.017 750.801> 508 162<149.469 428 481.274 738> 584 147<-268.317 -93.59>
LayerCount: 2
Fore
SplineSet
222 215 m 0,0,1
 222 173 222 173 252.5 136 c 128,-1,2
 283 99 283 99 332.5 99 c 128,-1,3
 382 99 382 99 430 127 c 128,-1,4
 478 155 478 155 508 188 c 1,5,-1
 508 428 l 1,6,7
 352 397 352 397 287 344.5 c 128,-1,8
 222 292 222 292 222 215 c 0,0,1
731 -148 m 0,9,10
 731 -260.781 731 -260.781 856 -335 c 1,11,-1
 821 -386 l 1,12,13
 715 -375 715 -375 649.5 -324.5 c 128,-1,14
 584 -274 584 -274 584 -208 c 0,15,16
 584 -167 584 -167 607.5 -124.5 c 128,-1,17
 631 -82 631 -82 700 -18 c 1,18,-1
 683 -18 l 2,19,20
 604 -18 604 -18 566 23 c 128,-1,21
 528 64 528 64 528 116 c 2,22,-1
 528 131 l 1,23,-1
 517 131 l 1,24,25
 492.5 82 492.5 82 446.25 45 c 0,26,27
 360 -24 360 -24 260.5 -24 c 128,-1,28
 161 -24 161 -24 104 28 c 128,-1,29
 47 80 47 80 47 152.5 c 128,-1,30
 47 225 47 225 74 276.5 c 128,-1,31
 101 328 101 328 154.5 372.5 c 0,32,33
 270.385 468.891 270.385 468.891 508 485 c 1,34,-1
 508 540 l 2,35,36
 508 804 508 804 331 804 c 0,37,38
 268.203 804 268.203 804 249 752.5 c 0,39,40
 228.878 698.537 228.878 698.537 220 592 c 1,41,42
 145.2 592 145.2 592 123.1 609 c 0,43,44
 81 641.385 81 641.385 81 694.192 c 128,-1,45
 81 747 81 747 138 795.5 c 128,-1,46
 195 844 195 844 274 872 c 128,-1,47
 353 900 353 900 423 900 c 0,48,49
 555 900 555 900 612.5 826.5 c 128,-1,50
 670 753 670 753 670 593 c 2,51,-1
 670 230 l 2,52,53
 670 160 670 160 691.5 133.5 c 128,-1,54
 713 107 713 107 782 96 c 1,55,-1
 832 87 l 1,56,-1
 819 1 l 1,57,58
 794.2 -3 794.2 -3 789 -3 c 1,59,60
 731 -100 731 -100 731 -148 c 0,9,10
EndSplineSet
Validated: 543745
Colour: ffffff
EndChar

StartChar: approxequal
Encoding: 8776 8776 138
Width: 921
VWidth: 0
Flags: W
HStem: 370 545
VStem: 70 56<383 415.508 700 736.771> 792 64<550.418 597 864.316 913>
DStem2: 260 898 208 756 0.995254 -0.0973137<-87.3928 520.881> 260 582 208 440 0.995037 -0.0995037<-98.6289 520.895>
LayerCount: 2
Back
SplineSet
3.39062 725 m 5,0,1
 -3.45327 787.217 -3.45327 787.217 3.39061 845.048 c 0
 10.2345 902.879 10.2345 902.879 32.6706 955.304 c 0
 55.1068 1007.73 55.1068 1007.73 95.5507 1040.94 c 0
 135.995 1074.14 135.995 1074.14 196.351 1087.11 c 0
 256.707 1100.08 256.707 1100.08 339.391 1079 c 2,2,-1
 681.391 996 l 2,3,4
 700.711 991.52 700.711 991.52 718.736 999.039 c 0
 736.761 1006.56 736.761 1006.56 748.686 1020.49 c 0
 760.611 1034.42 760.611 1034.42 769.776 1048.99 c 0
 778.941 1063.56 778.941 1063.56 783.166 1074.28 c 2
 787.391 1085 l 1,5,-1
 961.391 1067 l 1,6,7
 959.887 858.008 959.887 858.008 865.3 774.56 c 0
 770.713 691.112 770.713 691.112 587.391 739 c 2,8,-1
 272.391 821 l 2,9,10
 249.151 827.16 249.151 827.16 231.229 818.508 c 0
 213.307 809.856 213.307 809.856 204.329 793.108 c 0
 195.351 776.36 195.351 776.36 189.693 758.732 c 0
 184.035 741.104 184.035 741.104 182.713 728.052 c 2
 181.391 715 l 1,11,-1
 3.39062 725 l 5,0,1
3.39062 322 m 5,12,13
 -3.45327 384.217 -3.45327 384.217 3.39061 442.048 c 0
 10.2345 499.879 10.2345 499.879 32.6706 552.304 c 0
 55.1068 604.729 55.1068 604.729 95.5507 637.936 c 0
 135.995 671.143 135.995 671.143 196.351 684.112 c 0
 256.707 697.081 256.707 697.081 339.391 676 c 2,14,-1
 681.391 593 l 2,15,16
 700.711 588.52 700.711 588.52 718.736 596.039 c 0
 736.761 603.558 736.761 603.558 748.686 617.489 c 0
 760.611 631.42 760.611 631.42 769.776 645.991 c 0
 778.941 660.562 778.941 660.562 783.166 671.281 c 2
 787.391 682 l 1,17,-1
 961.391 664 l 1,18,19
 959.887 455.008 959.887 455.008 865.3 371.56 c 0
 770.713 288.112 770.713 288.112 587.391 336 c 2,20,-1
 272.391 418 l 2,21,22
 249.151 424.16 249.151 424.16 231.229 415.508 c 0
 213.307 406.856 213.307 406.856 204.329 390.108 c 0
 195.351 373.36 195.351 373.36 189.693 355.732 c 0
 184.035 338.104 184.035 338.104 182.713 325.052 c 2
 181.391 312 l 1,23,-1
 3.39062 322 l 5,12,13
EndSplineSet
Fore
SplineSet
70 700 m 1,0,1
 65 787 65 787 115.5 847 c 128,-1,2
 166 907 166 907 260 898 c 2,3,-1
 709 854 l 1,4,5
 774 846 774 846 792 915 c 1,6,-1
 856 913 l 1,7,8
 860 816 860 816 811 759 c 128,-1,9
 762 702 762 702 658 712 c 2,10,-1
 208 756 l 2,11,12
 171.053 759.889 171.053 759.889 156.527 741.945 c 0,13,14
 132.234 711.936 132.234 711.936 126 687 c 1,15,-1
 70 700 l 1,0,1
70 383 m 1,16,17
 65.7765 452.687 65.7765 452.687 113.5 519.5 c 0,18,19
 136 551 136 551 175 569 c 128,-1,20
 214 587 214 587 260 582 c 2,21,-1
 709 538 l 2,22,23
 773.808 531.296 773.808 531.296 792 598 c 1,24,-1
 856 597 l 1,25,26
 858 505 858 505 804.5 445.5 c 128,-1,27
 751 386 751 386 658 395 c 2,28,-1
 208 440 l 2,29,30
 176 443 176 443 155 418.5 c 128,-1,31
 134 394 134 394 126 370 c 1,32,-1
 70 383 l 1,16,17
EndSplineSet
Validated: 543777
Colour: ffffff
EndChar

StartChar: aring
Encoding: 229 229 139
Width: 830
VWidth: 0
Flags: W
HStem: -24 123<247.639 411.306> 1 86<782 819> 804 96<252.241 444.385> 1002 48<336.277 453.142> 1291 47<328.297 440.867>
VStem: 47 175<121.673 305.213> 81 139<610.017 750.801> 228 70<1076.9 1262.64> 480 71<1069.22 1264.32> 508 162<149.469 428 481.274 738>
LayerCount: 2
Fore
SplineSet
320 1257.5 m 128,-1,1
 298 1224 298 1224 298 1176 c 128,-1,2
 298 1128 298 1128 323.5 1089 c 128,-1,3
 349 1050 349 1050 392 1050 c 0,4,5
 480 1050 480 1050 480 1164 c 0,6,7
 480 1214 480 1214 454 1252.5 c 128,-1,8
 428 1291 428 1291 385 1291 c 128,-1,0
 342 1291 342 1291 320 1257.5 c 128,-1,1
270.5 1046.5 m 128,-1,10
 228 1091 228 1091 228 1163.5 c 128,-1,11
 228 1236 228 1236 277.5 1287 c 128,-1,12
 327 1338 327 1338 397 1338 c 128,-1,13
 467 1338 467 1338 509 1293 c 128,-1,14
 551 1248 551 1248 551 1177.5 c 128,-1,15
 551 1107 551 1107 504 1054.5 c 128,-1,16
 457 1002 457 1002 385 1002 c 128,-1,9
 313 1002 313 1002 270.5 1046.5 c 128,-1,10
222 215 m 0,17,18
 222 173 222 173 252.5 136 c 128,-1,19
 283 99 283 99 332.5 99 c 128,-1,20
 382 99 382 99 430 127 c 128,-1,21
 478 155 478 155 508 188 c 1,22,-1
 508 428 l 1,23,24
 352 397 352 397 287 344.5 c 128,-1,25
 222 292 222 292 222 215 c 0,17,18
508 540 m 2,26,27
 508 804 508 804 331 804 c 0,28,29
 268.203 804 268.203 804 249 752.5 c 0,30,31
 228.878 698.537 228.878 698.537 220 592 c 1,32,33
 145.2 592 145.2 592 123.1 609 c 0,34,35
 81 641.385 81 641.385 81 694.192 c 128,-1,36
 81 747 81 747 138 795.5 c 128,-1,37
 195 844 195 844 274 872 c 128,-1,38
 353 900 353 900 423 900 c 0,39,40
 555 900 555 900 612.5 826.5 c 128,-1,41
 670 753 670 753 670 593 c 2,42,-1
 670 230 l 2,43,44
 670 160 670 160 691.5 133.5 c 128,-1,45
 713 107 713 107 782 96 c 1,46,-1
 832 87 l 1,47,-1
 819 1 l 1,48,49
 811 0 811 0 764.5 -9 c 128,-1,50
 718 -18 718 -18 683 -18 c 0,51,52
 604 -18 604 -18 566 23 c 128,-1,53
 528 64 528 64 528 116 c 2,54,-1
 528 131 l 1,55,-1
 517 131 l 1,56,57
 492.5 82 492.5 82 446.25 45 c 0,58,59
 360 -24 360 -24 260.5 -24 c 128,-1,60
 161 -24 161 -24 104 28 c 128,-1,61
 47 80 47 80 47 152.5 c 128,-1,62
 47 225 47 225 74 276.5 c 128,-1,63
 101 328 101 328 154.5 372.5 c 0,64,65
 270.385 468.891 270.385 468.891 508 485 c 1,66,-1
 508 540 l 2,26,27
EndSplineSet
Validated: 543745
Colour: ffffff
EndChar

StartChar: asciicircum
Encoding: 94 94 140
Width: 720
VWidth: 0
Flags: W
HStem: 787 463
VStem: 42 639
LayerCount: 2
Fore
SplineSet
42 826 m 1,0,-1
 331 1237 l 1,1,-1
 386 1250 l 1,2,-1
 681 824 l 1,3,-1
 624 787 l 1,4,-1
 353 1073 l 1,5,-1
 343 1073 l 1,6,-1
 92 793 l 1,7,-1
 42 826 l 1,0,-1
EndSplineSet
Validated: 19457
Colour: ffffff
EndChar

StartChar: asciitilde
Encoding: 126 126 141
Width: 947
VWidth: 0
Flags: W
HStem: 399 229
DStem2: 274 611 222 469 0.995037 -0.0995037<-92.4155 509.02>
LayerCount: 2
Fore
SplineSet
83 412 m 1,0,1
 88.0409 434.684 88.0409 434.684 109.02 477.842 c 128,-1,2
 130 521 130 521 150 547.5 c 128,-1,3
 170 574 170 574 203.5 594.5 c 128,-1,4
 237 615 237 615 274 611 c 2,5,-1
 724 566 l 1,6,7
 756 564 756 564 806 628 c 1,8,-1
 870 626 l 1,9,-1
 862 602.5 l 2,10,11
 821.611 485.372 821.611 485.372 745 440.5 c 0,12,13
 710 420 710 420 672 424 c 2,14,-1
 222 469 l 2,15,16
 204 471 204 471 183 453.5 c 128,-1,17
 162 436 162 436 150 417.5 c 2,18,-1
 138 399 l 1,19,-1
 83 412 l 1,0,1
EndSplineSet
Validated: 543777
Colour: ffffff
EndChar

StartChar: asterisk
Encoding: 42 42 142
Width: 808
VWidth: 0
Flags: W
VStem: 328 136<1169.95 1280.37>
LayerCount: 2
Fore
SplineSet
328 1292 m 1,0,-1
 464 1279 l 1,1,-1
 438 988 l 1,2,-1
 727 1119 l 1,3,-1
 756 989 l 1,4,-1
 471 921 l 1,5,-1
 690 692 l 1,6,-1
 572 623 l 1,7,-1
 419 870 l 1,8,-1
 264 593 l 1,9,-1
 162 685 l 1,10,-1
 355 904 l 1,11,-1
 43 964 l 1,12,-1
 98 1091 l 1,13,-1
 365 977 l 1,14,-1
 328 1292 l 1,0,-1
EndSplineSet
Validated: 19457
Colour: ffffff
EndChar

StartChar: at
Encoding: 64 64 143
Width: 1367
VWidth: 0
Flags: W
HStem: -228 93<480.302 931.743> -39 20G<1057 1090.25> 59 122<538.538 651.158 782.833 1000.7> 703 86<613.044 790.232> 955 89<540.396 958.377>
VStem: 54 155<129.514 579.916> 360 156<195.1 531.684> 1173 133<369.154 752.154>
DStem2: 739 254 888 264.5 0.112337 0.99367<-49.6476 443.711>
LayerCount: 2
Fore
SplineSet
601 181 m 0,0,1
 677 181 677 181 739 254 c 1,2,-1
 792 692 l 1,3,4
 740 703 740 703 694.5 703 c 128,-1,5
 649 703 649 703 604.5 651 c 0,6,7
 516 547.584 516 547.584 516 364.292 c 128,-1,8
 516 181 516 181 601 181 c 0,0,1
832 70 m 0,9,10
 733.667 70 733.667 70 738 187 c 1,11,-1
 728 187 l 1,12,13
 693 135 693 135 643 97 c 128,-1,14
 593 59 593 59 541 59 c 0,15,16
 460 59 460 59 410 130 c 128,-1,17
 360 201 360 201 360 314.5 c 128,-1,18
 360 428 360 428 398.5 517.5 c 128,-1,19
 437 607 437 607 496.5 665 c 0,20,21
 623.707 789 623.707 789 758 789 c 0,22,23
 854 789 854 789 924 773 c 1,24,-1
 943 751 l 1,25,-1
 902 385 l 2,26,27
 901 371 901 371 897.5 346.5 c 128,-1,28
 894 322 894 322 892 304.5 c 128,-1,29
 890 287 890 287 888 264.5 c 128,-1,30
 886 242 886 242 886.5 226.5 c 128,-1,31
 887 211 887 211 889 196.5 c 0,32,33
 892.931 168 892.931 168 914 168 c 0,34,35
 1025 168 1025 168 1099 280.5 c 128,-1,36
 1173 393 1173 393 1173 566 c 128,-1,37
 1173 739 1173 739 1053.5 847 c 128,-1,38
 934 955 934 955 751 955 c 0,39,40
 631 955 631 955 528 905 c 128,-1,41
 425 855 425 855 356 771 c 0,42,43
 209 592.043 209 592.043 209 359.522 c 128,-1,44
 209 127 209 127 346 -4 c 128,-1,45
 483 -135 483 -135 727 -135 c 0,46,47
 828 -135 828 -135 931.5 -96 c 128,-1,48
 1035 -57 1035 -57 1079 -19 c 1,49,-1
 1115 -83 l 1,50,51
 1111 -85 1111 -85 1069 -111 c 128,-1,52
 1027 -137 1027 -137 1011.5 -145.5 c 128,-1,53
 996 -154 996 -154 952 -174.5 c 128,-1,54
 908 -195 908 -195 875.5 -203.5 c 0,55,56
 781.824 -228 781.824 -228 688.912 -228 c 128,-1,57
 596 -228 596 -228 507.5 -209.5 c 128,-1,58
 419 -191 419 -191 335.5 -148.5 c 128,-1,59
 252 -106 252 -106 190.5 -43.5 c 128,-1,60
 129 19 129 19 91.5 114 c 128,-1,61
 54 209 54 209 54 325 c 0,62,63
 54 523 54 523 146.5 687 c 128,-1,64
 239 851 239 851 407.5 947.5 c 128,-1,65
 576 1044 576 1044 787 1044 c 0,66,67
 927 1044 927 1044 1045 988.5 c 128,-1,68
 1163 933 1163 933 1234.5 827.5 c 128,-1,69
 1306 722 1306 722 1306 588 c 128,-1,70
 1306 454 1306 454 1245.5 335.5 c 128,-1,71
 1185 217 1185 217 1075 143.5 c 128,-1,72
 965 70 965 70 832 70 c 0,9,10
EndSplineSet
Validated: 543777
Colour: ffffff
EndChar

StartChar: atilde
Encoding: 227 227 144
Width: 830
VWidth: 0
Flags: W
HStem: -24 123<247.639 411.306> 1 86<782 819> 804 96<252.241 444.385> 1023 104<425.436 589.519> 1054 104<219.536 381.086>
VStem: 47 175<121.673 305.213> 81 139<610.017 750.801> 175 37<1011.9 1028.55> 508 162<149.469 428 481.274 738>
LayerCount: 2
Fore
SplineSet
222 215 m 0,0,1
 222 173 222 173 252.5 136 c 128,-1,2
 283 99 283 99 332.5 99 c 128,-1,3
 382 99 382 99 430 127 c 128,-1,4
 478 155 478 155 508 188 c 1,5,-1
 508 428 l 1,6,7
 352 397 352 397 287 344.5 c 128,-1,8
 222 292 222 292 222 215 c 0,0,1
271 1054 m 2,9,10
 246.739 1054 246.739 1054 212 1007 c 1,11,-1
 175 1015 l 1,12,13
 182.357 1059.14 182.357 1059.14 204.679 1093.07 c 0,14,15
 247.395 1158 247.395 1158 296 1158 c 0,16,17
 305 1158 305 1158 309 1157 c 2,18,-1
 532 1127 l 1,19,-1
 537 1127 l 2,20,21
 560 1127 560 1127 592 1169 c 1,22,-1
 640 1167 l 1,23,24
 592 1023 592 1023 510 1023 c 0,25,26
 501 1023 501 1023 497 1024 c 2,27,-1
 275 1054 l 1,28,-1
 271 1054 l 2,9,10
508 540 m 2,29,30
 508 804 508 804 331 804 c 0,31,32
 268.203 804 268.203 804 249 752.5 c 0,33,34
 228.878 698.537 228.878 698.537 220 592 c 1,35,36
 145.2 592 145.2 592 123.1 609 c 0,37,38
 81 641.385 81 641.385 81 694.192 c 128,-1,39
 81 747 81 747 138 795.5 c 128,-1,40
 195 844 195 844 274 872 c 128,-1,41
 353 900 353 900 423 900 c 0,42,43
 555 900 555 900 612.5 826.5 c 128,-1,44
 670 753 670 753 670 593 c 2,45,-1
 670 230 l 2,46,47
 670 160 670 160 691.5 133.5 c 128,-1,48
 713 107 713 107 782 96 c 1,49,-1
 832 87 l 1,50,-1
 819 1 l 1,51,52
 811 0 811 0 764.5 -9 c 128,-1,53
 718 -18 718 -18 683 -18 c 0,54,55
 604 -18 604 -18 566 23 c 128,-1,56
 528 64 528 64 528 116 c 2,57,-1
 528 131 l 1,58,-1
 517 131 l 1,59,60
 492.5 82 492.5 82 446.25 45 c 0,61,62
 360 -24 360 -24 260.5 -24 c 128,-1,63
 161 -24 161 -24 104 28 c 128,-1,64
 47 80 47 80 47 152.5 c 128,-1,65
 47 225 47 225 74 276.5 c 128,-1,66
 101 328 101 328 154.5 372.5 c 0,67,68
 270.385 468.891 270.385 468.891 508 485 c 1,69,-1
 508 540 l 2,29,30
EndSplineSet
Validated: 543745
Colour: ffffff
EndChar

StartChar: uni05E2
Encoding: 1506 1506 145
Width: 811
VWidth: 0
Flags: W
HStem: -19 21G<69.7586 202.493>
VStem: 547 58<894.131 953> 681 77<558.039 802.5>
DStem2: 94 150 87 -19 0.985335 0.170631<0 178.026 282.363 485.138>
LayerCount: 2
Fore
SplineSet
247 519 m 1,0,-1
 265 645 l 1,1,2
 265 666 265 666 247 677.5 c 128,-1,3
 229 689 229 689 195 699 c 2,4,-1
 105 723 l 1,5,-1
 87 747 l 1,6,-1
 104 945 l 1,7,-1
 161 951 l 1,8,-1
 194 870 l 1,9,-1
 260 849 l 1,10,11
 328.206 825.276 328.206 825.276 339.5 794 c 0,12,13
 346 776 346 776 346 748.5 c 128,-1,14
 346 721 346 721 335 671 c 1,15,-1
 313 582 l 2,16,17
 310 566 310 566 310 545 c 0,18,19
 310 445 310 445 377 194 c 1,20,-1
 491 211 l 2,21,22
 544.668 219.587 544.668 219.587 563 270 c 1,23,-1
 670 605 l 2,24,25
 681 639 681 639 681 664 c 128,-1,26
 681 689 681 689 650 696 c 1,27,-1
 513 734 l 1,28,-1
 500 760 l 1,29,-1
 547 953 l 1,30,-1
 605 956 l 1,31,-1
 619 884 l 1,32,-1
 712 852 l 1,33,34
 758 835 758 835 758 770 c 0,35,36
 758 732 758 732 741 650 c 1,37,-1
 637 198 l 2,38,39
 622 135 622 135 589.5 99 c 128,-1,40
 557 63 557 63 497 52 c 2,41,-1
 87 -19 l 1,42,-1
 62 10 l 1,43,-1
 94 150 l 1,44,-1
 270 177 l 1,45,-1
 253 368 l 2,46,47
 247 434 247 434 247 519 c 1,0,-1
EndSplineSet
Validated: 543745
Colour: ffffff
EndChar

StartChar: b
Encoding: 98 98 146
Width: 955
VWidth: 0
Flags: W
HStem: -23 110<329.781 628.988> 768 131<426.191 627.374> 1238 20G<11.1905 295.87>
VStem: 136 163<123.989 711.727 744 1108> 725 179<253.911 652.786>
LayerCount: 2
Fore
SplineSet
299 155 m 1,0,1
 329 125 329 125 387 106 c 128,-1,2
 445 87 445 87 510 87 c 0,3,4
 602 87 602 87 663.5 168.5 c 128,-1,5
 725 250 725 250 725 408 c 0,6,7
 725 668.506 725 668.506 600.5 744.5 c 0,8,9
 562 768 562 768 513 768 c 0,10,11
 390 768 390 768 299 672 c 1,12,-1
 299 155 l 1,0,1
-15 1161 m 1,13,-1
 -2 1237 l 1,14,-1
 275 1258 l 1,15,-1
 299 1235 l 1,16,-1
 299 849 l 1,17,-1
 285 744 l 1,18,-1
 296 744 l 1,19,20
 434 899 434 899 580 899 c 128,-1,21
 726 899 726 899 815 780.5 c 128,-1,22
 904 662 904 662 904 490.5 c 128,-1,23
 904 319 904 319 834.5 204.5 c 128,-1,24
 765 90 765 90 654 33.5 c 128,-1,25
 543 -23 543 -23 397 -23 c 128,-1,26
 251 -23 251 -23 136 49 c 1,27,-1
 136 1108 l 1,28,-1
 -15 1161 l 1,13,-1
EndSplineSet
Validated: 543745
Colour: ffffff
EndChar

StartChar: backslash
Encoding: 92 92 147
Width: 677
VWidth: 0
Flags: W
HStem: -376 21G<504 626.385>
VStem: 37 595
DStem2: 171 1266 37 1274 0.27356 -0.961855<0 1662.77>
LayerCount: 2
Fore
SplineSet
37 1274 m 1,0,-1
 171 1266 l 1,1,-1
 632 -376 l 1,2,-1
 504 -368 l 1,3,-1
 37 1274 l 1,0,-1
EndSplineSet
Validated: 19457
Colour: ffffff
EndChar

StartChar: bar
Encoding: 124 124 148
Width: 331
VWidth: 0
Flags: W
HStem: -380 21G<109 224> 1240 20G<109 224>
VStem: 109 115<-366 1248>
LayerCount: 2
Fore
SplineSet
109 -366 m 1,0,-1
 109 1260 l 1,1,-1
 224 1248 l 1,2,-1
 224 -380 l 1,3,-1
 109 -366 l 1,0,-1
EndSplineSet
Validated: 19457
Colour: ffffff
EndChar

StartChar: uni05D1
Encoding: 1489 1489 149
Width: 880
VWidth: 0
Flags: W
HStem: -16 159<101 379.858> 707 159<214 675.106>
VStem: 704 81<322 693.008>
LayerCount: 2
Fore
SplineSet
69 13 m 1,0,-1
 101 143 l 1,1,-1
 704 174 l 1,2,3
 705 202 705 202 705 254 c 128,-1,4
 705 306 705 306 704 322 c 2,5,-1
 690 632 l 2,6,7
 688 678 688 678 675.5 693.5 c 128,-1,8
 663 709 663 709 635 709 c 2,9,-1
 109 707 l 1,10,-1
 85 743 l 1,11,-1
 100 961 l 1,12,-1
 172 971 l 1,13,-1
 214 866 l 1,14,-1
 669 866 l 2,15,16
 723 866 723 866 748 823.5 c 128,-1,17
 773 781 773 781 775 673 c 2,18,-1
 785 182 l 1,19,-1
 814 155 l 1,20,-1
 788 16 l 1,21,-1
 95 -16 l 1,22,-1
 69 13 l 1,0,-1
EndSplineSet
Validated: 19457
Colour: ffffff
EndChar

StartChar: braceleft
Encoding: 123 123 150
Width: 551
VWidth: 0
Flags: W
HStem: -378 101<449 523> 389 99<4 53> 1155 100<436 518>
VStem: 193 171<-252.885 321.513 560.852 1140.11>
DStem2: 361.5 127 183.5 210.5 0.0787025 -0.996898<-237.233 399.611>
LayerCount: 2
Fore
SplineSet
4 389 m 1,0,-1
 4 488 l 1,1,-1
 53 497 l 1,2,3
 164.15 515.839 164.15 515.839 183.5 669.5 c 0,4,5
 192 737 192 737 193 816 c 128,-1,6
 194 895 194 895 200 972.5 c 128,-1,7
 206 1050 206 1050 224 1113.5 c 128,-1,8
 242 1177 242 1177 292.5 1216 c 128,-1,9
 343 1255 343 1255 426 1255 c 2,10,-1
 527 1255 l 1,11,-1
 518 1155 l 1,12,-1
 436 1149 l 2,13,14
 390 1145 390 1145 377 1089.5 c 128,-1,15
 364 1034 364 1034 364 921 c 2,16,-1
 364 862 l 2,17,18
 364 647.059 364 647.059 324 560 c 0,19,20
 282.396 469.45 282.396 469.45 194 445 c 1,21,-1
 194 438 l 1,22,23
 254 421 254 421 291.5 372.5 c 128,-1,24
 329 324 329 324 343 261.5 c 128,-1,25
 357 199 357 199 361.5 127 c 128,-1,26
 366 55 366 55 365.5 -14 c 128,-1,27
 365 -83 365 -83 369.5 -140 c 0,28,29
 379.546 -267.246 379.546 -267.246 449 -271 c 1,30,-1
 523 -277 l 1,31,-1
 531 -378 l 1,32,-1
 429 -378 l 2,33,34
 345 -378 345 -378 293.5 -338.5 c 128,-1,35
 242 -299 242 -299 223.5 -235.5 c 128,-1,36
 205 -172 205 -172 199 -94 c 128,-1,37
 193 -16 193 -16 192 63.5 c 128,-1,38
 191 143 191 143 183.5 210.5 c 0,39,40
 166.46 363.86 166.46 363.86 56 381 c 2,41,-1
 4 389 l 1,0,-1
EndSplineSet
Validated: 543777
Colour: ffffff
EndChar

StartChar: braceright
Encoding: 125 125 151
Width: 553
VWidth: 0
Flags: W
HStem: -378 101<31 105> 389 99<500 549> 1155 100<35 117>
VStem: 192.5 169<-250.818 321.641 558.572 1136.18>
LayerCount: 2
Back
SplineSet
27.8945 -475.236 m 5,0,-1
 38.2266 -348.164 l 1,1,-1
 132.24 -341.966 l 2,2,3
 169.145 -339.495 169.145 -339.495 191.579 -310.959 c 0
 214.012 -282.424 214.012 -282.424 222.858 -235.465 c 0
 231.703 -188.505 231.703 -188.505 234.307 -127.916 c 0
 236.91 -67.326 236.91 -67.326 237.347 0.952881 c 0
 237.784 69.2318 237.784 69.2318 239.995 138.594 c 0
 242.206 207.957 242.206 207.957 253.673 274.274 c 0
 265.14 340.591 265.14 340.591 286.397 395.444 c 0
 307.654 450.298 307.654 450.298 349.589 491.372 c 0
 391.523 532.445 391.523 532.445 451.477 549.622 c 1,4,-1
 451.477 557.887 l 1,5,6
 409.062 569.944 409.062 569.944 375.624 594.394 c 0
 342.185 618.844 342.185 618.844 319.995 648.21 c 0
 297.806 677.576 297.806 677.576 281.937 720.49 c 0
 266.068 763.403 266.068 763.403 257.628 801.703 c 0
 249.188 840.003 249.188 840.003 244.492 893.716 c 0
 239.795 947.429 239.795 947.429 238.707 987 c 0
 237.619 1026.57 237.619 1026.57 237.619 1082.71 c 2,7,-1
 237.619 1156.07 l 2,8,9
 237.619 1201.54 237.619 1201.54 236.788 1231.33 c 0
 235.956 1261.12 235.956 1261.12 233.155 1297.12 c 0
 230.354 1333.12 230.354 1333.12 224.266 1355.75 c 0
 218.177 1378.38 218.177 1378.38 208.437 1399.36 c 0
 198.696 1420.34 198.696 1420.34 183.16 1430.92 c 0
 167.624 1441.51 167.624 1441.51 146.703 1443.27 c 2,10,-1
 44.4258 1451.54 l 1,11,-1
 34.0928 1576.54 l 1,12,-1
 161.167 1576.54 l 2,13,14
 206.756 1576.54 206.756 1576.54 244.467 1566.36 c 0
 282.178 1556.18 282.178 1556.18 309.856 1541.64 c 0
 337.533 1527.1 337.533 1527.1 359.387 1498.59 c 0
 381.241 1470.08 381.241 1470.08 395.528 1446.37 c 0
 409.815 1422.66 409.815 1422.66 420.304 1380.32 c 0
 430.794 1337.98 430.794 1337.98 436.184 1309.62 c 0
 441.574 1281.25 441.574 1281.25 445.193 1229.59 c 0
 448.812 1177.93 448.812 1177.93 449.798 1149.41 c 0
 450.785 1120.9 450.785 1120.9 452.054 1065.29 c 0
 453.421 1005.38 453.421 1005.38 454.549 974.961 c 0
 455.676 944.544 455.676 944.544 459.954 892.167 c 0
 464.233 839.789 464.233 839.789 470.945 811.338 c 0
 477.658 782.888 477.658 782.888 490.587 744.977 c 0
 503.516 707.065 503.516 707.065 521.526 686.312 c 0
 539.537 665.559 539.537 665.559 566.831 647.844 c 0
 594.124 630.13 594.124 630.13 629.173 624.009 c 2,15,-1
 690.128 613.676 l 1,16,-1
 690.128 489.7 l 1,17,-1
 625.039 479.37 l 2,18,19
 590.841 473.883 590.841 473.883 564.237 456.818 c 0
 537.632 439.754 537.632 439.754 520.075 419.548 c 0
 502.518 399.341 502.518 399.341 489.944 362.007 c 0
 477.371 324.672 477.371 324.672 470.846 296.618 c 0
 464.322 268.564 464.322 268.564 460.197 216.633 c 0
 456.073 164.701 456.073 164.701 454.999 134.473 c 0
 453.925 104.245 453.925 104.245 452.641 44.5878 c 0
 451.431 -11.6567 451.431 -11.6567 450.468 -40.5518 c 0
 449.505 -69.4469 449.505 -69.4469 445.89 -121.871 c 0
 442.275 -174.295 442.275 -174.295 436.826 -203.17 c 0
 431.376 -232.045 431.376 -232.045 420.745 -275.117 c 0
 410.113 -318.188 410.113 -318.188 395.595 -342.387 c 0
 381.077 -366.585 381.077 -366.585 358.848 -395.648 c 0
 336.619 -424.711 336.619 -424.711 308.451 -439.576 c 0
 280.282 -454.441 280.282 -454.441 241.874 -464.839 c 0
 203.465 -475.236 203.465 -475.236 157.035 -475.236 c 2,20,-1
 27.8945 -475.236 l 5,0,-1
EndSplineSet
Fore
SplineSet
22 -378 m 1,0,-1
 31 -277 l 1,1,-1
 105 -271 l 1,2,3
 174.454 -267.246 174.454 -267.246 184.5 -140 c 0,4,5
 189 -83 189 -83 188.5 -14 c 128,-1,6
 188 55 188 55 192.5 127 c 128,-1,7
 197 199 197 199 211 261.5 c 128,-1,8
 225 324 225 324 262.5 372.5 c 128,-1,9
 300 421 300 421 360 438 c 1,10,-1
 360 445 l 1,11,12
 300 459 300 459 262.5 505 c 128,-1,13
 225 551 225 551 212 613 c 128,-1,14
 199 675 199 675 195 746.5 c 128,-1,15
 191 818 191 818 192 887.5 c 128,-1,16
 193 957 193 957 190 1014.5 c 0,17,18
 183.279 1143.32 183.279 1143.32 117 1149 c 2,19,-1
 35 1155 l 1,20,-1
 28 1255 l 1,21,-1
 129 1255 l 2,22,23
 258.11 1255 258.11 1255 307.5 1165 c 0,24,25
 351.128 1085.5 351.128 1085.5 356.5 955.5 c 0,26,27
 359 895 359 895 359.5 834 c 128,-1,28
 360 773 360 773 365 716 c 128,-1,29
 370 659 370 659 382.5 613 c 0,30,31
 409.757 512.694 409.757 512.694 500 497 c 2,32,-1
 549 488 l 1,33,-1
 549 389 l 1,34,-1
 497 381 l 2,35,36
 388.207 364.118 388.207 364.118 370 210.5 c 0,37,38
 362 143 362 143 361.5 63.5 c 128,-1,39
 361 -16 361 -16 355.5 -94 c 128,-1,40
 350 -172 350 -172 331.5 -235.5 c 128,-1,41
 313 -299 313 -299 261.5 -338.5 c 128,-1,42
 210 -378 210 -378 126 -378 c 2,43,-1
 22 -378 l 1,0,-1
EndSplineSet
Validated: 543777
Colour: ffffff
EndChar

StartChar: bracketleft
Encoding: 91 91 152
Width: 474
VWidth: 0
Flags: W
HStem: -375 96<313.022 466> 1166 89<320.605 463>
VStem: 109 357<-375 -279 1166 1255> 109 151<-260 1146>
LayerCount: 2
Fore
SplineSet
109 -376 m 1,0,-1
 109 1255 l 1,1,-1
 463 1255 l 1,2,-1
 474 1166 l 1,3,-1
 260 1146 l 1,4,-1
 260 -260 l 1,5,-1
 476 -279 l 1,6,-1
 466 -375 l 1,7,-1
 109 -376 l 1,0,-1
EndSplineSet
Validated: 19457
Colour: ffffff
EndChar

StartChar: bracketright
Encoding: 93 93 153
Width: 474
VWidth: 0
Flags: W
HStem: -375 96<10 163.732> 1166 89<13 155.829>
VStem: 10 358<-375 -279 1166 1255> 217 151<-260 1146>
LayerCount: 2
Fore
SplineSet
0 -279 m 1,0,-1
 217 -260 l 1,1,-1
 217 1146 l 1,2,-1
 1 1166 l 1,3,-1
 13 1255 l 1,4,-1
 366 1255 l 1,5,-1
 368 -376 l 1,6,-1
 10 -375 l 1,7,-1
 0 -279 l 1,0,-1
EndSplineSet
Validated: 19457
Colour: ffffff
EndChar

StartChar: breve
Encoding: 728 728 154
Width: 566
VWidth: 0
Flags: W
HStem: 1373 110<173.609 388.53>
VStem: 90 46<1545.48 1561.28>
LayerCount: 2
Fore
SplineSet
90 1551 m 1,0,-1
 136 1584 l 1,1,2
 183 1483 183 1483 279 1483 c 128,-1,3
 375 1483 375 1483 432 1585 c 1,4,-1
 473 1556 l 1,5,6
 411 1373 411 1373 273 1373 c 128,-1,7
 135 1373 135 1373 90 1551 c 1,0,-1
EndSplineSet
Validated: 19457
Colour: ffffff
EndChar

StartChar: brokenbar
Encoding: 166 166 155
Width: 335
VWidth: 0
Flags: W
HStem: -380 21G<109 228> 1240 20G<109 227>
VStem: 109 119<-366 411 540 1248>
LayerCount: 2
Fore
SplineSet
109 540 m 1,0,-1
 109 1260 l 1,1,-1
 227 1248 l 1,2,-1
 225 529 l 1,3,-1
 109 540 l 1,0,-1
109 -366 m 1,4,-1
 109 423 l 1,5,-1
 228 411 l 1,6,-1
 228 -380 l 1,7,-1
 109 -366 l 1,4,-1
EndSplineSet
Validated: 19457
Colour: ffffff
EndChar

StartChar: bullet
Encoding: 8226 8226 156
Width: 494
VWidth: 0
Flags: W
HStem: 395 346<131.244 362.178>
VStem: 71 352<456.394 683.204>
LayerCount: 2
Fore
SplineSet
122.5 448 m 128,-1,1
 71 501 71 501 71 572.5 c 128,-1,2
 71 644 71 644 123 692.5 c 128,-1,3
 175 741 175 741 246.5 741 c 128,-1,4
 318 741 318 741 370.5 691.5 c 128,-1,5
 423 642 423 642 423 570.5 c 128,-1,6
 423 499 423 499 370.5 447 c 128,-1,7
 318 395 318 395 246 395 c 128,-1,0
 174 395 174 395 122.5 448 c 128,-1,1
EndSplineSet
Validated: 19457
Colour: ffffff
EndChar

StartChar: c
Encoding: 99 99 157
Width: 778
VWidth: 0
Flags: W
HStem: -30 120<390.602 643.116> 806 94<317.08 502.396>
VStem: 50 181<292.481 635.741>
LayerCount: 2
Fore
SplineSet
544.672 90 m 0,0,1
 635.345 90 635.345 90 730 151 c 1,2,-1
 755 93 l 1,3,4
 713 43 713 43 625.5 6.5 c 128,-1,5
 538 -30 538 -30 445 -30 c 0,6,7
 270 -30 270 -30 160 100 c 128,-1,8
 50 230 50 230 50 415 c 0,9,10
 50 523 50 523 86 615.5 c 128,-1,11
 122 708 122 708 181.5 769.5 c 0,12,13
 307.756 900 307.756 900 475 900 c 0,14,15
 593 900 593 900 654.5 855.5 c 128,-1,16
 716 811 716 811 716 756.5 c 0,17,18
 716 650.328 716 650.328 589 642 c 1,19,20
 541.776 758.245 541.776 758.245 485 791 c 0,21,22
 459 806 459 806 428 806 c 0,23,24
 339 806 339 806 285 724.5 c 128,-1,25
 231 643 231 643 231 507 c 0,26,27
 231 369.294 231 369.294 301 236.5 c 0,28,29
 378.225 90 378.225 90 544.672 90 c 0,0,1
EndSplineSet
Validated: 543745
Colour: ffffff
EndChar

StartChar: cacute
Encoding: 263 263 158
Width: 778
VWidth: 0
Flags: W
HStem: -30 120<390.602 643.116> 806 94<317.08 502.396>
VStem: 50 181<292.481 635.741>
LayerCount: 2
Fore
SplineSet
354 1034 m 1,0,-1
 476 1358 l 1,1,-1
 589 1318 l 1,2,-1
 405 1002 l 1,3,-1
 354 1034 l 1,0,-1
544.672 90 m 0,4,5
 635.345 90 635.345 90 730 151 c 1,6,-1
 755 93 l 1,7,8
 713 43 713 43 625.5 6.5 c 128,-1,9
 538 -30 538 -30 445 -30 c 0,10,11
 270 -30 270 -30 160 100 c 128,-1,12
 50 230 50 230 50 415 c 0,13,14
 50 523 50 523 86 615.5 c 128,-1,15
 122 708 122 708 181.5 769.5 c 0,16,17
 307.756 900 307.756 900 475 900 c 0,18,19
 593 900 593 900 654.5 855.5 c 128,-1,20
 716 811 716 811 716 756.5 c 0,21,22
 716 650.328 716 650.328 589 642 c 1,23,24
 541.776 758.245 541.776 758.245 485 791 c 0,25,26
 459 806 459 806 428 806 c 0,27,28
 339 806 339 806 285 724.5 c 128,-1,29
 231 643 231 643 231 507 c 0,30,31
 231 369.294 231 369.294 301 236.5 c 0,32,33
 378.225 90 378.225 90 544.672 90 c 0,4,5
EndSplineSet
Validated: 543745
Colour: ffffff
EndChar

StartChar: caron
Encoding: 711 711 159
Width: 590
VWidth: 0
Flags: W
HStem: 1357 227
VStem: 92 408
DStem2: 174 1584 92 1522 0.735276 -0.677768<0 206.419> 332 1440 328 1370 0.690858 0.722991<0 186.917>
LayerCount: 2
Fore
SplineSet
92 1522 m 1,0,-1
 174 1584 l 1,1,-1
 322 1440 l 1,2,-1
 332 1440 l 1,3,-1
 455 1581 l 1,4,-1
 500 1550 l 1,5,-1
 328 1370 l 1,6,-1
 271 1357 l 1,7,-1
 92 1522 l 1,0,-1
EndSplineSet
Validated: 19457
Colour: ffffff
EndChar

StartChar: ccaron
Encoding: 269 269 160
Width: 778
VWidth: 0
Flags: W
HStem: -30 120<390.602 643.116> 806 94<317.08 502.396>
VStem: 50 181<292.481 635.741>
DStem2: 302 1237 222 1174 0.739196 -0.67349<0 207.123> 461 1093 457 1024 0.655796 0.754938<0 187.765>
LayerCount: 2
Fore
SplineSet
222 1174 m 1,0,-1
 302 1237 l 1,1,-1
 451 1093 l 1,2,-1
 461 1093 l 1,3,-1
 585 1234 l 1,4,-1
 628 1203 l 1,5,-1
 457 1024 l 1,6,-1
 402 1010 l 1,7,-1
 222 1174 l 1,0,-1
544.672 90 m 0,8,9
 635.345 90 635.345 90 730 151 c 1,10,-1
 755 93 l 1,11,12
 713 43 713 43 625.5 6.5 c 128,-1,13
 538 -30 538 -30 445 -30 c 0,14,15
 270 -30 270 -30 160 100 c 128,-1,16
 50 230 50 230 50 415 c 0,17,18
 50 523 50 523 86 615.5 c 128,-1,19
 122 708 122 708 181.5 769.5 c 0,20,21
 307.756 900 307.756 900 475 900 c 0,22,23
 593 900 593 900 654.5 855.5 c 128,-1,24
 716 811 716 811 716 756.5 c 0,25,26
 716 650.328 716 650.328 589 642 c 1,27,28
 541.776 758.245 541.776 758.245 485 791 c 0,29,30
 459 806 459 806 428 806 c 0,31,32
 339 806 339 806 285 724.5 c 128,-1,33
 231 643 231 643 231 507 c 0,34,35
 231 369.294 231 369.294 301 236.5 c 0,36,37
 378.225 90 378.225 90 544.672 90 c 0,8,9
EndSplineSet
Validated: 543745
Colour: ffffff
EndChar

StartChar: ccedilla
Encoding: 231 231 161
Width: 783
VWidth: 0
Flags: W
HStem: -389 58<346.057 380.879> 806 94<319.002 504.649>
VStem: 54 179<289.931 637.13> 417 133<-311.888 -166.893>
LayerCount: 2
Fore
SplineSet
546.672 90 m 0,0,1
 637.345 90 637.345 90 732 151 c 1,2,-1
 758 93 l 1,3,4
 722 49 722 49 649.5 14.5 c 128,-1,5
 577 -20 577 -20 495 -28 c 1,6,-1
 461 -76 l 1,7,8
 550 -155 550 -155 550 -227 c 0,9,10
 550 -331 550 -331 351 -389 c 1,11,-1
 331 -331 l 1,12,13
 372 -317 372 -317 394.5 -294.5 c 128,-1,14
 417 -272 417 -272 417 -239.5 c 128,-1,15
 417 -207 417 -207 344 -138 c 1,16,-1
 419 -28 l 1,17,18
 255 -17 255 -17 154.5 110.5 c 128,-1,19
 54 238 54 238 54 415 c 0,20,21
 54 523 54 523 89.5 615.5 c 128,-1,22
 125 708 125 708 184 769.5 c 0,23,24
 309.195 900 309.195 900 477 900 c 0,25,26
 595 900 595 900 657 855.5 c 128,-1,27
 719 811 719 811 719 756.5 c 0,28,29
 719 650.328 719 650.328 592 642 c 1,30,31
 544.599 758.68 544.599 758.68 487.5 791 c 0,32,33
 461 806 461 806 430 806 c 0,34,35
 341 806 341 806 287 724.5 c 128,-1,36
 233 643 233 643 233 507 c 0,37,38
 233 369.294 233 369.294 303 236.5 c 0,39,40
 380.225 90 380.225 90 546.672 90 c 0,0,1
EndSplineSet
Validated: 543745
Colour: ffffff
EndChar

StartChar: cdotaccent
Encoding: 267 267 162
Width: 778
VWidth: 0
Flags: W
HStem: -30 120<375.602 628.116> 806 94<302.08 487.396> 987 238<360.128 527.356>
VStem: 35 181<292.481 635.741> 323 242<1015.95 1190.45>
LayerCount: 2
Fore
SplineSet
529.672 90 m 0,0,1
 620.345 90 620.345 90 715 151 c 1,2,-1
 740 93 l 1,3,4
 698 43 698 43 610.5 6.5 c 128,-1,5
 523 -30 523 -30 430 -30 c 0,6,7
 255 -30 255 -30 145 100 c 128,-1,8
 35 230 35 230 35 415 c 0,9,10
 35 523 35 523 71 615.5 c 128,-1,11
 107 708 107 708 166.5 769.5 c 0,12,13
 292.756 900 292.756 900 460 900 c 0,14,15
 578 900 578 900 639.5 855.5 c 128,-1,16
 701 811 701 811 701 756.5 c 0,17,18
 701 650.328 701 650.328 574 642 c 1,19,20
 526.776 758.245 526.776 758.245 470 791 c 0,21,22
 444 806 444 806 413 806 c 0,23,24
 324 806 324 806 270 724.5 c 128,-1,25
 216 643 216 643 216 507 c 0,26,27
 216 369.294 216 369.294 286 236.5 c 0,28,29
 363.225 90 363.225 90 529.672 90 c 0,0,1
358 1023.5 m 128,-1,31
 323 1060 323 1060 323 1109 c 128,-1,32
 323 1158 323 1158 359 1191.5 c 128,-1,33
 395 1225 395 1225 443.5 1225 c 128,-1,34
 492 1225 492 1225 528.5 1191.5 c 128,-1,35
 565 1158 565 1158 565 1109 c 128,-1,36
 565 1060 565 1060 528.5 1023.5 c 128,-1,37
 492 987 492 987 442.5 987 c 128,-1,30
 393 987 393 987 358 1023.5 c 128,-1,31
EndSplineSet
Validated: 543745
Colour: ffffff
EndChar

